<?xml version="1.0" standalone="no"?><!DOCTYPE svg PUBLIC "-//W3C//DTD SVG 1.1//EN" "http://www.w3.org/Graphics/SVG/1.1/DTD/svg11.dtd" ><svg xmlns="http://www.w3.org/2000/svg"><metadata></metadata><defs><font id="D-DIN Bold Build 100" horiz-adv-x="1254"><font-face font-family="D-DIN" font-weight="700" font-stretch="normal" units-per-em="1000" panose-1="2 11 8 4 3 2 2 3 2 4" ascent="831" descent="-169" x-height="4" bbox="-161 -169 1214 898" underline-thickness="50" underline-position="-125" unicode-range="U+000d-fb02" /><missing-glyph horiz-adv-x="600" d="M101 690 l397 0 l0 -690 l-397 0 l0 690 ZM464 34 l0 622 l-329 0 l0 -622 l329 0 Z" /><glyph glyph-name=".null" unicode="" d="" /><glyph glyph-name="nonmarkingreturn" unicode="" d="" /><glyph glyph-name="space" unicode=" " d="" /><glyph glyph-name="exclam" unicode="!" d="M54 690 l141 0 l-24 -460 l-93 0 l-24 460 ZM59 130 l131 0 l0 -130 l-131 0 l0 130 Z" /><glyph glyph-name="quotedbl" unicode="&quot;" d="M38 690 l117 0 l0 -298 l-117 0 l0 298 ZM227 690 l116 0 l0 -298 l-116 0 l0 298 Z" /><glyph glyph-name="numbersign" unicode="#" d="M431 406 l-14 -110 l79 0 l0 -92 l-91 0 l-27 -204 l-104 0 l27 204 l-106 0 l-27 -204 l-103 0 l27 204 l-74 0 l0 92 l86 0 l15 110 l-76 0 l0 92 l88 0 l25 192 l103 0 l-25 -192 l106 0 l25 192 l103 0 l-25 -192 l78 0 l0 -92 l-90 0 ZM328 406 l-106 0 l-15 -110 l106 0 l15 110 Z" /><glyph glyph-name="dollar" unicode="$" d="M452 224 q0 -80 -41 -128 q-41 -48 -114 -62 l0 -94 l-103 0 l0 92 q-75 11 -118 61.5 q-43 50.5 -47 133.5 l115 0 q6 -50 29.5 -70.5 q23.5 -20.5 70.5 -20.5 q86 0 86 78 q0 35 -17 53.5 q-17 18.5 -55 25.5 l-49 9 q-84 15 -124.5 57.5 q-40.5 42.5 -40.5 117.5 q0 74 40 122 q40 48 110 62 l0 79 l103 0 l0 -80 q65 -14 103 -60.5 q38 -46.5 43 -120.5 l-118 0 q-4 43 -24 62.5 q-20 19.5 -60 19.5 q-37 0 -57 -19.5 q-20 -19.5 -20 -55.5 q0 -32 19 -50 q19 -18 62 -26 l57 -11 q75 -14 112.5 -57 q37.5 -43 37.5 -118 ZM132 690 l0 0 Z" /><glyph glyph-name="percent" unicode="%" d="M175 264 q-70 0 -102.5 37.5 q-32.5 37.5 -32.5 111.5 l0 142 q0 70 34.5 105.5 q34.5 35.5 100.5 35.5 q69 0 101.5 -35 q32.5 -35 32.5 -106 l0 -142 q0 -74 -32.5 -111.5 q-32.5 -37.5 -101.5 -37.5 ZM595 695 l99 0 l-386 -695 l-98 0 l385 695 ZM175 353 q21 0 26 13 q5 13 5 52 l0 124 q0 38 -5.5 52 q-5.5 14 -25.5 14 q-20 0 -26 -14 q-6 -14 -6 -52 l0 -124 q0 -37 5.5 -51 q5.5 -14 26.5 -14 ZM729 -6 q-70 0 -102.5 37.5 q-32.5 37.5 -32.5 111.5 l0 142 q0 70 34.5 105.5 q34.5 35.5 100.5 35.5 q69 0 101.5 -35 q32.5 -35 32.5 -106 l0 -142 q0 -74 -32.5 -111.5 q-32.5 -37.5 -101.5 -37.5 ZM729 83 q21 0 26 13 q5 13 5 52 l0 124 q0 38 -5.5 52 q-5.5 14 -25.5 14 q-20 0 -26 -14 q-6 -14 -6 -52 l0 -124 q0 -37 5.5 -51 q5.5 -14 26.5 -14 Z" /><glyph glyph-name="ampersand" unicode="&amp;" d="M530 107 l22 0 l0 -107 l-48 0 q-35 0 -56 13 q-21 13 -48 49 l-4 5 q-37 -42 -77 -60 q-40 -18 -91 -18 q-87 0 -135 50 q-48 50 -48 132 q0 57 28 106 q28 49 95 104 q-41 57 -57 90.5 q-16 33.5 -16 69.5 q0 46 22 82.5 q22 36.5 60.5 57 q38.5 20.5 86.5 20.5 q49 0 87.5 -21 q38.5 -21 59.5 -57.5 q21 -36.5 21 -80.5 q0 -46 -25 -86 q-25 -40 -88 -93 l87 -117 l69 86 l78 -69 l-83 -104 l19 -26 q20 -26 41 -26 ZM265 605 q-24 0 -39 -16 q-15 -16 -15 -43 q0 -19 8.5 -38 q8.5 -19 36.5 -58 q37 31 49.5 51.5 q12.5 20.5 12.5 44.5 q0 26 -15 42.5 q-15 16.5 -38 16.5 ZM238 96 q25 0 46 12.5 q21 12.5 49 45.5 l-101 138 q-38 -33 -53.5 -59 q-15.5 -26 -15.5 -53 q0 -39 20 -61.5 q20 -22.5 55 -22.5 Z" /><glyph glyph-name="quotesingle" unicode="&#39;" d="M38 690 l117 0 l0 -298 l-117 0 l0 298 Z" /><glyph glyph-name="parenleft" unicode="(" d="M45 328 q0 225 130 412 l90 0 q-48 -95 -72.5 -200.5 q-24.5 -105.5 -24.5 -211.5 q0 -105 25 -211 q25 -106 72 -201 l-91 0 q-129 191 -129 412 Z" /><glyph glyph-name="parenright" unicode=")" d="M45 -84 q47 95 72 201 q25 106 25 211 q0 106 -24.5 211.5 q-24.5 105.5 -72.5 200.5 l90 0 q130 -187 130 -412 q0 -221 -129 -412 l-91 0 Z" /><glyph glyph-name="asterisk" unicode="*" d="M154 486 l-78 -45 l-31 54 l80 46 l-80 46 l31 54 l78 -44 l0 93 l69 0 l0 -94 l78 45 l30 -54 l-80 -46 l81 -46 l-32 -54 l-77 44 l0 -96 l-69 0 l0 97 Z" /><glyph glyph-name="plus" unicode="+" d="M208 219 l-160 0 l0 114 l160 0 l0 160 l114 0 l0 -160 l159 0 l0 -114 l-159 0 l0 -160 l-114 0 l0 160 Z" /><glyph glyph-name="comma" unicode="," d="M38 137 l117 0 l0 -200 l-117 -99 l0 299 Z" /><glyph glyph-name="hyphen" unicode="-" d="M45 403 l275 0 l0 -115 l-275 0 l0 115 Z" /><glyph glyph-name="period" unicode="." d="M38 142 l139 0 l0 -142 l-139 0 l0 142 Z" /><glyph glyph-name="slash" unicode="/" d="M256 695 l104 0 l-212 -705 l-103 0 l211 705 Z" /><glyph glyph-name="zero" unicode="0" d="M256 -11 q-105 0 -155.5 59.5 q-50.5 59.5 -50.5 178.5 l0 244 q0 113 52.5 171.5 q52.5 58.5 153.5 58.5 q105 0 155.5 -58 q50.5 -58 50.5 -172 l0 -244 q0 -118 -50.5 -178 q-50.5 -60 -155.5 -60 ZM256 103 q44 0 59.5 30.5 q15.5 30.5 15.5 104.5 l0 214 q0 74 -15.5 104 q-15.5 30 -59.5 30 q-44 0 -59 -30 q-15 -30 -15 -104 l0 -214 q0 -74 15.5 -104.5 q15.5 -30.5 58.5 -30.5 Z" /><glyph glyph-name="one" unicode="1" d="M152 545 l-116 -84 l0 142 l116 87 l131 0 l0 -690 l-131 0 l0 545 Z" /><glyph glyph-name="two" unicode="2" d="M48 104 l229 297 q38 51 38 97 l0 14 q0 36 -19.5 57 q-19.5 21 -52.5 21 q-33 0 -52 -22 q-19 -22 -19 -61 l0 -16 l-127 0 l0 24 q0 54 24.5 96 q24.5 42 70.5 66 q46 24 108 24 q60 0 105.5 -25 q45.5 -25 70 -67 q24.5 -42 24.5 -93 l0 -17 q0 -45 -16 -83 q-16 -38 -47 -78 l-172 -223 l235 0 l0 -115 l-400 0 l0 104 Z" /><glyph glyph-name="three" unicode="3" d="M249 -11 q-97 0 -150.5 46.5 q-53.5 46.5 -53.5 131.5 l0 21 l122 0 l0 -15 q0 -36 20.5 -54.5 q20.5 -18.5 59.5 -18.5 q37 0 58.5 24 q21.5 24 21.5 65 l0 18 q0 45 -23 69 q-23 24 -67 24 l-35 0 l0 111 l34 0 q38 0 59 22 q21 22 21 61 l0 15 q0 38 -19.5 59.5 q-19.5 21.5 -53.5 21.5 q-35 0 -54 -19.5 q-19 -19.5 -19 -53.5 l0 -17 l-120 0 l0 17 q0 87 52.5 135.5 q52.5 48.5 145.5 48.5 q91 0 143 -49.5 q52 -49.5 52 -132.5 l0 -15 q0 -45 -21 -80.5 q-21 -35.5 -60 -56.5 q45 -19 68.5 -60 q23.5 -41 23.5 -99 l0 -19 q0 -61 -26 -106 q-26 -45 -73 -69.5 q-47 -24.5 -106 -24.5 Z" /><glyph glyph-name="four" unicode="4" d="M486 110 l-56 0 l0 -110 l-131 0 l0 110 l-264 0 l0 115 l197 465 l131 0 l-197 -465 l133 0 l0 162 l131 0 l0 -162 l56 0 l0 -115 Z" /><glyph glyph-name="five" unicode="5" d="M245 -11 q-90 0 -142.5 45 q-52.5 45 -52.5 125 l0 15 l120 0 l0 -6 q0 -32 20 -50 q20 -18 55 -18 q38 0 56.5 24.5 q18.5 24.5 18.5 71.5 l0 52 q0 49 -18.5 72.5 q-18.5 23.5 -57.5 23.5 q-50 0 -71 -47 l-113 0 l0 393 l373 0 l0 -112 l-260 0 l0 -156 q40 32 98 32 q87 0 131.5 -51.5 q44.5 -51.5 44.5 -147.5 l0 -65 q0 -95 -53.5 -148 q-53.5 -53 -148.5 -53 Z" /><glyph glyph-name="six" unicode="6" d="M258 -11 q-100 0 -156.5 54 q-56.5 54 -56.5 150 l0 31 q0 41 11.5 78 q11.5 37 33.5 81 l158 307 l138 0 l-143 -279 q22 10 50 10 q81 0 129.5 -51.5 q48.5 -51.5 48.5 -140.5 l0 -32 q0 -98 -58.5 -153 q-58.5 -55 -154.5 -55 ZM258 100 q38 0 60 24 q22 24 22 67 l0 31 q0 43 -22 66.5 q-22 23.5 -60 23.5 q-38 0 -59.5 -23.5 q-21.5 -23.5 -21.5 -65.5 l0 -33 q0 -42 21.5 -66 q21.5 -24 59.5 -24 Z" /><glyph glyph-name="seven" unicode="7" d="M427 690 l0 -114 l-210 -576 l-132 0 l214 576 l-269 0 l0 114 l397 0 Z" /><glyph glyph-name="eight" unicode="8" d="M262 -11 q-61 0 -109 24.5 q-48 24.5 -75.5 70.5 q-27.5 46 -27.5 106 l0 23 q0 47 22 86.5 q22 39.5 62 62.5 q-32 19 -51.5 53.5 q-19.5 34.5 -19.5 79.5 l0 18 q0 51 24.5 94 q24.5 43 69.5 68.5 q45 25.5 106 25.5 q61 0 106.5 -25.5 q45.5 -25.5 69.5 -68.5 q24 -43 24 -94 l0 -18 q0 -44 -20 -79 q-20 -35 -51 -54 q40 -24 61.5 -63.5 q21.5 -39.5 21.5 -84.5 l0 -23 q0 -61 -27.5 -107 q-27.5 -46 -76 -70.5 q-48.5 -24.5 -109.5 -24.5 ZM263 414 q34 0 54 22.5 q20 22.5 20 57.5 l0 19 q0 33 -20.5 55 q-20.5 22 -53.5 22 q-33 0 -53.5 -22 q-20.5 -22 -20.5 -55 l0 -19 q0 -36 20 -58 q20 -22 54 -22 ZM263 100 q39 0 62.5 25 q23.5 25 23.5 67 l0 24 q0 40 -23.5 65 q-23.5 25 -62.5 25 q-38 0 -62 -25 q-24 -25 -24 -65 l0 -24 q0 -41 23 -66.5 q23 -25.5 63 -25.5 Z" /><glyph glyph-name="nine" unicode="9" d="M273 279 q-22 -10 -50 -10 q-81 0 -129.5 51.5 q-48.5 51.5 -48.5 140.5 l0 32 q0 98 58.5 153 q58.5 55 154.5 55 q100 0 156.5 -54 q56.5 -54 56.5 -150 l0 -31 q0 -40 -11.5 -77.5 q-11.5 -37.5 -33.5 -81.5 l-158 -307 l-138 0 l143 279 ZM258 378 q38 0 59.5 23.5 q21.5 23.5 21.5 65.5 l0 33 q0 42 -21.5 66 q-21.5 24 -59.5 24 q-38 0 -60 -24 q-22 -24 -22 -67 l0 -31 q0 -43 22 -66.5 q22 -23.5 60 -23.5 Z" /><glyph glyph-name="colon" unicode=":" d="M38 142 l139 0 l0 -142 l-139 0 l0 142 ZM38 480 l139 0 l0 -142 l-139 0 l0 142 ZM108 520 l0 0 Z" /><glyph glyph-name="semicolon" unicode=";" d="M38 480 l139 0 l0 -142 l-139 0 l0 142 ZM58 137 l117 0 l0 -200 l-117 -99 l0 299 ZM104 520 l0 0 Z" /><glyph glyph-name="less" unicode="&lt;" d="M48 223 l0 103 l432 169 l0 -115 l-278 -106 l278 -105 l0 -116 l-432 170 Z" /><glyph glyph-name="equal" unicode="=" d="M48 437 l432 0 l0 -113 l-432 0 l0 113 ZM48 228 l432 0 l0 -113 l-432 0 l0 113 Z" /><glyph glyph-name="greater" unicode="&gt;" d="M48 169 l278 105 l-278 106 l0 115 l432 -169 l0 -103 l-432 -170 l0 116 Z" /><glyph glyph-name="question" unicode="?" d="M157 244 q0 39 7.5 62 q7.5 23 33.5 57 l55 71 q20 26 28 44.5 q8 18.5 8 39.5 q0 32 -17.5 50.5 q-17.5 18.5 -53.5 18.5 q-36 0 -52.5 -19.5 q-16.5 -19.5 -17.5 -59.5 l-121 0 q2 94 52 143 q50 49 143 49 q58 0 102.5 -23 q44.5 -23 68.5 -63.5 q24 -40.5 24 -91.5 q0 -36 -12 -66.5 q-12 -30.5 -39 -65.5 l-58 -78 q-16 -21 -21.5 -36.5 q-5.5 -15.5 -5.5 -40.5 l0 -42 l-124 0 l0 51 ZM153 126 l131 0 l0 -126 l-131 0 l0 126 Z" /><glyph glyph-name="at" unicode="@" d="M437 -136 q-115 0 -204 48 q-89 48 -138.5 134.5 q-49.5 86.5 -49.5 199.5 l0 70 q0 113 49.5 199.5 q49.5 86.5 138.5 134.5 q89 48 204 48 q113 0 202 -47.5 q89 -47.5 139 -133.5 q50 -86 50 -196 l0 -70 q0 -96 -48 -146.5 q-48 -50.5 -121 -50.5 q-45 0 -77 17 q-32 17 -49 48 q-32 -65 -128 -65 q-151 0 -151 181 l0 88 q0 86 35.5 134 q35.5 48 108.5 48 q36 0 63.5 -14 q27.5 -14 40.5 -37 l0 40 l109 0 l0 -285 q0 -32 13.5 -47.5 q13.5 -15.5 35.5 -15.5 q28 0 42 24.5 q14 24.5 14 79.5 l0 70 q0 85 -33.5 147.5 q-33.5 62.5 -96 96.5 q-62.5 34 -149.5 34 q-131 0 -205.5 -75 q-74.5 -75 -74.5 -205 l0 -71 q0 -85 33.5 -149 q33.5 -64 96.5 -99 q63 -35 150 -35 q60 0 108 12.5 q48 12.5 99 38.5 l44 -85 q-58 -34 -118 -50 q-60 -16 -133 -16 ZM500 238 l0 84 q0 89 -66 89 q-35 0 -51.5 -23.5 q-16.5 -23.5 -16.5 -64.5 l0 -82 q0 -45 16 -69 q16 -24 52 -24 q66 0 66 90 Z" /><glyph glyph-name="A" unicode="A" d="M421 134 l-237 0 l-42 -134 l-138 0 l245 690 l107 0 l246 -690 l-139 0 l-42 134 ZM386 243 l-84 265 l-83 -265 l167 0 Z" /><glyph glyph-name="B" unicode="B" d="M452 355 q47 -21 71.5 -61 q24.5 -40 24.5 -96 q0 -94 -56 -146 q-56 -52 -156 -52 l-277 0 l0 690 l266 0 q101 0 157.5 -50 q56.5 -50 56.5 -142 q0 -46 -23 -84.5 q-23 -38.5 -64 -58.5 ZM190 576 l0 -168 l125 0 q45 0 68.5 21.5 q23.5 21.5 23.5 60.5 q0 42 -23.5 64 q-23.5 22 -68.5 22 l-125 0 ZM323 114 q47 0 70.5 24.5 q23.5 24.5 23.5 68.5 q0 41 -23.5 64 q-23.5 23 -70.5 23 l-133 0 l0 -180 l133 0 Z" /><glyph glyph-name="C" unicode="C" d="M50 267 l0 158 q0 275 253 275 q113 0 180 -60 q67 -60 67 -169 l0 -7 l-131 0 l0 6 q0 53 -30.5 84 q-30.5 31 -86.5 31 q-63 0 -91.5 -39 q-28.5 -39 -28.5 -128 l0 -149 q0 -84 29.5 -122 q29.5 -38 92.5 -38 q56 0 85.5 30 q29.5 30 29.5 82 l0 8 l129 0 l0 -7 q0 -111 -66 -170.5 q-66 -59.5 -181 -59.5 q-251 0 -251 275 Z" /><glyph glyph-name="D" unicode="D" d="M59 690 l243 0 q115 0 181.5 -64 q66.5 -64 66.5 -210 l0 -141 q0 -146 -68 -210.5 q-68 -64.5 -184 -64.5 l-239 0 l0 690 ZM301 114 q59 0 88.5 39 q29.5 39 29.5 123 l0 133 q0 88 -29 127.5 q-29 39.5 -89 39.5 l-111 0 l0 -462 l111 0 Z" /><glyph glyph-name="E" unicode="E" d="M190 576 l0 -171 l262 0 l0 -114 l-262 0 l0 -177 l307 0 l0 -114 l-438 0 l0 690 l438 0 l0 -114 l-307 0 Z" /><glyph glyph-name="F" unicode="F" d="M190 576 l0 -177 l263 0 l0 -114 l-263 0 l0 -285 l-131 0 l0 690 l438 0 l0 -114 l-307 0 Z" /><glyph glyph-name="G" unicode="G" d="M50 267 l0 158 q0 275 253 275 q113 0 180 -59.5 q67 -59.5 67 -164.5 l0 -7 l-131 0 l0 7 q0 47 -30.5 78 q-30.5 31 -86.5 31 q-63 0 -91.5 -39 q-28.5 -39 -28.5 -128 l0 -149 q0 -85 30.5 -122.5 q30.5 -37.5 94.5 -37.5 q60 0 87.5 31 q27.5 31 27.5 94 l0 33 l-122 0 l0 108 l250 0 l0 -118 q0 -265 -249 -265 q-251 0 -251 275 Z" /><glyph glyph-name="H" unicode="H" d="M550 690 l0 -690 l-131 0 l0 292 l-229 0 l0 -292 l-131 0 l0 690 l131 0 l0 -284 l229 0 l0 284 l131 0 Z" /><glyph glyph-name="I" unicode="I" d="M65 690 l131 0 l0 -690 l-131 0 l0 690 Z" /><glyph glyph-name="J" unicode="J" d="M24 115 l54 0 q31 0 43.5 14.5 q12.5 14.5 12.5 50.5 l0 510 l132 0 l0 -532 q0 -76 -41.5 -117 q-41.5 -41 -116.5 -41 l-84 0 l0 115 Z" /><glyph glyph-name="K" unicode="K" d="M281 307 l-91 -114 l0 -193 l-131 0 l0 690 l131 0 l0 -322 l239 322 l157 0 l-221 -277 l239 -413 l-152 0 l-171 307 Z" /><glyph glyph-name="L" unicode="L" d="M59 690 l131 0 l0 -576 l302 0 l0 -114 l-433 0 l0 690 Z" /><glyph glyph-name="M" unicode="M" d="M673 690 l0 -690 l-131 0 l0 409 l-131 -276 l-88 0 l-133 279 l0 -412 l-131 0 l0 690 l131 0 l177 -381 l175 381 l131 0 Z" /><glyph glyph-name="N" unicode="N" d="M575 690 l0 -690 l-131 0 l-254 431 l0 -431 l-131 0 l0 690 l131 0 l254 -432 l0 432 l131 0 Z" /><glyph glyph-name="O" unicode="O" d="M50 267 l0 158 q0 275 251 275 q115 0 182 -64.5 q67 -64.5 67 -210.5 l0 -158 q0 -146 -68.5 -210.5 q-68.5 -64.5 -184.5 -64.5 q-247 0 -247 275 ZM301 109 q60 0 89 38.5 q29 38.5 29 121.5 l0 149 q0 88 -29 127.5 q-29 39.5 -89 39.5 q-63 0 -91 -38.5 q-28 -38.5 -28 -128.5 l0 -149 q0 -85 28 -122.5 q28 -37.5 91 -37.5 Z" /><glyph glyph-name="P" unicode="P" d="M317 690 q105 0 165.5 -58 q60.5 -58 60.5 -159 q0 -96 -60.5 -153.5 q-60.5 -57.5 -165.5 -57.5 l-127 0 l0 -262 l-131 0 l0 690 l258 0 ZM311 377 q47 0 74 25 q27 25 27 71 q0 50 -26.5 76.5 q-26.5 26.5 -74.5 26.5 l-121 0 l0 -199 l121 0 Z" /><glyph glyph-name="Q" unicode="Q" d="M456 35 l73 -134 l-100 -55 l-81 149 q-24 -3 -51 -3 q-247 0 -247 275 l0 158 q0 275 251 275 q115 0 182 -64.5 q67 -64.5 67 -210.5 l0 -158 q0 -166 -94 -232 ZM182 269 q0 -85 28 -122.5 q28 -37.5 91 -37.5 q60 0 89 38.5 q29 38.5 29 121.5 l0 149 q0 88 -29 127.5 q-29 39.5 -89 39.5 q-63 0 -91 -38.5 q-28 -38.5 -28 -128.5 l0 -149 Z" /><glyph glyph-name="R" unicode="R" d="M288 280 l-98 0 l0 -280 l-131 0 l0 690 l262 0 q101 0 161 -55.5 q60 -55.5 60 -150.5 q0 -68 -31.5 -115 q-31.5 -47 -90.5 -69 l150 -300 l-151 0 l-131 280 ZM190 389 l124 0 q46 0 71.5 24.5 q25.5 24.5 25.5 70.5 q0 42 -26 67 q-26 25 -71 25 l-124 0 l0 -187 Z" /><glyph glyph-name="S" unicode="S" d="M267 -6 q-111 0 -173 55.5 q-62 55.5 -69 160.5 l124 0 q7 -57 36.5 -80.5 q29.5 -23.5 87.5 -23.5 q111 0 111 91 q0 41 -22 62.5 q-22 21.5 -70 29.5 l-65 11 q-187 31 -187 192 q0 96 63.5 152 q63.5 56 168.5 56 q102 0 161.5 -54 q59.5 -54 67.5 -152 l-126 0 q-3 50 -29 73 q-26 23 -76 23 q-51 0 -77 -23.5 q-26 -23.5 -26 -64.5 q0 -36 23 -57 q23 -21 72 -30 l73 -13 q178 -32 178 -194 q0 -104 -66.5 -159 q-66.5 -55 -179.5 -55 Z" /><glyph glyph-name="T" unicode="T" d="M490 576 l-176 0 l0 -576 l-132 0 l0 576 l-176 0 l0 114 l484 0 l0 -114 Z" /><glyph glyph-name="U" unicode="U" d="M306 -6 q-70 0 -126.5 29.5 q-56.5 29.5 -88.5 83 q-32 53.5 -32 121.5 l0 462 l131 0 l0 -458 q0 -59 31 -91.5 q31 -32.5 85 -32.5 q54 0 85.5 32.5 q31.5 32.5 31.5 91.5 l0 458 l132 0 l0 -462 q0 -68 -32.5 -121.5 q-32.5 -53.5 -89 -83 q-56.5 -29.5 -127.5 -29.5 Z" /><glyph glyph-name="V" unicode="V" d="M4 690 l137 0 l136 -477 l136 477 l137 0 l-221 -690 l-105 0 l-220 690 Z" /><glyph glyph-name="W" unicode="W" d="M829 690 l-165 -690 l-120 0 l-126 511 l-125 -511 l-119 0 l-170 690 l131 0 l104 -487 l101 487 l163 0 l106 -487 l98 487 l122 0 Z" /><glyph glyph-name="X" unicode="X" d="M219 359 l-199 331 l155 0 l122 -224 l120 224 l149 0 l-195 -326 l218 -364 l-156 0 l-139 255 l-141 -255 l-149 0 l215 359 Z" /><glyph glyph-name="Y" unicode="Y" d="M336 284 l0 -284 l-131 0 l0 283 l-201 407 l143 0 l123 -280 l123 280 l144 0 l-201 -406 Z" /><glyph glyph-name="Z" unicode="Z" d="M478 115 l0 -115 l-448 0 l0 115 l297 461 l-291 0 l0 114 l433 0 l0 -114 l-296 -461 l305 0 Z" /><glyph glyph-name="bracketleft" unicode="[" d="M59 741 l211 0 l0 -115 l-87 0 l0 -595 l87 0 l0 -115 l-211 0 l0 825 Z" /><glyph glyph-name="backslash" unicode="\" d="M45 695 l103 0 l212 -705 l-103 0 l-212 705 Z" /><glyph glyph-name="bracketright" unicode="]" d="M45 31 l88 0 l0 592 l-88 0 l0 114 l212 0 l0 -821 l-212 0 l0 115 Z" /><glyph glyph-name="asciicircum" unicode="^" d="M212 695 l104 0 l170 -424 l-103 0 l-119 304 l-119 -304 l-103 0 l170 424 Z" /><glyph glyph-name="underscore" unicode="_" d="M0 -40 l500 0 l0 -81 l-500 0 l0 81 Z" /><glyph glyph-name="grave" unicode="`" d="M127 721 l137 0 l108 -133 l-107 0 l-138 133 Z" /><glyph glyph-name="a" unicode="a" d="M242 526 q99 0 152 -46.5 q53 -46.5 53 -137.5 l0 -342 l-120 0 l0 45 q-26 -27 -53.5 -39 q-27.5 -12 -69.5 -12 q-80 0 -124 43 q-44 43 -44 119 q0 70 47 110.5 q47 40.5 131 40.5 l110 0 l0 41 q0 83 -83 83 q-35 0 -55.5 -17.5 q-20.5 -17.5 -20.5 -46.5 l0 -3 l-115 0 l0 4 q0 73 52 115.5 q52 42.5 140 42.5 ZM232 94 q49 0 70.5 22.5 q21.5 22.5 21.5 68.5 l0 37 l-90 0 q-78 0 -78 -63 q0 -65 76 -65 Z" /><glyph glyph-name="b" unicode="b" d="M175 48 l0 -48 l-121 0 l0 690 l124 0 l0 -223 q43 59 116 59 q78 0 127 -53 q49 -53 49 -161 l0 -103 q0 -108 -49 -161.5 q-49 -53.5 -123 -53.5 q-79 0 -123 54 ZM346 213 l0 94 q0 58 -22.5 83.5 q-22.5 25.5 -60.5 25.5 q-40 0 -63 -28 q-23 -28 -23 -81 l0 -94 q0 -53 23.5 -81 q23.5 -28 65.5 -28 q80 0 80 109 Z" /><glyph glyph-name="c" unicode="c" d="M256 -6 q-98 0 -154.5 53 q-56.5 53 -56.5 165 l0 97 q0 111 56.5 164 q56.5 53 154.5 53 q96 0 150 -49 q54 -49 54 -136 l0 -10 l-118 0 l0 6 q0 37 -22.5 58 q-22.5 21 -61.5 21 q-90 0 -90 -109 l0 -94 q0 -59 23.5 -84 q23.5 -25 66.5 -25 q39 0 61.5 20 q22.5 20 22.5 56 l0 6 l118 0 l0 -7 q0 -86 -54 -135.5 q-54 -49.5 -150 -49.5 Z" /><glyph glyph-name="d" unicode="d" d="M217 -6 q-75 0 -123.5 53.5 q-48.5 53.5 -48.5 161.5 l0 103 q0 108 47.5 161 q47.5 53 123.5 53 q78 0 121 -59 l0 223 l123 0 l0 -690 l-121 0 l0 48 q-43 -54 -122 -54 ZM249 104 q42 0 65 28 q23 28 23 81 l0 94 q0 53 -22.5 81 q-22.5 28 -62.5 28 q-83 0 -83 -109 l0 -94 q0 -109 80 -109 Z" /><glyph glyph-name="e" unicode="e" d="M168 223 l0 -14 q0 -58 26 -83 q26 -25 74 -25 q37 0 58 15.5 q21 15.5 23 43.5 l1 3 l118 0 l0 -5 q0 -74 -55 -119 q-55 -45 -150 -45 q-100 0 -159 57.5 q-59 57.5 -59 177.5 l0 63 q0 117 57 175.5 q57 58.5 157 58.5 q98 0 155.5 -59 q57.5 -59 57.5 -175 l0 -69 l-304 0 ZM259 420 q-44 0 -67.5 -25 q-23.5 -25 -23.5 -84 l0 -3 l180 0 l0 13 q0 99 -89 99 Z" /><glyph glyph-name="f" unicode="f" d="M266 606 q-27 0 -39.5 -12.5 q-12.5 -12.5 -12.5 -37.5 l0 -36 l93 0 l0 -87 l-93 0 l0 -433 l-123 0 l0 433 l-55 0 l0 87 l55 0 l0 31 q0 66 37.5 102.5 q37.5 36.5 106.5 36.5 l72 0 l0 -84 l-41 0 Z" /><glyph glyph-name="g" unicode="g" d="M249 -164 q-91 0 -141.5 40 q-50.5 40 -55.5 111 l119 0 q5 -24 26.5 -38.5 q21.5 -14.5 56.5 -14.5 q85 0 85 96 l0 64 q-43 -54 -122 -54 q-75 0 -123.5 53.5 q-48.5 53.5 -48.5 161.5 l0 57 q0 108 47.5 161 q47.5 53 123.5 53 q78 0 121 -59 l0 53 l123 0 l0 -482 q0 -93 -56 -147.5 q-56 -54.5 -155 -54.5 ZM249 150 q42 0 65 28 q23 28 23 81 l0 48 q0 53 -22.5 81 q-22.5 28 -62.5 28 q-83 0 -83 -109 l0 -48 q0 -109 80 -109 Z" /><glyph glyph-name="h" unicode="h" d="M54 690 l124 0 l0 -216 q23 26 54 39 q31 13 66 13 q80 0 124 -49.5 q44 -49.5 44 -137.5 l0 -339 l-124 0 l0 324 q0 45 -22 68.5 q-22 23.5 -59 23.5 q-36 0 -59.5 -24 q-23.5 -24 -23.5 -68 l0 -324 l-124 0 l0 690 Z" /><glyph glyph-name="i" unicode="i" d="M59 520 l123 0 l0 -520 l-123 0 l0 520 ZM57 690 l126 0 l0 -99 l-126 0 l0 99 Z" /><glyph glyph-name="j" unicode="j" d="M56 690 l126 0 l0 -99 l-126 0 l0 99 ZM-33 -49 l42 0 q26 0 38 14 q12 14 12 45 l0 510 l123 0 l0 -518 q0 -76 -41 -117 q-41 -41 -116 -41 l-58 0 l0 107 Z" /><glyph glyph-name="k" unicode="k" d="M233 218 l-55 -64 l0 -154 l-124 0 l0 690 l124 0 l0 -386 l168 216 l147 0 l-178 -207 l191 -313 l-150 0 l-123 218 Z" /><glyph glyph-name="l" unicode="l" d="M212 0 q-75 0 -116.5 41 q-41.5 41 -41.5 117 l0 532 l124 0 l0 -524 q0 -32 11.5 -45.5 q11.5 -13.5 37.5 -13.5 l42 0 l0 -107 l-57 0 Z" /><glyph glyph-name="m" unicode="m" d="M54 520 l121 0 l0 -47 q23 25 55.5 39 q32.5 14 67.5 14 q87 0 133 -65 q60 65 147 65 q83 0 129.5 -50 q46.5 -50 46.5 -137 l0 -339 l-124 0 l0 324 q0 45 -22.5 68.5 q-22.5 23.5 -58.5 23.5 q-38 0 -60.5 -24.5 q-22.5 -24.5 -22.5 -64.5 l0 -327 l-124 0 l0 324 q0 45 -22.5 68.5 q-22.5 23.5 -58.5 23.5 q-37 0 -60 -24 q-23 -24 -23 -68 l0 -324 l-124 0 l0 520 Z" /><glyph glyph-name="n" unicode="n" d="M54 520 l121 0 l0 -47 q23 26 55.5 39.5 q32.5 13.5 67.5 13.5 q80 0 124 -50 q44 -50 44 -137 l0 -339 l-124 0 l0 324 q0 44 -22 68 q-22 24 -59 24 q-36 0 -59.5 -24 q-23.5 -24 -23.5 -68 l0 -324 l-124 0 l0 520 Z" /><glyph glyph-name="o" unicode="o" d="M256 -6 q-98 0 -154.5 53 q-56.5 53 -56.5 165 l0 97 q0 111 56.5 164 q56.5 53 154.5 53 q97 0 153 -53 q56 -53 56 -164 l0 -97 q0 -112 -56 -165 q-56 -53 -153 -53 ZM342 213 l0 94 q0 109 -86 109 q-88 0 -88 -109 l0 -94 q0 -109 88 -109 q86 0 86 109 Z" /><glyph glyph-name="p" unicode="p" d="M54 520 l121 0 l0 -53 q46 59 119 59 q78 0 127 -53 q49 -53 49 -161 l0 -103 q0 -108 -49 -161.5 q-49 -53.5 -123 -53.5 q-77 0 -120 53 l0 -203 l-124 0 l0 676 ZM346 213 l0 94 q0 58 -22.5 83.5 q-22.5 25.5 -60.5 25.5 q-40 0 -63 -28 q-23 -28 -23 -81 l0 -94 q0 -53 23.5 -81 q23.5 -28 65.5 -28 q80 0 80 109 Z" /><glyph glyph-name="q" unicode="q" d="M337 47 q-43 -53 -120 -53 q-75 0 -123.5 53.5 q-48.5 53.5 -48.5 161.5 l0 103 q0 108 48.5 161 q48.5 53 126.5 53 q75 0 119 -59 l0 53 l121 0 l0 -676 l-123 0 l0 203 ZM249 104 q42 0 65 28 q23 28 23 81 l0 94 q0 53 -22.5 81 q-22.5 28 -62.5 28 q-83 0 -83 -109 l0 -94 q0 -109 80 -109 Z" /><glyph glyph-name="r" unicode="r" d="M54 520 l121 0 l0 -54 q19 33 51 49 q32 16 72 16 q23 0 42 -4 l0 -116 q-35 11 -62 11 q-45 0 -72.5 -28.5 q-27.5 -28.5 -27.5 -81.5 l0 -312 l-124 0 l0 520 Z" /><glyph glyph-name="s" unicode="s" d="M233 -6 q-89 0 -143 43.5 q-54 43.5 -54 116.5 l0 4 l116 0 l0 -2 q0 -29 23.5 -45.5 q23.5 -16.5 61.5 -16.5 q41 0 64 14.5 q23 14.5 23 43.5 q0 24 -17 37 q-17 13 -57 19 l-55 9 q-78 13 -115 48 q-37 35 -37 100 q0 74 54.5 117.5 q54.5 43.5 139.5 43.5 q58 0 102.5 -19.5 q44.5 -19.5 69 -54 q24.5 -34.5 24.5 -77.5 l0 -6 l-115 0 l0 3 q0 27 -21.5 42 q-21.5 15 -59.5 15 q-38 0 -58 -15 q-20 -15 -20 -40 q0 -23 15.5 -36 q15.5 -13 50.5 -18 l61 -9 q78 -11 117 -48 q39 -37 39 -102 q0 -80 -58 -123.5 q-58 -43.5 -151 -43.5 Z" /><glyph glyph-name="t" unicode="t" d="M220 433 l0 -275 q0 -53 51 -53 l39 0 l0 -105 l-59 0 q-71 0 -112.5 40.5 q-41.5 40.5 -41.5 109.5 l0 283 l-72 0 l0 87 l72 0 l0 102 l123 43 l0 -145 l100 0 l0 -87 l-100 0 Z" /><glyph glyph-name="u" unicode="u" d="M54 210 l0 310 l124 0 l0 -304 q0 -55 16.5 -83.5 q16.5 -28.5 65.5 -28.5 q49 0 65.5 27 q16.5 27 16.5 85 l0 304 l124 0 l0 -310 q0 -108 -51 -162 q-51 -54 -155 -54 q-206 0 -206 216 Z" /><glyph glyph-name="v" unicode="v" d="M9 520 l131 0 l101 -330 l100 330 l131 0 l-181 -520 l-102 0 l-180 520 Z" /><glyph glyph-name="w" unicode="w" d="M9 520 l131 0 l81 -330 l100 330 l93 0 l100 -330 l81 330 l132 0 l-153 -520 l-105 0 l-102 337 l-101 -337 l-105 0 l-152 520 Z" /><glyph glyph-name="x" unicode="x" d="M321 0 l-96 164 l-86 -164 l-130 0 l156 268 l-147 252 l130 0 l86 -148 l77 148 l130 0 l-149 -248 l158 -272 l-129 0 Z" /><glyph glyph-name="y" unicode="y" d="M473 520 l-197 -565 q-20 -57 -57.5 -83 q-37.5 -26 -99.5 -26 l-43 0 l0 111 l39 0 q30 0 44.5 10.5 q14.5 10.5 23.5 39.5 l2 7 l-176 506 l131 0 l102 -327 l104 327 l127 0 Z" /><glyph glyph-name="z" unicode="z" d="M410 416 l-230 -312 l230 0 l0 -104 l-365 0 l0 104 l230 312 l-230 0 l0 104 l365 0 l0 -104 Z" /><glyph glyph-name="braceleft" unicode="{" d="M245 -84 q-60 0 -92 31.5 q-32 31.5 -32 91.5 l0 158 q0 42 -17 61 q-17 19 -59 19 l0 106 q42 0 59 19 q17 19 17 61 l0 155 q0 59 32 90.5 q32 31.5 92 31.5 l70 0 l0 -100 l-35 0 q-42 0 -42 -44 l0 -139 q0 -57 -15.5 -85.5 q-15.5 -28.5 -55.5 -41.5 q40 -14 55.5 -42 q15.5 -28 15.5 -85 l0 -143 q0 -44 42 -44 l35 0 l0 -100 l-70 0 Z" /><glyph glyph-name="bar" unicode="|" d="M90 740 l115 0 l0 -824 l-115 0 l0 824 Z" /><glyph glyph-name="braceright" unicode="}" d="M45 16 l35 0 q43 0 43 44 l0 143 q0 57 15.5 85 q15.5 28 55.5 42 q-40 13 -55.5 41.5 q-15.5 28.5 -15.5 85.5 l0 139 q0 44 -43 44 l-35 0 l0 100 l71 0 q60 0 91.5 -31.5 q31.5 -31.5 31.5 -90.5 l0 -155 q0 -42 17.5 -61 q17.5 -19 58.5 -19 l0 -106 q-41 0 -58.5 -19 q-17.5 -19 -17.5 -61 l0 -158 q0 -60 -31.5 -91.5 q-31.5 -31.5 -91.5 -31.5 l-71 0 l0 100 Z" /><glyph glyph-name="asciitilde" unicode="~" d="M347 195 q-26 0 -47.5 8.5 q-21.5 8.5 -48.5 24.5 q-24 13 -37 18.5 q-13 5.5 -27 5.5 q-21 0 -36.5 -13 q-15.5 -13 -31.5 -43 l-80 49 q24 53 61 81 q37 28 82 28 q26 0 47 -8 q21 -8 49 -24 q22 -12 36 -18 q14 -6 29 -6 q22 0 37.5 13 q15.5 13 30.5 43 l80 -49 q-23 -53 -60.5 -81.5 q-37.5 -28.5 -83.5 -28.5 Z" /><glyph glyph-name="uni00A0" unicode=" " d="" /><glyph glyph-name="exclamdown" unicode="¡" d="M58 520 l133 0 l0 -131 l-133 0 l0 131 ZM78 290 l93 0 l24 -446 l-141 0 l24 446 Z" /><glyph glyph-name="cent" unicode="¢" d="M342 331 l0 6 q0 37 -22.5 58 q-22.5 21 -61.5 21 q-90 0 -90 -109 l0 -94 q0 -59 23.5 -84 q23.5 -25 66.5 -25 q39 0 61.5 20 q22.5 20 22.5 56 l0 6 l118 0 l0 -7 q0 -73 -40 -120.5 q-40 -47.5 -112 -60.5 l0 -98 l-59 0 l0 94 q-95 2 -149.5 55 q-54.5 53 -54.5 163 l0 97 q0 109 54.5 162 q54.5 53 149.5 55 l0 109 l59 0 l0 -113 q73 -13 112.5 -60 q39.5 -47 39.5 -121 l0 -10 l-118 0 Z" /><glyph glyph-name="sterling" unicode="£" d="M187 113 l254 0 l0 -113 l-398 0 l0 108 q24 11 34 32 q10 21 10 61 l0 75 l-62 0 l0 114 l62 0 l0 122 q0 90 47 139 q47 49 134 49 q80 0 126.5 -43 q46.5 -43 46.5 -123 l-122 0 q0 26 -13 40.5 q-13 14.5 -36 14.5 q-25 0 -38.5 -16.5 q-13.5 -16.5 -13.5 -45.5 l0 -137 l130 0 l0 -114 l-130 0 l0 -62 q0 -67 -31 -101 Z" /><glyph glyph-name="currency" unicode="¤" d="M402 140 q-47 -28 -105 -28 q-58 0 -105 28 l-65 -65 l-73 73 l66 66 q-26 44 -26 102 q0 54 27 102 l-67 67 l73 73 l66 -66 q48 27 104 27 q56 0 104 -27 l67 66 l72 -73 l-66 -67 q27 -48 27 -102 q0 -57 -26 -103 l66 -66 l-73 -73 l-66 66 ZM297 210 q45 0 74 30.5 q29 30.5 29 75.5 q0 45 -29 75 q-29 30 -74 30 q-44 0 -73 -30 q-29 -30 -29 -75 q0 -45 29 -75.5 q29 -30.5 73 -30.5 Z" /><glyph glyph-name="yen" unicode="¥" d="M183 117 l-129 0 l0 88 l129 0 l0 55 l-129 0 l0 88 l108 0 l-155 342 l135 0 l109 -277 l105 277 l134 0 l-155 -342 l108 0 l0 -88 l-129 0 l0 -55 l129 0 l0 -88 l-129 0 l0 -117 l-131 0 l0 117 Z" /><glyph glyph-name="brokenbar" unicode="¦" d="M90 740 l115 0 l0 -352 l-115 0 l0 352 ZM90 270 l115 0 l0 -354 l-115 0 l0 354 Z" /><glyph glyph-name="section" unicode="§" d="M252 -168 q-87 0 -133 45 q-46 45 -46 127 l113 0 q0 -70 64 -70 q31 0 47 16 q16 16 16 43 q0 36 -22.5 56 q-22.5 20 -84.5 37 q-75 21 -111 67.5 q-36 46.5 -36 121.5 q0 52 23 92 q23 40 64 62 q-35 20 -50 52 q-15 32 -15 75 q0 45 22 81.5 q22 36.5 62 57.5 q40 21 93 21 q87 0 131.5 -46 q44.5 -46 44.5 -125 l-112 0 q0 69 -62 69 q-28 0 -44 -16 q-16 -16 -16 -43 q0 -35 22.5 -53.5 q22.5 -18.5 82.5 -35.5 q75 -21 111 -67.5 q36 -46.5 36 -121.5 q0 -52 -24 -93 q-24 -41 -64 -60 q38 -22 53 -53.5 q15 -31.5 15 -80.5 q0 -69 -49 -113.5 q-49 -44.5 -131 -44.5 ZM256 188 q36 0 56 23.5 q20 23.5 20 64.5 q0 41 -20 64.5 q-20 23.5 -56 23.5 q-37 0 -57.5 -23 q-20.5 -23 -20.5 -65 q0 -42 20.5 -65 q20.5 -23 57.5 -23 ZM158 707 l0 0 Z" /><glyph glyph-name="dieresis" unicode="¨" d="M100 703 l107 0 l0 -116 l-107 0 l0 116 ZM292 703 l107 0 l0 -116 l-107 0 l0 116 Z" /><glyph glyph-name="copyright" unicode="©" d="M392 -9 q-103 0 -180.5 44 q-77.5 44 -119.5 123.5 q-42 79.5 -42 183.5 q0 105 42 184.5 q42 79.5 119.5 123 q77.5 43.5 180.5 43.5 q103 0 180.5 -44 q77.5 -44 119.5 -123.5 q42 -79.5 42 -183.5 q0 -104 -42 -183.5 q-42 -79.5 -119.5 -123.5 q-77.5 -44 -180.5 -44 ZM392 68 q122 0 191.5 73.5 q69.5 73.5 69.5 200.5 q0 127 -69.5 201 q-69.5 74 -191.5 74 q-122 0 -191.5 -74 q-69.5 -74 -69.5 -201 q0 -127 69.5 -200.5 q69.5 -73.5 191.5 -73.5 ZM394 148 q-71 0 -112 38.5 q-41 38.5 -41 120.5 l0 70 q0 81 41 120 q41 39 112 39 q70 0 109.5 -36 q39.5 -36 39.5 -99 l0 -7 l-86 0 l0 4 q0 27 -16.5 42.5 q-16.5 15.5 -44.5 15.5 q-66 0 -66 -80 l0 -68 q0 -44 17 -62 q17 -18 49 -18 q29 0 45 14.5 q16 14.5 16 41.5 l0 4 l86 0 l0 -5 q0 -62 -40 -98.5 q-40 -36.5 -109 -36.5 Z" /><glyph glyph-name="ordfeminine" unicode="ª" d="M168 748 q64 0 98 -28.5 q34 -28.5 34 -85.5 l0 -204 l-86 0 l0 25 q-17 -16 -33 -22.5 q-16 -6.5 -40 -6.5 q-49 0 -77 27.5 q-28 27.5 -28 73.5 q0 42 30 67 q30 25 83 25 l62 0 l0 20 q0 41 -44 41 q-18 0 -28.5 -8.5 q-10.5 -8.5 -10.5 -22.5 l0 -2 l-83 0 l0 2 q0 47 33 73 q33 26 90 26 ZM162 499 q26 0 37.5 11 q11.5 11 11.5 34 l0 15 l-48 0 q-41 0 -41 -29 q0 -14 10 -22.5 q10 -8.5 30 -8.5 ZM166 847 l0 0 Z" /><glyph glyph-name="guillemotleft" unicode="«" d="M18 264 l226 227 l0 -131 l-95 -96 l95 -96 l0 -131 l-226 227 ZM244 264 l227 227 l0 -131 l-96 -96 l96 -96 l0 -131 l-227 227 Z" /><glyph glyph-name="logicalnot" unicode="¬" d="M355 254 l-305 0 l0 111 l428 0 l0 -245 l-123 0 l0 134 Z" /><glyph glyph-name="uni00AD" unicode="­" d="M45 403 l275 0 l0 -115 l-275 0 l0 115 Z" /><glyph glyph-name="registered" unicode="®" d="M247 308 q-54 0 -96.5 25 q-42.5 25 -67 69 q-24.5 44 -24.5 98 q0 54 24.5 97.5 q24.5 43.5 67.5 68.5 q43 25 96 25 q54 0 97 -25 q43 -25 67.5 -69 q24.5 -44 24.5 -97 q0 -54 -24.5 -98 q-24.5 -44 -67.5 -69 q-43 -25 -97 -25 ZM247 348 q65 0 105.5 42.5 q40.5 42.5 40.5 109.5 q0 67 -41 109 q-41 42 -105 42 q-64 0 -105 -42 q-41 -42 -41 -109 q0 -67 41 -109.5 q41 -42.5 105 -42.5 ZM170 607 l88 0 q37 0 57 -17 q20 -17 20 -49 q0 -42 -37 -60 l42 -86 l-56 0 l-37 78 l-25 0 l0 -78 l-52 0 l0 212 ZM255 517 q28 0 28 23 q0 23 -28 23 l-33 0 l0 -46 l33 0 Z" /><glyph glyph-name="macron" unicode="¯" d="M109 700 l282 0 l0 -110 l-282 0 l0 110 Z" /><glyph glyph-name="degree" unicode="°" d="M197 407 q-63 0 -105 42 q-42 42 -42 105 q0 41 19 74.5 q19 33.5 53 53 q34 19.5 75 19.5 q41 0 74.5 -19.5 q33.5 -19.5 53 -53 q19.5 -33.5 19.5 -74.5 q0 -41 -19.5 -75 q-19.5 -34 -53 -53 q-33.5 -19 -74.5 -19 ZM197 482 q30 0 49.5 20.5 q19.5 20.5 19.5 51.5 q0 31 -19.5 51.5 q-19.5 20.5 -49.5 20.5 q-31 0 -50 -20 q-19 -20 -19 -52 q0 -32 19 -52 q19 -20 50 -20 Z" /><glyph glyph-name="plusminus" unicode="±" d="M208 281 l-160 0 l0 114 l160 0 l0 160 l114 0 l0 -160 l159 0 l0 -114 l-159 0 l0 -160 l-114 0 l0 160 ZM48 78 l433 0 l0 -114 l-433 0 l0 114 Z" /><glyph glyph-name="uni00B2" unicode="²" d="M44 510 l137 171 q20 25 20 47 l0 7 q0 16 -8 25.5 q-8 9.5 -23 9.5 q-14 0 -22 -10 q-8 -10 -8 -27 l0 -9 l-99 0 l0 15 q0 52 36 84.5 q36 32.5 98 32.5 q59 0 95 -34 q36 -34 36 -82 l0 -11 q0 -28 -10 -50.5 q-10 -22.5 -30 -46.5 l-92 -113 l132 0 l0 -89 l-262 0 l0 80 Z" /><glyph glyph-name="uni00B3" unicode="³" d="M170 423 q-64 0 -98.5 29 q-34.5 29 -34.5 84 l0 15 l93 0 l0 -10 q0 -33 37 -33 q16 0 25.5 10.5 q9.5 10.5 9.5 29.5 l0 9 q0 45 -43 45 l-21 0 l0 85 l20 0 q18 0 27.5 10 q9.5 10 9.5 28 l0 8 q0 37 -31 37 q-33 0 -33 -31 l0 -11 l-92 0 l0 10 q0 56 34 87 q34 31 95 31 q59 0 92.5 -31 q33.5 -31 33.5 -83 l0 -9 q0 -54 -46 -80 q26 -10 39.5 -35 q13.5 -25 13.5 -59 l0 -11 q0 -57 -37 -91 q-37 -34 -94 -34 Z" /><glyph glyph-name="acute" unicode="´" d="M235 721 l137 0 l-138 -133 l-107 0 l108 133 Z" /><glyph glyph-name="uni00B5" unicode="µ" d="M54 520 l124 0 l0 -324 q0 -44 22 -68 q22 -24 59 -24 q36 0 59.5 24 q23.5 24 23.5 68 l0 324 l124 0 l0 -520 l-121 0 l0 47 q-39 -53 -104 -53 q-35 0 -64 16 l0 -166 l-123 0 l0 676 Z" /><glyph glyph-name="paragraph" unicode="¶" d="M256 253 q-58 4 -102.5 33 q-44.5 29 -69.5 77.5 q-25 48.5 -25 108.5 q0 61 27.5 111 q27.5 50 78.5 78.5 q51 28.5 121 28.5 l269 0 l0 -846 l-107 0 l0 746 l-82 0 l0 -746 l-110 0 l0 409 Z" /><glyph glyph-name="periodcentered" unicode="·" d="M38 350 l139 0 l0 -142 l-139 0 l0 142 Z" /><glyph glyph-name="cedilla" unicode="¸" d="M225 13 l98 0 l-53 -169 l-114 0 l69 169 Z" /><glyph glyph-name="uni00B9" unicode="¹" d="M97 737 l-68 -48 l0 110 l69 50 l102 0 l0 -419 l-103 0 l0 307 Z" /><glyph glyph-name="ordmasculine" unicode="º" d="M178 426 q-63 0 -99 33 q-36 33 -36 100 l0 57 q0 67 36 99.5 q36 32.5 99 32.5 q63 0 98.5 -32.5 q35.5 -32.5 35.5 -99.5 l0 -57 q0 -67 -35.5 -100 q-35.5 -33 -98.5 -33 ZM222 559 l0 56 q0 53 -45 53 q-45 0 -45 -53 l0 -56 q0 -53 45 -53 q45 0 45 53 ZM166 847 l0 0 Z" /><glyph glyph-name="guillemotright" unicode="»" d="M54 168 l96 96 l-96 96 l0 131 l227 -227 l-227 -227 l0 131 ZM281 168 l95 96 l-95 96 l0 131 l226 -227 l-226 -227 l0 131 Z" /><glyph glyph-name="onequarter" unicode="¼" d="M97 578 l-68 -48 l0 110 l69 50 l102 0 l0 -419 l-103 0 l0 307 ZM779 57 l-27 0 l0 -57 l-103 0 l0 57 l-162 0 l0 89 l115 273 l103 0 l-115 -273 l59 0 l0 88 l103 0 l0 -88 l27 0 l0 -89 ZM498 695 l99 0 l-386 -695 l-98 0 l385 695 Z" /><glyph glyph-name="onehalf" unicode="½" d="M97 578 l-68 -48 l0 110 l69 50 l102 0 l0 -419 l-103 0 l0 307 ZM501 80 l137 171 q20 25 20 47 l0 7 q0 16 -8 25.5 q-8 9.5 -23 9.5 q-14 0 -22 -10 q-8 -10 -8 -27 l0 -9 l-99 0 l0 15 q0 52 36 84.5 q36 32.5 98 32.5 q59 0 95 -34 q36 -34 36 -82 l0 -11 q0 -28 -10 -50.5 q-10 -22.5 -30 -46.5 l-92 -113 l132 0 l0 -89 l-262 0 l0 80 ZM498 695 l99 0 l-386 -695 l-98 0 l385 695 Z" /><glyph glyph-name="threequarters" unicode="¾" d="M170 264 q-64 0 -98.5 29 q-34.5 29 -34.5 84 l0 15 l93 0 l0 -10 q0 -33 37 -33 q16 0 25.5 10.5 q9.5 10.5 9.5 29.5 l0 9 q0 45 -43 45 l-21 0 l0 85 l20 0 q18 0 27.5 10 q9.5 10 9.5 28 l0 8 q0 37 -31 37 q-33 0 -33 -31 l0 -11 l-92 0 l0 10 q0 56 34 87 q34 31 95 31 q59 0 92.5 -31 q33.5 -31 33.5 -83 l0 -9 q0 -54 -46 -80 q26 -10 39.5 -35 q13.5 -25 13.5 -59 l0 -11 q0 -57 -37 -91 q-37 -34 -94 -34 ZM867 57 l-27 0 l0 -57 l-103 0 l0 57 l-162 0 l0 89 l115 273 l103 0 l-115 -273 l59 0 l0 88 l103 0 l0 -88 l27 0 l0 -89 ZM586 695 l99 0 l-386 -695 l-98 0 l385 695 Z" /><glyph glyph-name="questiondown" unicode="¿" d="M167 520 l130 0 l0 -130 l-130 0 l0 130 ZM229 -166 q-58 0 -102.5 22.5 q-44.5 22.5 -68.5 62.5 q-24 40 -24 90 q0 41 12.5 73 q12.5 32 43.5 68 l44 51 q23 27 29.5 45 q6.5 18 6.5 48 l0 29 l124 0 l0 -38 q0 -43 -8.5 -68 q-8.5 -25 -40.5 -62 l-47 -55 q-20 -24 -28 -43 q-8 -19 -8 -41 q0 -32 18 -51 q18 -19 53 -19 q36 0 52.5 20 q16.5 20 17.5 60 l121 0 q-2 -94 -52 -143 q-50 -49 -143 -49 Z" /><glyph glyph-name="Agrave" unicode="À" d="M421 134 l-237 0 l-42 -134 l-138 0 l245 690 l107 0 l246 -690 l-139 0 l-42 134 ZM386 243 l-84 265 l-83 -265 l167 0 ZM144 891 l137 0 l108 -133 l-107 0 l-138 133 Z" /><glyph glyph-name="Aacute" unicode="Á" d="M421 134 l-237 0 l-42 -134 l-138 0 l245 690 l107 0 l246 -690 l-139 0 l-42 134 ZM386 243 l-84 265 l-83 -265 l167 0 ZM318 891 l137 0 l-138 -133 l-107 0 l108 133 Z" /><glyph glyph-name="Acircumflex" unicode="Â" d="M421 134 l-237 0 l-42 -134 l-138 0 l245 690 l107 0 l246 -690 l-139 0 l-42 134 ZM386 243 l-84 265 l-83 -265 l167 0 ZM257 898 l91 0 l115 -151 l-97 0 l-63 78 l-63 -78 l-98 0 l115 151 Z" /><glyph glyph-name="Atilde" unicode="Ã" d="M421 134 l-237 0 l-42 -134 l-138 0 l245 690 l107 0 l246 -690 l-139 0 l-42 134 ZM386 243 l-84 265 l-83 -265 l167 0 ZM161 842 q23 23 40.5 33 q17.5 10 40.5 10 q20 0 35 -5 q15 -5 36 -16 q32 -17 55 -17 q20 0 35 8 q15 8 41 32 l0 -91 q-23 -23 -40.5 -33 q-17.5 -10 -40.5 -10 q-19 0 -34 5 q-15 5 -36 16 q-32 17 -55 17 q-20 0 -35 -8 q-15 -8 -42 -31 l0 90 Z" /><glyph glyph-name="Adieresis" unicode="Ä" d="M421 134 l-237 0 l-42 -134 l-138 0 l245 690 l107 0 l246 -690 l-139 0 l-42 134 ZM386 243 l-84 265 l-83 -265 l167 0 ZM153 873 l107 0 l0 -116 l-107 0 l0 116 ZM345 873 l107 0 l0 -116 l-107 0 l0 116 Z" /><glyph glyph-name="Aring" unicode="Å" d="M421 134 l-237 0 l-42 -134 l-138 0 l245 690 q-22 14 -35 37 q-13 23 -13 51 q0 45 29.5 74.5 q29.5 29.5 73.5 29.5 q44 0 73.5 -29.5 q29.5 -29.5 29.5 -74.5 q0 -29 -13.5 -52.5 q-13.5 -23.5 -36.5 -37.5 l245 -688 l-139 0 l-42 134 ZM304 827 q-20 0 -33 -14 q-13 -14 -13 -35 q0 -20 13.5 -34 q13.5 -14 32.5 -14 q20 0 33.5 14 q13.5 14 13.5 34 q0 21 -13.5 35 q-13.5 14 -33.5 14 ZM386 243 l-84 265 l-83 -265 l167 0 ZM303 675 l0 0 Z" /><glyph glyph-name="AE" unicode="Æ" d="M551 576 l0 -171 l252 0 l0 -114 l-252 0 l0 -177 l297 0 l0 -114 l-429 0 l0 141 l-210 0 l-67 -141 l-138 0 l340 690 l504 0 l0 -114 l-297 0 ZM419 250 l0 329 l-157 -329 l157 0 Z" /><glyph glyph-name="Ccedilla" unicode="Ç" d="M419 464 l0 6 q0 53 -30.5 84 q-30.5 31 -86.5 31 q-63 0 -91.5 -39 q-28.5 -39 -28.5 -128 l0 -149 q0 -84 29.5 -122 q29.5 -38 92.5 -38 q56 0 85.5 30 q29.5 30 29.5 82 l0 8 l129 0 l0 -7 q0 -94 -47 -151 q-47 -57 -132 -73 l-48 -154 l-114 0 l61 149 q-218 19 -218 274 l0 158 q0 275 253 275 q113 0 180 -60 q67 -60 67 -169 l0 -7 l-131 0 Z" /><glyph glyph-name="Egrave" unicode="È" d="M190 576 l0 -171 l262 0 l0 -114 l-262 0 l0 -177 l307 0 l0 -114 l-438 0 l0 690 l438 0 l0 -114 l-307 0 ZM109 891 l137 0 l108 -133 l-107 0 l-138 133 Z" /><glyph glyph-name="Eacute" unicode="É" d="M190 576 l0 -171 l262 0 l0 -114 l-262 0 l0 -177 l307 0 l0 -114 l-438 0 l0 690 l438 0 l0 -114 l-307 0 ZM283 891 l137 0 l-138 -133 l-107 0 l108 133 Z" /><glyph glyph-name="Ecircumflex" unicode="Ê" d="M190 576 l0 -171 l262 0 l0 -114 l-262 0 l0 -177 l307 0 l0 -114 l-438 0 l0 690 l438 0 l0 -114 l-307 0 ZM222 898 l91 0 l115 -151 l-97 0 l-63 78 l-63 -78 l-98 0 l115 151 Z" /><glyph glyph-name="Edieresis" unicode="Ë" d="M190 576 l0 -171 l262 0 l0 -114 l-262 0 l0 -177 l307 0 l0 -114 l-438 0 l0 690 l438 0 l0 -114 l-307 0 ZM118 873 l107 0 l0 -116 l-107 0 l0 116 ZM310 873 l107 0 l0 -116 l-107 0 l0 116 Z" /><glyph glyph-name="Igrave" unicode="Ì" d="M65 690 l131 0 l0 -690 l-131 0 l0 690 ZM-29 891 l137 0 l108 -133 l-107 0 l-138 133 Z" /><glyph glyph-name="Iacute" unicode="Í" d="M65 690 l131 0 l0 -690 l-131 0 l0 690 ZM145 891 l137 0 l-138 -133 l-107 0 l108 133 Z" /><glyph glyph-name="Icircumflex" unicode="Î" d="M65 690 l131 0 l0 -690 l-131 0 l0 690 ZM84 898 l91 0 l115 -151 l-97 0 l-63 78 l-63 -78 l-98 0 l115 151 Z" /><glyph glyph-name="Idieresis" unicode="Ï" d="M65 690 l131 0 l0 -690 l-131 0 l0 690 ZM-20 873 l107 0 l0 -116 l-107 0 l0 116 ZM172 873 l107 0 l0 -116 l-107 0 l0 116 Z" /><glyph glyph-name="Eth" unicode="Ð" d="M334 690 q115 0 181.5 -64 q66.5 -64 66.5 -210 l0 -141 q0 -146 -68 -210.5 q-68 -64.5 -184 -64.5 l-239 0 l0 294 l-64 0 l0 115 l64 0 l0 281 l243 0 ZM451 409 q0 88 -29 127.5 q-29 39.5 -89 39.5 l-111 0 l0 -167 l118 0 l0 -115 l-118 0 l0 -180 l111 0 q59 0 88.5 39 q29.5 39 29.5 123 l0 133 Z" /><glyph glyph-name="Ntilde" unicode="Ñ" d="M575 690 l0 -690 l-131 0 l-254 431 l0 -431 l-131 0 l0 690 l131 0 l254 -432 l0 432 l131 0 ZM175 842 q23 23 40.5 33 q17.5 10 40.5 10 q20 0 35 -5 q15 -5 36 -16 q32 -17 55 -17 q20 0 35 8 q15 8 41 32 l0 -91 q-23 -23 -40.5 -33 q-17.5 -10 -40.5 -10 q-19 0 -34 5 q-15 5 -36 16 q-32 17 -55 17 q-20 0 -35 -8 q-15 -8 -42 -31 l0 90 Z" /><glyph glyph-name="Ograve" unicode="Ò" d="M50 267 l0 158 q0 275 251 275 q115 0 182 -64.5 q67 -64.5 67 -210.5 l0 -158 q0 -146 -68.5 -210.5 q-68.5 -64.5 -184.5 -64.5 q-247 0 -247 275 ZM301 109 q60 0 89 38.5 q29 38.5 29 121.5 l0 149 q0 88 -29 127.5 q-29 39.5 -89 39.5 q-63 0 -91 -38.5 q-28 -38.5 -28 -128.5 l0 -149 q0 -85 28 -122.5 q28 -37.5 91 -37.5 ZM141 891 l137 0 l108 -133 l-107 0 l-138 133 Z" /><glyph glyph-name="Oacute" unicode="Ó" d="M50 267 l0 158 q0 275 251 275 q115 0 182 -64.5 q67 -64.5 67 -210.5 l0 -158 q0 -146 -68.5 -210.5 q-68.5 -64.5 -184.5 -64.5 q-247 0 -247 275 ZM301 109 q60 0 89 38.5 q29 38.5 29 121.5 l0 149 q0 88 -29 127.5 q-29 39.5 -89 39.5 q-63 0 -91 -38.5 q-28 -38.5 -28 -128.5 l0 -149 q0 -85 28 -122.5 q28 -37.5 91 -37.5 ZM315 891 l137 0 l-138 -133 l-107 0 l108 133 Z" /><glyph glyph-name="Ocircumflex" unicode="Ô" d="M50 267 l0 158 q0 275 251 275 q115 0 182 -64.5 q67 -64.5 67 -210.5 l0 -158 q0 -146 -68.5 -210.5 q-68.5 -64.5 -184.5 -64.5 q-247 0 -247 275 ZM301 109 q60 0 89 38.5 q29 38.5 29 121.5 l0 149 q0 88 -29 127.5 q-29 39.5 -89 39.5 q-63 0 -91 -38.5 q-28 -38.5 -28 -128.5 l0 -149 q0 -85 28 -122.5 q28 -37.5 91 -37.5 ZM254 898 l91 0 l115 -151 l-97 0 l-63 78 l-63 -78 l-98 0 l115 151 Z" /><glyph glyph-name="Otilde" unicode="Õ" d="M50 267 l0 158 q0 275 251 275 q115 0 182 -64.5 q67 -64.5 67 -210.5 l0 -158 q0 -146 -68.5 -210.5 q-68.5 -64.5 -184.5 -64.5 q-247 0 -247 275 ZM301 109 q60 0 89 38.5 q29 38.5 29 121.5 l0 149 q0 88 -29 127.5 q-29 39.5 -89 39.5 q-63 0 -91 -38.5 q-28 -38.5 -28 -128.5 l0 -149 q0 -85 28 -122.5 q28 -37.5 91 -37.5 ZM158 842 q23 23 40.5 33 q17.5 10 40.5 10 q20 0 35 -5 q15 -5 36 -16 q32 -17 55 -17 q20 0 35 8 q15 8 41 32 l0 -91 q-23 -23 -40.5 -33 q-17.5 -10 -40.5 -10 q-19 0 -34 5 q-15 5 -36 16 q-32 17 -55 17 q-20 0 -35 -8 q-15 -8 -42 -31 l0 90 Z" /><glyph glyph-name="Odieresis" unicode="Ö" d="M50 267 l0 158 q0 275 251 275 q115 0 182 -64.5 q67 -64.5 67 -210.5 l0 -158 q0 -146 -68.5 -210.5 q-68.5 -64.5 -184.5 -64.5 q-247 0 -247 275 ZM301 109 q60 0 89 38.5 q29 38.5 29 121.5 l0 149 q0 88 -29 127.5 q-29 39.5 -89 39.5 q-63 0 -91 -38.5 q-28 -38.5 -28 -128.5 l0 -149 q0 -85 28 -122.5 q28 -37.5 91 -37.5 ZM150 873 l107 0 l0 -116 l-107 0 l0 116 ZM342 873 l107 0 l0 -116 l-107 0 l0 116 Z" /><glyph glyph-name="multiply" unicode="×" d="M69 157 l119 119 l-119 120 l76 76 l120 -119 l119 119 l76 -77 l-119 -119 l119 -119 l-76 -77 l-119 120 l-120 -120 l-76 77 Z" /><glyph glyph-name="Oslash" unicode="Ø" d="M495 621 q55 -68 55 -196 l0 -158 q0 -146 -68.5 -210.5 q-68.5 -64.5 -184.5 -64.5 q-89 0 -147 36 l-28 -48 l-72 0 l53 91 q-53 67 -53 196 l0 158 q0 275 251 275 q90 0 148 -37 l30 52 l71 0 l-55 -94 ZM186 213 l198 340 q-28 32 -83 32 q-63 0 -91 -38.5 q-28 -38.5 -28 -128.5 l0 -149 q0 -35 4 -56 ZM414 482 l-199 -342 q30 -31 86 -31 q60 0 89 38.5 q29 38.5 29 121.5 l0 149 q0 32 -5 64 Z" /><glyph glyph-name="Ugrave" unicode="Ù" d="M306 -6 q-70 0 -126.5 29.5 q-56.5 29.5 -88.5 83 q-32 53.5 -32 121.5 l0 462 l131 0 l0 -458 q0 -59 31 -91.5 q31 -32.5 85 -32.5 q54 0 85.5 32.5 q31.5 32.5 31.5 91.5 l0 458 l132 0 l0 -462 q0 -68 -32.5 -121.5 q-32.5 -53.5 -89 -83 q-56.5 -29.5 -127.5 -29.5 ZM148 891 l137 0 l108 -133 l-107 0 l-138 133 Z" /><glyph glyph-name="Uacute" unicode="Ú" d="M306 -6 q-70 0 -126.5 29.5 q-56.5 29.5 -88.5 83 q-32 53.5 -32 121.5 l0 462 l131 0 l0 -458 q0 -59 31 -91.5 q31 -32.5 85 -32.5 q54 0 85.5 32.5 q31.5 32.5 31.5 91.5 l0 458 l132 0 l0 -462 q0 -68 -32.5 -121.5 q-32.5 -53.5 -89 -83 q-56.5 -29.5 -127.5 -29.5 ZM322 891 l137 0 l-138 -133 l-107 0 l108 133 Z" /><glyph glyph-name="Ucircumflex" unicode="Û" d="M306 -6 q-70 0 -126.5 29.5 q-56.5 29.5 -88.5 83 q-32 53.5 -32 121.5 l0 462 l131 0 l0 -458 q0 -59 31 -91.5 q31 -32.5 85 -32.5 q54 0 85.5 32.5 q31.5 32.5 31.5 91.5 l0 458 l132 0 l0 -462 q0 -68 -32.5 -121.5 q-32.5 -53.5 -89 -83 q-56.5 -29.5 -127.5 -29.5 ZM261 898 l91 0 l115 -151 l-97 0 l-63 78 l-63 -78 l-98 0 l115 151 Z" /><glyph glyph-name="Udieresis" unicode="Ü" d="M306 -6 q-70 0 -126.5 29.5 q-56.5 29.5 -88.5 83 q-32 53.5 -32 121.5 l0 462 l131 0 l0 -458 q0 -59 31 -91.5 q31 -32.5 85 -32.5 q54 0 85.5 32.5 q31.5 32.5 31.5 91.5 l0 458 l132 0 l0 -462 q0 -68 -32.5 -121.5 q-32.5 -53.5 -89 -83 q-56.5 -29.5 -127.5 -29.5 ZM157 873 l107 0 l0 -116 l-107 0 l0 116 ZM349 873 l107 0 l0 -116 l-107 0 l0 116 Z" /><glyph glyph-name="Yacute" unicode="Ý" d="M336 284 l0 -284 l-131 0 l0 283 l-201 407 l143 0 l123 -280 l123 280 l144 0 l-201 -406 ZM285 891 l137 0 l-138 -133 l-107 0 l108 133 Z" /><glyph glyph-name="Thorn" unicode="Þ" d="M317 576 q105 0 165.5 -58 q60.5 -58 60.5 -159 q0 -96 -60.5 -153 q-60.5 -57 -165.5 -57 l-127 0 l0 -149 l-131 0 l0 690 l131 0 l0 -114 l127 0 ZM311 263 q47 0 74 25 q27 25 27 71 q0 50 -26.5 76.5 q-26.5 26.5 -74.5 26.5 l-121 0 l0 -199 l121 0 Z" /><glyph glyph-name="germandbls" unicode="ß" d="M254 100 l32 0 q33 0 48 12.5 q15 12.5 18.5 38 q3.5 25.5 3.5 79.5 q0 53 -4.5 79 q-4.5 26 -21.5 39.5 q-17 13.5 -53 13.5 l-23 0 l0 103 l31 0 q33 0 47.5 16 q14.5 16 14.5 48 q0 34 -20 49.5 q-20 15.5 -62 15.5 q-45 0 -66 -20.5 q-21 -20.5 -21 -64.5 l0 -509 l-124 0 l0 498 q0 99 50 150.5 q50 51.5 160 51.5 q98 0 152 -43 q54 -43 54 -122 q0 -40 -13.5 -68.5 q-13.5 -28.5 -43.5 -48.5 q29 -16 43 -38.5 q14 -22.5 18.5 -57 q4.5 -34.5 4.5 -94.5 q0 -90 -14.5 -138.5 q-14.5 -48.5 -53.5 -71 q-39 -22.5 -116 -22.5 l-41 0 l0 104 Z" /><glyph glyph-name="agrave" unicode="à" d="M242 526 q99 0 152 -46.5 q53 -46.5 53 -137.5 l0 -342 l-120 0 l0 45 q-26 -27 -53.5 -39 q-27.5 -12 -69.5 -12 q-80 0 -124 43 q-44 43 -44 119 q0 70 47 110.5 q47 40.5 131 40.5 l110 0 l0 41 q0 83 -83 83 q-35 0 -55.5 -17.5 q-20.5 -17.5 -20.5 -46.5 l0 -3 l-115 0 l0 4 q0 73 52 115.5 q52 42.5 140 42.5 ZM232 94 q49 0 70.5 22.5 q21.5 22.5 21.5 68.5 l0 37 l-90 0 q-78 0 -78 -63 q0 -65 76 -65 ZM83 721 l137 0 l108 -133 l-107 0 l-138 133 Z" /><glyph glyph-name="aacute" unicode="á" d="M242 526 q99 0 152 -46.5 q53 -46.5 53 -137.5 l0 -342 l-120 0 l0 45 q-26 -27 -53.5 -39 q-27.5 -12 -69.5 -12 q-80 0 -124 43 q-44 43 -44 119 q0 70 47 110.5 q47 40.5 131 40.5 l110 0 l0 41 q0 83 -83 83 q-35 0 -55.5 -17.5 q-20.5 -17.5 -20.5 -46.5 l0 -3 l-115 0 l0 4 q0 73 52 115.5 q52 42.5 140 42.5 ZM232 94 q49 0 70.5 22.5 q21.5 22.5 21.5 68.5 l0 37 l-90 0 q-78 0 -78 -63 q0 -65 76 -65 ZM257 721 l137 0 l-138 -133 l-107 0 l108 133 Z" /><glyph glyph-name="acircumflex" unicode="â" d="M242 526 q99 0 152 -46.5 q53 -46.5 53 -137.5 l0 -342 l-120 0 l0 45 q-26 -27 -53.5 -39 q-27.5 -12 -69.5 -12 q-80 0 -124 43 q-44 43 -44 119 q0 70 47 110.5 q47 40.5 131 40.5 l110 0 l0 41 q0 83 -83 83 q-35 0 -55.5 -17.5 q-20.5 -17.5 -20.5 -46.5 l0 -3 l-115 0 l0 4 q0 73 52 115.5 q52 42.5 140 42.5 ZM232 94 q49 0 70.5 22.5 q21.5 22.5 21.5 68.5 l0 37 l-90 0 q-78 0 -78 -63 q0 -65 76 -65 ZM196 728 l91 0 l115 -151 l-97 0 l-63 78 l-63 -78 l-98 0 l115 151 Z" /><glyph glyph-name="atilde" unicode="ã" d="M242 526 q99 0 152 -46.5 q53 -46.5 53 -137.5 l0 -342 l-120 0 l0 45 q-26 -27 -53.5 -39 q-27.5 -12 -69.5 -12 q-80 0 -124 43 q-44 43 -44 119 q0 70 47 110.5 q47 40.5 131 40.5 l110 0 l0 41 q0 83 -83 83 q-35 0 -55.5 -17.5 q-20.5 -17.5 -20.5 -46.5 l0 -3 l-115 0 l0 4 q0 73 52 115.5 q52 42.5 140 42.5 ZM232 94 q49 0 70.5 22.5 q21.5 22.5 21.5 68.5 l0 37 l-90 0 q-78 0 -78 -63 q0 -65 76 -65 ZM100 672 q23 23 40.5 33 q17.5 10 40.5 10 q20 0 35 -5 q15 -5 36 -16 q32 -17 55 -17 q20 0 35 8 q15 8 41 32 l0 -91 q-23 -23 -40.5 -33 q-17.5 -10 -40.5 -10 q-19 0 -34 5 q-15 5 -36 16 q-32 17 -55 17 q-20 0 -35 -8 q-15 -8 -42 -31 l0 90 Z" /><glyph glyph-name="adieresis" unicode="ä" d="M242 526 q99 0 152 -46.5 q53 -46.5 53 -137.5 l0 -342 l-120 0 l0 45 q-26 -27 -53.5 -39 q-27.5 -12 -69.5 -12 q-80 0 -124 43 q-44 43 -44 119 q0 70 47 110.5 q47 40.5 131 40.5 l110 0 l0 41 q0 83 -83 83 q-35 0 -55.5 -17.5 q-20.5 -17.5 -20.5 -46.5 l0 -3 l-115 0 l0 4 q0 73 52 115.5 q52 42.5 140 42.5 ZM232 94 q49 0 70.5 22.5 q21.5 22.5 21.5 68.5 l0 37 l-90 0 q-78 0 -78 -63 q0 -65 76 -65 ZM92 703 l107 0 l0 -116 l-107 0 l0 116 ZM284 703 l107 0 l0 -116 l-107 0 l0 116 Z" /><glyph glyph-name="aring" unicode="å" d="M242 526 q99 0 152 -46.5 q53 -46.5 53 -137.5 l0 -342 l-120 0 l0 45 q-26 -27 -53.5 -39 q-27.5 -12 -69.5 -12 q-80 0 -124 43 q-44 43 -44 119 q0 70 47 110.5 q47 40.5 131 40.5 l110 0 l0 41 q0 83 -83 83 q-35 0 -55.5 -17.5 q-20.5 -17.5 -20.5 -46.5 l0 -3 l-115 0 l0 4 q0 73 52 115.5 q52 42.5 140 42.5 ZM232 94 q49 0 70.5 22.5 q21.5 22.5 21.5 68.5 l0 37 l-90 0 q-78 0 -78 -63 q0 -65 76 -65 ZM242 547 q-44 0 -73.5 29.5 q-29.5 29.5 -29.5 73.5 q0 45 29.5 74.5 q29.5 29.5 73.5 29.5 q44 0 73.5 -29.5 q29.5 -29.5 29.5 -74.5 q0 -44 -29.5 -73.5 q-29.5 -29.5 -73.5 -29.5 ZM242 602 q20 0 33.5 14 q13.5 14 13.5 34 q0 21 -13.5 35 q-13.5 14 -33.5 14 q-20 0 -33 -14 q-13 -14 -13 -35 q0 -20 13.5 -34 q13.5 -14 32.5 -14 Z" /><glyph glyph-name="ae" unicode="æ" d="M447 209 q0 -58 25.5 -83 q25.5 -25 73.5 -25 q36 0 57.5 15.5 q21.5 15.5 24.5 43.5 l0 3 l118 0 l0 -5 q0 -45 -22.5 -82.5 q-22.5 -37.5 -66.5 -59.5 q-44 -22 -107 -22 q-104 0 -164 63 q-29 -30 -70.5 -46.5 q-41.5 -16.5 -93.5 -16.5 q-85 0 -135.5 43.5 q-50.5 43.5 -50.5 118.5 q0 70 47 110.5 q47 40.5 131 40.5 l110 0 l0 41 q0 83 -83 83 q-35 0 -55.5 -17.5 q-20.5 -17.5 -20.5 -46.5 l0 -3 l-115 0 l0 4 q0 73 52 115.5 q52 42.5 140 42.5 q97 0 152 -50 q56 50 144 50 q97 0 154.5 -59 q57.5 -59 57.5 -175 l0 -69 l-303 0 l0 -14 ZM538 420 q-44 0 -67.5 -25 q-23.5 -25 -23.5 -84 l0 -3 l180 0 l0 13 q0 99 -89 99 ZM324 190 l0 32 l-90 0 q-78 0 -78 -63 q0 -65 76 -65 q92 0 92 96 Z" /><glyph glyph-name="ccedilla" unicode="ç" d="M342 331 l0 6 q0 37 -22.5 58 q-22.5 21 -61.5 21 q-90 0 -90 -109 l0 -94 q0 -59 23.5 -84 q23.5 -25 66.5 -25 q39 0 61.5 20 q22.5 20 22.5 56 l0 6 l118 0 l0 -7 q0 -70 -36.5 -116 q-36.5 -46 -102.5 -62 l-49 -157 l-114 0 l62 152 q-82 9 -128.5 62 q-46.5 53 -46.5 154 l0 97 q0 111 56.5 164 q56.5 53 154.5 53 q96 0 150 -49 q54 -49 54 -136 l0 -10 l-118 0 Z" /><glyph glyph-name="egrave" unicode="è" d="M168 223 l0 -14 q0 -58 26 -83 q26 -25 74 -25 q37 0 58 15.5 q21 15.5 23 43.5 l1 3 l118 0 l0 -5 q0 -74 -55 -119 q-55 -45 -150 -45 q-100 0 -159 57.5 q-59 57.5 -59 177.5 l0 63 q0 117 57 175.5 q57 58.5 157 58.5 q98 0 155.5 -59 q57.5 -59 57.5 -175 l0 -69 l-304 0 ZM259 420 q-44 0 -67.5 -25 q-23.5 -25 -23.5 -84 l0 -3 l180 0 l0 13 q0 99 -89 99 ZM99 721 l137 0 l108 -133 l-107 0 l-138 133 Z" /><glyph glyph-name="eacute" unicode="é" d="M168 223 l0 -14 q0 -58 26 -83 q26 -25 74 -25 q37 0 58 15.5 q21 15.5 23 43.5 l1 3 l118 0 l0 -5 q0 -74 -55 -119 q-55 -45 -150 -45 q-100 0 -159 57.5 q-59 57.5 -59 177.5 l0 63 q0 117 57 175.5 q57 58.5 157 58.5 q98 0 155.5 -59 q57.5 -59 57.5 -175 l0 -69 l-304 0 ZM259 420 q-44 0 -67.5 -25 q-23.5 -25 -23.5 -84 l0 -3 l180 0 l0 13 q0 99 -89 99 ZM273 721 l137 0 l-138 -133 l-107 0 l108 133 Z" /><glyph glyph-name="ecircumflex" unicode="ê" d="M168 223 l0 -14 q0 -58 26 -83 q26 -25 74 -25 q37 0 58 15.5 q21 15.5 23 43.5 l1 3 l118 0 l0 -5 q0 -74 -55 -119 q-55 -45 -150 -45 q-100 0 -159 57.5 q-59 57.5 -59 177.5 l0 63 q0 117 57 175.5 q57 58.5 157 58.5 q98 0 155.5 -59 q57.5 -59 57.5 -175 l0 -69 l-304 0 ZM259 420 q-44 0 -67.5 -25 q-23.5 -25 -23.5 -84 l0 -3 l180 0 l0 13 q0 99 -89 99 ZM212 728 l91 0 l115 -151 l-97 0 l-63 78 l-63 -78 l-98 0 l115 151 Z" /><glyph glyph-name="edieresis" unicode="ë" d="M168 223 l0 -14 q0 -58 26 -83 q26 -25 74 -25 q37 0 58 15.5 q21 15.5 23 43.5 l1 3 l118 0 l0 -5 q0 -74 -55 -119 q-55 -45 -150 -45 q-100 0 -159 57.5 q-59 57.5 -59 177.5 l0 63 q0 117 57 175.5 q57 58.5 157 58.5 q98 0 155.5 -59 q57.5 -59 57.5 -175 l0 -69 l-304 0 ZM259 420 q-44 0 -67.5 -25 q-23.5 -25 -23.5 -84 l0 -3 l180 0 l0 13 q0 99 -89 99 ZM108 703 l107 0 l0 -116 l-107 0 l0 116 ZM300 703 l107 0 l0 -116 l-107 0 l0 116 Z" /><glyph glyph-name="igrave" unicode="ì" d="M59 520 l123 0 l0 -520 l-123 0 l0 520 ZM-39 721 l137 0 l108 -133 l-107 0 l-138 133 Z" /><glyph glyph-name="iacute" unicode="í" d="M59 520 l123 0 l0 -520 l-123 0 l0 520 ZM135 721 l137 0 l-138 -133 l-107 0 l108 133 Z" /><glyph glyph-name="icircumflex" unicode="î" d="M59 520 l123 0 l0 -520 l-123 0 l0 520 ZM74 728 l91 0 l115 -151 l-97 0 l-63 78 l-63 -78 l-98 0 l115 151 Z" /><glyph glyph-name="idieresis" unicode="ï" d="M59 520 l123 0 l0 -520 l-123 0 l0 520 ZM-30 703 l107 0 l0 -116 l-107 0 l0 116 ZM162 703 l107 0 l0 -116 l-107 0 l0 116 Z" /><glyph glyph-name="eth" unicode="ð" d="M359 535 q54 -77 79.5 -141 q25.5 -64 25.5 -135 l0 -41 q0 -110 -55 -169.5 q-55 -59.5 -156 -59.5 q-100 0 -154 58.5 q-54 58.5 -54 161.5 l0 44 q0 97 46 154.5 q46 57.5 128 57.5 q40 0 69 -14 l-60 86 l-103 -32 l-25 79 l79 24 l-61 87 l128 0 l39 -55 l96 30 l25 -79 l-71 -22 l24 -34 ZM348 255 q0 110 -93 110 q-95 0 -95 -108 l0 -46 q0 -114 95 -114 q93 0 93 115 l0 43 Z" /><glyph glyph-name="ntilde" unicode="ñ" d="M54 520 l121 0 l0 -47 q23 26 55.5 39.5 q32.5 13.5 67.5 13.5 q80 0 124 -50 q44 -50 44 -137 l0 -339 l-124 0 l0 324 q0 44 -22 68 q-22 24 -59 24 q-36 0 -59.5 -24 q-23.5 -24 -23.5 -68 l0 -324 l-124 0 l0 520 ZM118 672 q23 23 40.5 33 q17.5 10 40.5 10 q20 0 35 -5 q15 -5 36 -16 q32 -17 55 -17 q20 0 35 8 q15 8 41 32 l0 -91 q-23 -23 -40.5 -33 q-17.5 -10 -40.5 -10 q-19 0 -34 5 q-15 5 -36 16 q-32 17 -55 17 q-20 0 -35 -8 q-15 -8 -42 -31 l0 90 Z" /><glyph glyph-name="ograve" unicode="ò" d="M256 -6 q-98 0 -154.5 53 q-56.5 53 -56.5 165 l0 97 q0 111 56.5 164 q56.5 53 154.5 53 q97 0 153 -53 q56 -53 56 -164 l0 -97 q0 -112 -56 -165 q-56 -53 -153 -53 ZM342 213 l0 94 q0 109 -86 109 q-88 0 -88 -109 l0 -94 q0 -109 88 -109 q86 0 86 109 ZM97 721 l137 0 l108 -133 l-107 0 l-138 133 Z" /><glyph glyph-name="oacute" unicode="ó" d="M256 -6 q-98 0 -154.5 53 q-56.5 53 -56.5 165 l0 97 q0 111 56.5 164 q56.5 53 154.5 53 q97 0 153 -53 q56 -53 56 -164 l0 -97 q0 -112 -56 -165 q-56 -53 -153 -53 ZM342 213 l0 94 q0 109 -86 109 q-88 0 -88 -109 l0 -94 q0 -109 88 -109 q86 0 86 109 ZM271 721 l137 0 l-138 -133 l-107 0 l108 133 Z" /><glyph glyph-name="ocircumflex" unicode="ô" d="M256 -6 q-98 0 -154.5 53 q-56.5 53 -56.5 165 l0 97 q0 111 56.5 164 q56.5 53 154.5 53 q97 0 153 -53 q56 -53 56 -164 l0 -97 q0 -112 -56 -165 q-56 -53 -153 -53 ZM342 213 l0 94 q0 109 -86 109 q-88 0 -88 -109 l0 -94 q0 -109 88 -109 q86 0 86 109 ZM210 728 l91 0 l115 -151 l-97 0 l-63 78 l-63 -78 l-98 0 l115 151 Z" /><glyph glyph-name="otilde" unicode="õ" d="M256 -6 q-98 0 -154.5 53 q-56.5 53 -56.5 165 l0 97 q0 111 56.5 164 q56.5 53 154.5 53 q97 0 153 -53 q56 -53 56 -164 l0 -97 q0 -112 -56 -165 q-56 -53 -153 -53 ZM342 213 l0 94 q0 109 -86 109 q-88 0 -88 -109 l0 -94 q0 -109 88 -109 q86 0 86 109 ZM114 672 q23 23 40.5 33 q17.5 10 40.5 10 q20 0 35 -5 q15 -5 36 -16 q32 -17 55 -17 q20 0 35 8 q15 8 41 32 l0 -91 q-23 -23 -40.5 -33 q-17.5 -10 -40.5 -10 q-19 0 -34 5 q-15 5 -36 16 q-32 17 -55 17 q-20 0 -35 -8 q-15 -8 -42 -31 l0 90 Z" /><glyph glyph-name="odieresis" unicode="ö" d="M256 -6 q-98 0 -154.5 53 q-56.5 53 -56.5 165 l0 97 q0 111 56.5 164 q56.5 53 154.5 53 q97 0 153 -53 q56 -53 56 -164 l0 -97 q0 -112 -56 -165 q-56 -53 -153 -53 ZM342 213 l0 94 q0 109 -86 109 q-88 0 -88 -109 l0 -94 q0 -109 88 -109 q86 0 86 109 ZM106 703 l107 0 l0 -116 l-107 0 l0 116 ZM298 703 l107 0 l0 -116 l-107 0 l0 116 Z" /><glyph glyph-name="divide" unicode="÷" d="M264 376 q-28 0 -47 19.5 q-19 19.5 -19 47.5 q0 28 19 47.5 q19 19.5 47 19.5 q28 0 47.5 -19.5 q19.5 -19.5 19.5 -47.5 q0 -28 -19.5 -47.5 q-19.5 -19.5 -47.5 -19.5 ZM48 333 l433 0 l0 -114 l-433 0 l0 114 ZM264 43 q-28 0 -47 19.5 q-19 19.5 -19 47.5 q0 28 19 47.5 q19 19.5 47 19.5 q28 0 47.5 -19.5 q19.5 -19.5 19.5 -47.5 q0 -28 -19 -47.5 q-19 -19.5 -48 -19.5 Z" /><glyph glyph-name="oslash" unicode="ø" d="M415 466 q50 -55 50 -157 l0 -97 q0 -112 -56 -165 q-56 -53 -153 -53 q-70 0 -118 26 l-31 -49 l-62 0 l51 82 q-51 56 -51 159 l0 97 q0 111 56.5 164 q56.5 53 154.5 53 q69 0 118 -27 l29 47 l62 0 l-50 -80 ZM171 174 l140 224 q-21 18 -55 18 q-88 0 -88 -109 l0 -94 q0 -22 3 -39 ZM339 344 l-139 -223 q21 -17 56 -17 q86 0 86 109 l0 94 q0 21 -3 37 Z" /><glyph glyph-name="ugrave" unicode="ù" d="M54 210 l0 310 l124 0 l0 -304 q0 -55 16.5 -83.5 q16.5 -28.5 65.5 -28.5 q49 0 65.5 27 q16.5 27 16.5 85 l0 304 l124 0 l0 -310 q0 -108 -51 -162 q-51 -54 -155 -54 q-206 0 -206 216 ZM101 721 l137 0 l108 -133 l-107 0 l-138 133 Z" /><glyph glyph-name="uacute" unicode="ú" d="M54 210 l0 310 l124 0 l0 -304 q0 -55 16.5 -83.5 q16.5 -28.5 65.5 -28.5 q49 0 65.5 27 q16.5 27 16.5 85 l0 304 l124 0 l0 -310 q0 -108 -51 -162 q-51 -54 -155 -54 q-206 0 -206 216 ZM275 721 l137 0 l-138 -133 l-107 0 l108 133 Z" /><glyph glyph-name="ucircumflex" unicode="û" d="M54 210 l0 310 l124 0 l0 -304 q0 -55 16.5 -83.5 q16.5 -28.5 65.5 -28.5 q49 0 65.5 27 q16.5 27 16.5 85 l0 304 l124 0 l0 -310 q0 -108 -51 -162 q-51 -54 -155 -54 q-206 0 -206 216 ZM214 728 l91 0 l115 -151 l-97 0 l-63 78 l-63 -78 l-98 0 l115 151 Z" /><glyph glyph-name="udieresis" unicode="ü" d="M54 210 l0 310 l124 0 l0 -304 q0 -55 16.5 -83.5 q16.5 -28.5 65.5 -28.5 q49 0 65.5 27 q16.5 27 16.5 85 l0 304 l124 0 l0 -310 q0 -108 -51 -162 q-51 -54 -155 -54 q-206 0 -206 216 ZM110 703 l107 0 l0 -116 l-107 0 l0 116 ZM302 703 l107 0 l0 -116 l-107 0 l0 116 Z" /><glyph glyph-name="yacute" unicode="ý" d="M473 520 l-197 -565 q-20 -57 -57.5 -83 q-37.5 -26 -99.5 -26 l-43 0 l0 111 l39 0 q30 0 44.5 10.5 q14.5 10.5 23.5 39.5 l2 7 l-176 506 l131 0 l102 -327 l104 327 l127 0 ZM256 721 l137 0 l-138 -133 l-107 0 l108 133 Z" /><glyph glyph-name="thorn" unicode="þ" d="M54 690 l124 0 l0 -223 q43 59 116 59 q78 0 127 -53 q49 -53 49 -161 l0 -103 q0 -108 -49 -161.5 q-49 -53.5 -123 -53.5 q-79 0 -123 54 l0 -204 l-121 0 l0 846 ZM346 213 l0 94 q0 58 -22.5 83.5 q-22.5 25.5 -60.5 25.5 q-40 0 -63 -28 q-23 -28 -23 -81 l0 -94 q0 -53 23.5 -81 q23.5 -28 65.5 -28 q80 0 80 109 Z" /><glyph glyph-name="ydieresis" unicode="ÿ" d="M473 520 l-197 -565 q-20 -57 -57.5 -83 q-37.5 -26 -99.5 -26 l-43 0 l0 111 l39 0 q30 0 44.5 10.5 q14.5 10.5 23.5 39.5 l2 7 l-176 506 l131 0 l102 -327 l104 327 l127 0 ZM91 703 l107 0 l0 -116 l-107 0 l0 116 ZM283 703 l107 0 l0 -116 l-107 0 l0 116 Z" /><glyph glyph-name="dotlessi" unicode="&#x131;" d="M59 520 l123 0 l0 -520 l-123 0 l0 520 Z" /><glyph glyph-name="OE" unicode="&#x152;" d="M550 576 l0 -171 l241 0 l0 -114 l-241 0 l0 -177 l286 0 l0 -114 l-407 0 l0 31 q-60 -39 -141 -39 q-108 0 -173 65 q-65 65 -65 210 l0 158 q0 144 66.5 209.5 q66.5 65.5 172.5 65.5 q80 0 140 -40 l0 30 l407 0 l0 -114 l-286 0 ZM419 418 q0 88 -29 127.5 q-29 39.5 -89 39.5 q-63 0 -91 -38.5 q-28 -38.5 -28 -128.5 l0 -149 q0 -85 28 -122.5 q28 -37.5 91 -37.5 q60 0 89 38.5 q29 38.5 29 121.5 l0 149 Z" /><glyph glyph-name="oe" unicode="&#x153;" d="M465 209 q0 -58 25.5 -83 q25.5 -25 73.5 -25 q36 0 57.5 15.5 q21.5 15.5 24.5 43.5 l0 3 l118 0 l0 -5 q0 -74 -54.5 -119 q-54.5 -45 -150.5 -45 q-97 0 -152 51 q-54 -51 -151 -51 q-98 0 -154.5 53 q-56.5 53 -56.5 165 l0 97 q0 111 56.5 164 q56.5 53 154.5 53 q97 0 151 -51 q56 51 149 51 q97 0 154.5 -59 q57.5 -59 57.5 -175 l0 -69 l-303 0 l0 -14 ZM465 308 l180 0 l0 13 q0 99 -89 99 q-44 0 -67.5 -25 q-23.5 -25 -23.5 -84 l0 -3 ZM342 307 q0 109 -86 109 q-88 0 -88 -109 l0 -94 q0 -109 88 -109 q86 0 86 109 l0 94 Z" /><glyph glyph-name="Scaron" unicode="&#x160;" d="M267 -6 q-111 0 -173 55.5 q-62 55.5 -69 160.5 l124 0 q7 -57 36.5 -80.5 q29.5 -23.5 87.5 -23.5 q111 0 111 91 q0 41 -22 62.5 q-22 21.5 -70 29.5 l-65 11 q-187 31 -187 192 q0 96 63.5 152 q63.5 56 168.5 56 q102 0 161.5 -54 q59.5 -54 67.5 -152 l-126 0 q-3 50 -29 73 q-26 23 -76 23 q-51 0 -77 -23.5 q-26 -23.5 -26 -64.5 q0 -36 23 -57 q23 -21 72 -30 l73 -13 q178 -32 178 -194 q0 -104 -66.5 -159 q-66.5 -55 -179.5 -55 ZM111 891 l98 0 l63 -78 l63 78 l97 0 l-115 -151 l-91 0 l-115 151 Z" /><glyph glyph-name="scaron" unicode="&#x161;" d="M233 -6 q-89 0 -143 43.5 q-54 43.5 -54 116.5 l0 4 l116 0 l0 -2 q0 -29 23.5 -45.5 q23.5 -16.5 61.5 -16.5 q41 0 64 14.5 q23 14.5 23 43.5 q0 24 -17 37 q-17 13 -57 19 l-55 9 q-78 13 -115 48 q-37 35 -37 100 q0 74 54.5 117.5 q54.5 43.5 139.5 43.5 q58 0 102.5 -19.5 q44.5 -19.5 69 -54 q24.5 -34.5 24.5 -77.5 l0 -6 l-115 0 l0 3 q0 27 -21.5 42 q-21.5 15 -59.5 15 q-38 0 -58 -15 q-20 -15 -20 -40 q0 -23 15.5 -36 q15.5 -13 50.5 -18 l61 -9 q78 -11 117 -48 q39 -37 39 -102 q0 -80 -58 -123.5 q-58 -43.5 -151 -43.5 ZM76 721 l98 0 l63 -78 l63 78 l97 0 l-115 -151 l-91 0 l-115 151 Z" /><glyph glyph-name="Ydieresis" unicode="&#x178;" d="M336 284 l0 -284 l-131 0 l0 283 l-201 407 l143 0 l123 -280 l123 280 l144 0 l-201 -406 ZM120 873 l107 0 l0 -116 l-107 0 l0 116 ZM312 873 l107 0 l0 -116 l-107 0 l0 116 Z" /><glyph glyph-name="Zcaron" unicode="&#x17d;" d="M478 115 l0 -115 l-448 0 l0 115 l297 461 l-291 0 l0 114 l433 0 l0 -114 l-296 -461 l305 0 ZM91 891 l98 0 l63 -78 l63 78 l97 0 l-115 -151 l-91 0 l-115 151 Z" /><glyph glyph-name="zcaron" unicode="&#x17e;" d="M410 416 l-230 -312 l230 0 l0 -104 l-365 0 l0 104 l230 312 l-230 0 l0 104 l365 0 l0 -104 ZM66 721 l98 0 l63 -78 l63 78 l97 0 l-115 -151 l-91 0 l-115 151 Z" /><glyph glyph-name="florin" unicode="&#x192;" d="M9 -39 l29 0 q34 0 49.5 13 q15.5 13 21.5 50 l43 289 l-78 0 l0 110 l94 0 l16 105 q13 85 54 123.5 q41 38.5 121 38.5 l51 0 l0 -114 l-34 0 q-31 0 -47.5 -14 q-16.5 -14 -21.5 -47 l-14 -92 l100 0 l0 -110 l-116 0 l-46 -304 q-14 -89 -54.5 -127 q-40.5 -38 -122.5 -38 l-45 0 l0 117 Z" /><glyph glyph-name="circumflex" unicode="&#x2c6;" d="M204 728 l91 0 l115 -151 l-97 0 l-63 78 l-63 -78 l-98 0 l115 151 Z" /><glyph glyph-name="caron" unicode="&#x2c7;" d="M89 721 l98 0 l63 -78 l63 78 l97 0 l-115 -151 l-91 0 l-115 151 Z" /><glyph glyph-name="dotaccent" unicode="&#x2d9;" d="M187 695 l126 0 l0 -99 l-126 0 l0 99 Z" /><glyph glyph-name="ring" unicode="&#x2da;" d="M248 577 q-44 0 -73.5 29.5 q-29.5 29.5 -29.5 73.5 q0 45 29.5 74.5 q29.5 29.5 73.5 29.5 q44 0 73.5 -29.5 q29.5 -29.5 29.5 -74.5 q0 -44 -29.5 -73.5 q-29.5 -29.5 -73.5 -29.5 ZM248 632 q20 0 33.5 14 q13.5 14 13.5 34 q0 21 -13.5 35 q-13.5 14 -33.5 14 q-20 0 -33 -14 q-13 -14 -13 -35 q0 -20 13.5 -34 q13.5 -14 32.5 -14 Z" /><glyph glyph-name="tilde" unicode="&#x2dc;" d="M108 672 q23 23 40.5 33 q17.5 10 40.5 10 q20 0 35 -5 q15 -5 36 -16 q32 -17 55 -17 q20 0 35 8 q15 8 41 32 l0 -91 q-23 -23 -40.5 -33 q-17.5 -10 -40.5 -10 q-19 0 -34 5 q-15 5 -36 16 q-32 17 -55 17 q-20 0 -35 -8 q-15 -8 -42 -31 l0 90 Z" /><glyph glyph-name="gravecomb" unicode="&#x300;" d="M-159 721 l137 0 l108 -133 l-107 0 l-138 133 Z" /><glyph glyph-name="acutecomb" unicode="&#x301;" d="M15 721 l137 0 l-138 -133 l-107 0 l108 133 Z" /><glyph glyph-name="uni0302" unicode="&#x302;" d="M-46 728 l91 0 l115 -151 l-97 0 l-63 78 l-63 -78 l-98 0 l115 151 Z" /><glyph glyph-name="tildecomb" unicode="&#x303;" d="M-142 672 q23 23 40.5 33 q17.5 10 40.5 10 q20 0 35 -5 q15 -5 36 -16 q32 -17 55 -17 q20 0 35 8 q15 8 41 32 l0 -91 q-23 -23 -40.5 -33 q-17.5 -10 -40.5 -10 q-19 0 -34 5 q-15 5 -36 16 q-32 17 -55 17 q-20 0 -35 -8 q-15 -8 -42 -31 l0 90 Z" /><glyph glyph-name="uni0308" unicode="&#x308;" d="M-150 703 l107 0 l0 -116 l-107 0 l0 116 ZM42 703 l107 0 l0 -116 l-107 0 l0 116 Z" /><glyph glyph-name="uni030A" unicode="&#x30a;" d="M0 577 q-44 0 -73.5 29.5 q-29.5 29.5 -29.5 73.5 q0 45 29.5 74.5 q29.5 29.5 73.5 29.5 q44 0 73.5 -29.5 q29.5 -29.5 29.5 -74.5 q0 -44 -29.5 -73.5 q-29.5 -29.5 -73.5 -29.5 ZM0 632 q20 0 33.5 14 q13.5 14 13.5 34 q0 21 -13.5 35 q-13.5 14 -33.5 14 q-20 0 -33 -14 q-13 -14 -13 -35 q0 -20 13.5 -34 q13.5 -14 32.5 -14 Z" /><glyph glyph-name="endash" unicode="&#x2013;" d="M0 403 l417 0 l0 -115 l-417 0 l0 115 Z" /><glyph glyph-name="emdash" unicode="&#x2014;" d="M0 403 l833 0 l0 -115 l-833 0 l0 115 Z" /><glyph glyph-name="quoteleft" unicode="&#x2018;" d="M155 433 l-117 0 l0 200 l117 99 l0 -299 ZM84 690 l0 0 Z" /><glyph glyph-name="quoteright" unicode="&#x2019;" d="M38 690 l117 0 l0 -200 l-117 -99 l0 299 Z" /><glyph glyph-name="quotesinglbase" unicode="&#x201a;" d="M38 137 l117 0 l0 -200 l-117 -99 l0 299 Z" /><glyph glyph-name="quotedblleft" unicode="&#x201c;" d="M155 433 l-117 0 l0 200 l117 99 l0 -299 ZM345 433 l-117 0 l0 200 l117 99 l0 -299 ZM201 690 l0 0 Z" /><glyph glyph-name="quotedblright" unicode="&#x201d;" d="M38 690 l117 0 l0 -200 l-117 -99 l0 299 ZM228 690 l117 0 l0 -200 l-117 -99 l0 299 Z" /><glyph glyph-name="quotedblbase" unicode="&#x201e;" d="M227 137 l117 0 l0 -200 l-117 -99 l0 299 ZM38 137 l117 0 l0 -200 l-117 -99 l0 299 Z" /><glyph glyph-name="dagger" unicode="&#x2020;" d="M491 360 l-152 0 l0 -516 l-131 0 l0 516 l-154 0 l0 114 l154 0 l0 216 l131 0 l0 -216 l152 0 l0 -114 Z" /><glyph glyph-name="daggerdbl" unicode="&#x2021;" d="M339 367 l0 -195 l152 0 l0 -115 l-152 0 l0 -213 l-131 0 l0 213 l-154 0 l0 115 l154 0 l0 195 l-154 0 l0 115 l154 0 l0 208 l131 0 l0 -208 l152 0 l0 -115 l-152 0 Z" /><glyph glyph-name="bullet" unicode="&#x2022;" d="M227 162 q-64 0 -105 41 q-41 41 -41 105 q0 64 41 105 q41 41 105 41 q63 0 104 -41 q41 -41 41 -105 q0 -64 -41 -105 q-41 -41 -104 -41 Z" /><glyph glyph-name="ellipsis" unicode="&#x2026;" d="M38 142 l139 0 l0 -142 l-139 0 l0 142 ZM596 142 l139 0 l0 -142 l-139 0 l0 142 ZM317 142 l139 0 l0 -142 l-139 0 l0 142 Z" /><glyph glyph-name="perthousand" unicode="&#x2030;" d="M175 264 q-70 0 -102.5 37.5 q-32.5 37.5 -32.5 111.5 l0 142 q0 70 34.5 105.5 q34.5 35.5 100.5 35.5 q69 0 101.5 -35 q32.5 -35 32.5 -106 l0 -142 q0 -74 -32.5 -111.5 q-32.5 -37.5 -101.5 -37.5 ZM595 695 l99 0 l-386 -695 l-98 0 l385 695 ZM175 353 q21 0 26 13 q5 13 5 52 l0 124 q0 38 -5.5 52 q-5.5 14 -25.5 14 q-20 0 -26 -14 q-6 -14 -6 -52 l0 -124 q0 -37 5.5 -51 q5.5 -14 26.5 -14 ZM729 -6 q-70 0 -102.5 37.5 q-32.5 37.5 -32.5 111.5 l0 142 q0 70 34.5 105.5 q34.5 35.5 100.5 35.5 q69 0 101.5 -35 q32.5 -35 32.5 -106 l0 -142 q0 -74 -32.5 -111.5 q-32.5 -37.5 -101.5 -37.5 ZM1079 -6 q-70 0 -102.5 37.5 q-32.5 37.5 -32.5 111.5 l0 142 q0 70 34.5 105.5 q34.5 35.5 100.5 35.5 q69 0 101.5 -35 q32.5 -35 32.5 -106 l0 -142 q0 -74 -32.5 -111.5 q-32.5 -37.5 -101.5 -37.5 ZM729 83 q21 0 26 13 q5 13 5 52 l0 124 q0 38 -5.5 52 q-5.5 14 -25.5 14 q-20 0 -26 -14 q-6 -14 -6 -52 l0 -124 q0 -37 5.5 -51 q5.5 -14 26.5 -14 ZM1079 83 q21 0 26 13 q5 13 5 52 l0 124 q0 38 -5.5 52 q-5.5 14 -25.5 14 q-20 0 -26 -14 q-6 -14 -6 -52 l0 -124 q0 -37 5.5 -51 q5.5 -14 26.5 -14 Z" /><glyph glyph-name="guilsinglleft" unicode="&#x2039;" d="M18 264 l226 227 l0 -131 l-95 -96 l95 -96 l0 -131 l-226 227 Z" /><glyph glyph-name="guilsinglright" unicode="&#x203a;" d="M54 168 l96 96 l-96 96 l0 131 l227 -227 l-227 -227 l0 131 Z" /><glyph glyph-name="Euro" unicode="&#x20ac;" d="M294 -11 q-103 0 -158 61.5 q-55 61.5 -55 168.5 l0 22 l-54 0 l0 81 l54 0 l0 50 l-54 0 l0 81 l54 0 l0 24 q0 103 55.5 163 q55.5 60 158.5 60 q89 0 143 -47.5 q54 -47.5 60 -131.5 l-112 0 q-14 73 -89 73 q-94 0 -94 -118 l0 -23 l193 0 l-14 -81 l-179 0 l0 -50 l172 0 l-14 -81 l-158 0 l0 -23 q0 -58 23 -90.5 q23 -32.5 72 -32.5 q39 0 61.5 18.5 q22.5 18.5 30.5 55.5 l109 0 q-8 -89 -63.5 -134.5 q-55.5 -45.5 -141.5 -45.5 Z" /><glyph glyph-name="trademark" unicode="&#x2122;" d="M136 609 l-106 0 l0 81 l303 0 l0 -81 l-106 0 l0 -313 l-91 0 l0 313 ZM389 690 l84 0 l97 -227 l3 0 l95 227 l83 0 l0 -394 l-84 0 l0 206 l-3 0 l-63 -149 l-61 0 l-64 149 l-2 0 l0 -206 l-85 0 l0 394 Z" /><glyph glyph-name="fi" unicode="&#xfb01;" d="M266 606 q-27 0 -39.5 -12.5 q-12.5 -12.5 -12.5 -37.5 l0 -36 l93 0 l0 -87 l-93 0 l0 -433 l-123 0 l0 433 l-55 0 l0 87 l55 0 l0 31 q0 66 37.5 102.5 q37.5 36.5 106.5 36.5 l72 0 l0 -84 l-41 0 ZM393 520 l123 0 l0 -520 l-123 0 l0 520 ZM391 690 l126 0 l0 -99 l-126 0 l0 99 Z" /><glyph glyph-name="fl" unicode="&#xfb02;" d="M266 606 q-27 0 -39.5 -12.5 q-12.5 -12.5 -12.5 -37.5 l0 -36 l93 0 l0 -87 l-93 0 l0 -433 l-123 0 l0 433 l-55 0 l0 87 l55 0 l0 31 q0 66 37.5 102.5 q37.5 36.5 106.5 36.5 l72 0 l0 -84 l-41 0 ZM546 0 q-75 0 -116.5 41 q-41.5 41 -41.5 117 l0 532 l124 0 l0 -524 q0 -32 11.5 -45.5 q11.5 -13.5 37.5 -13.5 l42 0 l0 -107 l-57 0 Z" /></font>
</defs>
</svg>
