<?xml version="1.0" standalone="no"?><!DOCTYPE svg PUBLIC "-//W3C//DTD SVG 1.1//EN" "http://www.w3.org/Graphics/SVG/1.1/DTD/svg11.dtd" ><svg xmlns="http://www.w3.org/2000/svg"><metadata></metadata><defs><font id="2.006;TOKO;PlusJakartaSans-ExtraBold" horiz-adv-x="1413"><font-face font-family="Plus Jakarta Sans ExtraBold" font-weight="800" font-stretch="normal" units-per-em="1000" panose-1="0 0 0 0 0 0 0 0 0 0" ascent="1038" descent="-222" x-height="0" bbox="-157 -240 1360 1189" underline-thickness="40" underline-position="-155" unicode-range="U+000d-fb02" /><missing-glyph horiz-adv-x="640" d="M60 675 l0 70 l520 0 l0 -70 l-520 0 ZM60 0 l0 70 l520 0 l0 -70 l-520 0 ZM60 225 l0 70 l520 0 l0 -70 l-520 0 ZM60 450 l0 70 l520 0 l0 -70 l-520 0 Z" /><glyph glyph-name="A" unicode="A" d="M11 0 l252 745 l206 0 l252 -745 l-169 0 l-50 152 l-273 0 l-50 -152 l-168 0 ZM272 287 l187 0 l-114 352 l42 0 l-115 -352 Z" /><glyph glyph-name="AE" unicode="Æ" d="M11 0 l252 745 l708 0 l0 -135 l-346 0 l0 -169 l326 0 l0 -135 l-326 0 l0 -171 l346 0 l-1 -135 l-500 0 l0 152 l-241 0 l-50 -152 l-168 0 ZM272 287 l198 0 l0 323 l-92 0 l-106 -323 Z" /><glyph glyph-name="B" unicode="B" d="M66 0 l0 745 l315 0 q77 0 132 -26 q55 -26 84 -74.5 q29 -48.5 29 -117.5 q0 -49 -27 -93.5 q-27 -44.5 -89 -74.5 l0 76 q59 -23 91 -55 q32 -32 44 -69.5 q12 -37.5 12 -78.5 q0 -110 -73 -171 q-73 -61 -203 -61 l-315 0 ZM221 135 l178 0 q47 0 75 27 q28 27 28 70 q0 44 -28 71 q-28 27 -75 27 l-178 0 l0 -195 ZM221 465 l171 0 q36 0 57.5 20.5 q21.5 20.5 21.5 54.5 q0 34 -21.5 54.5 q-21.5 20.5 -57.5 20.5 l-171 0 l0 -150 Z" /><glyph glyph-name="C" unicode="C" d="M420 -12 q-80 0 -148.5 29 q-68.5 29 -119.5 81 q-51 52 -79.5 122 q-28.5 70 -28.5 153 q0 83 28 153.5 q28 70.5 79 122 q51 51.5 119.5 80 q68.5 28.5 149.5 28.5 q81 0 145.5 -27 q64.5 -27 109.5 -72 q45 -45 64 -100 l-137 -66 q-19 54 -66.5 89.5 q-47.5 35.5 -115.5 35.5 q-66 0 -116 -31 q-50 -31 -77.5 -85.5 q-27.5 -54.5 -27.5 -127.5 q0 -73 27.5 -128 q27.5 -55 77.5 -86 q50 -31 116 -31 q68 0 115.5 35.5 q47.5 35.5 66.5 89.5 l137 -66 q-19 -55 -64 -100 q-45 -45 -109.5 -72 q-64.5 -27 -145.5 -27 Z" /><glyph glyph-name="D" unicode="D" d="M66 0 l0 745 l243 0 q121 0 210 -48 q89 -48 138 -132 q49 -84 49 -192 q0 -108 -49 -192.5 q-49 -84.5 -138 -132.5 q-89 -48 -210 -48 l-243 0 ZM221 135 l92 0 q73 0 126 29.5 q53 29.5 82.5 83 q29.5 53.5 29.5 125.5 q0 73 -29.5 126 q-29.5 53 -82.5 82 q-53 29 -126 29 l-92 0 l0 -475 Z" /><glyph glyph-name="Eth" unicode="Ð" d="M12 308 l0 130 l365 0 l0 -130 l-365 0 ZM66 0 l0 745 l243 0 q121 0 210 -48 q89 -48 138 -132 q49 -84 49 -192 q0 -108 -49 -192.5 q-49 -84.5 -138 -132.5 q-89 -48 -210 -48 l-243 0 ZM221 135 l92 0 q73 0 126 29.5 q53 29.5 82.5 83 q29.5 53.5 29.5 125.5 q0 73 -29.5 126 q-29.5 53 -82.5 82 q-53 29 -126 29 l-92 0 l0 -475 Z" /><glyph glyph-name="E" unicode="E" d="M66 0 l0 745 l501 0 l0 -135 l-346 0 l0 -169 l326 0 l0 -135 l-326 0 l0 -171 l346 0 l0 -135 l-501 0 Z" /><glyph glyph-name="F" unicode="F" d="M66 0 l0 745 l510 0 l0 -135 l-355 0 l0 -189 l305 0 l0 -135 l-305 0 l0 -286 l-155 0 Z" /><glyph glyph-name="G" unicode="G" d="M424 -12 q-80 0 -149 29 q-69 29 -121 81 q-52 52 -81 122 q-29 70 -29 153 q0 83 28 153.5 q28 70.5 79 122 q51 51.5 119.5 80 q68.5 28.5 149.5 28.5 q81 0 145.5 -27 q64.5 -27 109.5 -72 q45 -45 64 -100 l-137 -66 q-19 54 -66.5 89.5 q-47.5 35.5 -115.5 35.5 q-66 0 -116 -31 q-50 -31 -77.5 -85.5 q-27.5 -54.5 -27.5 -127.5 q0 -73 29 -128 q29 -55 79.5 -86 q50.5 -31 116.5 -31 q51 0 95.5 19.5 q44.5 19.5 72 56.5 q27.5 37 27.5 89 l0 62 l71 -60 l-270 0 l0 130 l354 0 l0 -79 q0 -91 -30 -158.5 q-30 -67.5 -80.5 -112 q-50.5 -44.5 -113 -66 q-62.5 -21.5 -126.5 -21.5 Z" /><glyph glyph-name="H" unicode="H" d="M66 0 l0 745 l155 0 l0 -322 l290 0 l0 322 l155 0 l0 -745 l-155 0 l0 288 l-290 0 l0 -288 l-155 0 Z" /><glyph glyph-name="Hbar" unicode="&#x126;" d="M-9 530 l0 130 l750 0 l0 -130 l-750 0 ZM66 0 l0 745 l155 0 l0 -322 l290 0 l0 322 l155 0 l0 -745 l-155 0 l0 288 l-290 0 l0 -288 l-155 0 Z" /><glyph glyph-name="I" unicode="I" d="M66 0 l0 745 l155 0 l0 -745 l-155 0 Z" /><glyph glyph-name="J" unicode="J" d="M33 0 l0 140 l45 0 q45 0 72.5 25.5 q27.5 25.5 27.5 67.5 l0 512 l155 0 l0 -505 q0 -72 -31 -126 q-31 -54 -88.5 -84 q-57.5 -30 -135.5 -30 l-45 0 Z" /><glyph glyph-name="K" unicode="K" d="M66 0 l0 745 l155 0 l0 -373 l-43 15 l298 358 l194 0 l-295 -356 l9 110 l292 -499 l-181 0 l-182 315 l-92 -111 l0 -204 l-155 0 Z" /><glyph glyph-name="L" unicode="L" d="M66 0 l0 745 l155 0 l0 -610 l315 0 l0 -135 l-470 0 Z" /><glyph glyph-name="Ldot" unicode="&#x13f;" d="M379 294 q-32 0 -55 23 q-23 23 -23 55 q0 32 23 54.5 q23 22.5 55 22.5 q32 0 54.5 -22.5 q22.5 -22.5 22.5 -54.5 q0 -33 -22.5 -55.5 q-22.5 -22.5 -54.5 -22.5 ZM66 0 l0 745 l155 0 l0 -610 l315 0 l0 -135 l-470 0 Z" /><glyph glyph-name="Lslash" unicode="&#x141;" d="M33 201 l0 144 l350 200 l0 -144 l-350 -200 ZM130 0 l0 745 l155 0 l0 -610 l315 0 l0 -135 l-470 0 Z" /><glyph glyph-name="M" unicode="M" d="M66 0 l0 745 l150 0 l279 -370 l-70 0 l271 370 l150 0 l0 -745 l-155 0 l0 574 l62 -14 l-287 -370 l-20 0 l-277 370 l52 14 l0 -574 l-155 0 Z" /><glyph glyph-name="N" unicode="N" d="M66 0 l0 745 l119 0 l400 -527 l-64 -15 l0 542 l155 0 l0 -745 l-120 0 l-393 531 l58 15 l0 -546 l-155 0 Z" /><glyph glyph-name="Eng" unicode="&#x14a;" d="M460 -222 q-15 0 -29.5 1.5 q-14.5 1.5 -24.5 3.5 l0 128 q17 -3 34 -3 q43 0 64.5 18 q21.5 18 21.5 54 l0 128 l40 -121 l-385 520 l40 13 l0 -520 l-155 0 l0 745 l119 0 l377 -497 l-41 -13 l0 510 l155 0 l0 -765 q0 -64 -25.5 -109.5 q-25.5 -45.5 -74 -69 q-48.5 -23.5 -116.5 -23.5 Z" /><glyph glyph-name="O" unicode="O" d="M439 -12 q-84 0 -156 29 q-72 29 -125.5 81.5 q-53.5 52.5 -83.5 122.5 q-30 70 -30 152 q0 82 29.5 152 q29.5 70 83 122 q53.5 52 125.5 81 q72 29 157 29 q85 0 157 -29 q72 -29 125.5 -81 q53.5 -52 83 -122 q29.5 -70 29.5 -152 q0 -82 -30 -152 q-30 -70 -83.5 -122.5 q-53.5 -52.5 -125.5 -81.5 q-72 -29 -156 -29 ZM439 128 q51 0 94.5 18 q43.5 18 76.5 50.5 q33 32.5 51 77.5 q18 45 18 99 q0 54 -18 98.5 q-18 44.5 -51 77.5 q-33 33 -76.5 50.5 q-43.5 17.5 -94.5 17.5 q-51 0 -94.5 -17.5 q-43.5 -17.5 -76.5 -50.5 q-33 -33 -51 -77.5 q-18 -44.5 -18 -98.5 q0 -54 18 -99 q18 -45 51 -77.5 q33 -32.5 76.5 -50.5 q43.5 -18 94.5 -18 Z" /><glyph glyph-name="Ohorn" unicode="&#x1a0;" d="M439 -12 q-84 0 -156 29 q-72 29 -125.5 81.5 q-53.5 52.5 -83.5 122.5 q-30 70 -30 152 q0 82 29.5 152 q29.5 70 83 122 q53.5 52 125.5 81 q72 29 157 29 l200 0 q6 0 17 1.5 q11 1.5 20.5 11.5 q9.5 10 9.5 36 q0 16 -6 36.5 q-6 20.5 -14 39.5 l126 0 q10 -21 16.5 -41.5 q6.5 -20.5 6.5 -47.5 q0 -72 -23 -105.5 q-23 -33.5 -60 -33.5 l-88 0 l35 29 q48 -34 83 -82 q35 -48 53.5 -105.5 q18.5 -57.5 18.5 -122.5 q0 -82 -30 -152 q-30 -70 -83.5 -122.5 q-53.5 -52.5 -125.5 -81.5 q-72 -29 -156 -29 ZM439 128 q51 0 94.5 18 q43.5 18 76.5 50.5 q33 32.5 51 77.5 q18 45 18 99 q0 54 -18 98.5 q-18 44.5 -51 77.5 q-33 33 -76.5 50.5 q-43.5 17.5 -94.5 17.5 q-51 0 -94.5 -17.5 q-43.5 -17.5 -76.5 -50.5 q-33 -33 -51 -77.5 q-18 -44.5 -18 -98.5 q0 -54 18 -99 q18 -45 51 -77.5 q33 -32.5 76.5 -50.5 q43.5 -18 94.5 -18 Z" /><glyph glyph-name="Oslash" unicode="Ø" d="M50 0 l610 745 l168 0 l-610 -745 l-168 0 ZM439 -12 q-84 0 -156 29 q-72 29 -125.5 81.5 q-53.5 52.5 -83.5 122.5 q-30 70 -30 152 q0 82 29.5 152 q29.5 70 83 122 q53.5 52 125.5 81 q72 29 157 29 q85 0 157 -29 q72 -29 125.5 -81 q53.5 -52 83 -122 q29.5 -70 29.5 -152 q0 -82 -30 -152 q-30 -70 -83.5 -122.5 q-53.5 -52.5 -125.5 -81.5 q-72 -29 -156 -29 ZM439 128 q51 0 94.5 18 q43.5 18 76.5 50.5 q33 32.5 51 77.5 q18 45 18 99 q0 54 -18 98.5 q-18 44.5 -51 77.5 q-33 33 -76.5 50.5 q-43.5 17.5 -94.5 17.5 q-51 0 -94.5 -17.5 q-43.5 -17.5 -76.5 -50.5 q-33 -33 -51 -77.5 q-18 -44.5 -18 -98.5 q0 -54 18 -99 q18 -45 51 -77.5 q33 -32.5 76.5 -50.5 q43.5 -18 94.5 -18 Z" /><glyph glyph-name="OE" unicode="&#x152;" d="M439 -12 q-84 0 -156 29 q-72 29 -125.5 81.5 q-53.5 52.5 -83.5 122.5 q-30 70 -30 152 q0 82 29.5 152 q29.5 70 83 122 q53.5 52 125.5 81 q72 29 157 29 q55 0 105.5 -13 q50.5 -13 94 -38.5 q43.5 -25.5 77.5 -63.5 l-32 -30 l0 133 l501 0 l0 -135 l-346 0 l0 -169 l326 0 l0 -135 l-326 0 l0 -171 l346 0 l-1 -135 l-500 0 l0 134 l32 -29 q-34 -38 -77.5 -64.5 q-43.5 -26.5 -94 -39.5 q-50.5 -13 -105.5 -13 ZM439 128 q51 0 94.5 18 q43.5 18 76.5 50.5 q33 32.5 51 77.5 q18 45 18 99 q0 54 -18 98.5 q-18 44.5 -51 77.5 q-33 33 -76.5 50.5 q-43.5 17.5 -94.5 17.5 q-51 0 -94.5 -17.5 q-43.5 -17.5 -76.5 -50.5 q-33 -33 -51 -77.5 q-18 -44.5 -18 -98.5 q0 -54 18 -99 q18 -45 51 -77.5 q33 -32.5 76.5 -50.5 q43.5 -18 94.5 -18 Z" /><glyph glyph-name="P" unicode="P" d="M66 0 l0 745 l286 0 q77 0 136.5 -27 q59.5 -27 93.5 -80 q34 -53 34 -131 q0 -76 -34.5 -129 q-34.5 -53 -94 -80.5 q-59.5 -27.5 -135.5 -27.5 l-131 0 l0 -270 l-155 0 ZM221 405 l132 0 q33 0 57 13 q24 13 37.5 36 q13.5 23 13.5 53 q0 31 -13.5 54 q-13.5 23 -37.5 36 q-24 13 -57 13 l-132 0 l0 -205 Z" /><glyph glyph-name="Thorn" unicode="Þ" d="M60 0 l0 745 l155 0 l0 -135 l131 0 q77 0 136.5 -27 q59.5 -27 93.5 -80 q34 -53 34 -131 q0 -76 -34.5 -129 q-34.5 -53 -94 -80.5 q-59.5 -27.5 -135.5 -27.5 l-131 0 l0 -135 l-155 0 ZM215 270 l132 0 q33 0 57 13 q24 13 37.5 36 q13.5 23 13.5 53 q0 31 -13.5 54 q-13.5 23 -37.5 36 q-24 13 -57 13 l-132 0 l0 -205 Z" /><glyph glyph-name="Q" unicode="Q" d="M439 -12 q-84 0 -156 29 q-72 29 -125.5 81.5 q-53.5 52.5 -83.5 122.5 q-30 70 -30 152 q0 82 29.5 152 q29.5 70 83 122 q53.5 52 125.5 81 q72 29 157 29 q85 0 157 -29 q72 -29 125.5 -81 q53.5 -52 83 -122 q29.5 -70 29.5 -152 q0 -82 -30 -152 q-30 -70 -83.5 -122.5 q-53.5 -52.5 -125.5 -81.5 q-72 -29 -156 -29 ZM439 128 q51 0 94.5 18 q43.5 18 76.5 50.5 q33 32.5 51 77.5 q18 45 18 99 q0 54 -18 98.5 q-18 44.5 -51 77.5 q-33 33 -76.5 50.5 q-43.5 17.5 -94.5 17.5 q-51 0 -94.5 -17.5 q-43.5 -17.5 -76.5 -50.5 q-33 -33 -51 -77.5 q-18 -44.5 -18 -98.5 q0 -54 18 -99 q18 -45 51 -77.5 q33 -32.5 76.5 -50.5 q43.5 -18 94.5 -18 ZM597 -90 l-222 388 l160 0 l225 -388 l-163 0 Z" /><glyph glyph-name="R" unicode="R" d="M66 0 l0 745 l285 0 q77 0 136.5 -27 q59.5 -27 93.5 -80 q34 -53 34 -131 q0 -76 -35 -129.5 q-35 -53.5 -94 -80.5 l170 -297 l-174 0 l-184 329 l100 -59 l-177 0 l0 -270 l-155 0 ZM221 405 l131 0 q33 0 57 13 q24 13 37.5 36 q13.5 23 13.5 53 q0 31 -13.5 54 q-13.5 23 -37.5 36 q-24 13 -57 13 l-131 0 l0 -205 Z" /><glyph glyph-name="S" unicode="S" d="M337 -12 q-70 0 -131.5 25.5 q-61.5 25.5 -106 72.5 q-44.5 47 -66.5 111 l127 57 q28 -61 77.5 -96 q49.5 -35 109.5 -35 q32 0 55 10 q23 10 36 27.5 q13 17.5 13 41.5 q0 26 -16 44.5 q-16 18.5 -50 29.5 l-146 48 q-89 29 -134 82.5 q-45 53.5 -45 128.5 q0 66 32.5 116 q32.5 50 91 78 q58.5 28 134.5 28 q67 0 124 -23 q57 -23 98.5 -65 q41.5 -42 62.5 -101 l-126 -57 q-21 52 -63 81.5 q-42 29.5 -96 29.5 q-31 0 -55 -10 q-24 -10 -37 -28.5 q-13 -18.5 -13 -42.5 q0 -26 17 -45.5 q17 -19.5 51 -30.5 l143 -46 q90 -29 134.5 -81 q44.5 -52 44.5 -127 q0 -65 -34 -115.5 q-34 -50.5 -93.5 -79 q-59.5 -28.5 -138.5 -28.5 Z" /><glyph glyph-name="uni018F" unicode="&#x18f;" d="M394 -12 q-76 0 -140 26 q-64 26 -111 73.5 q-47 47.5 -73 113.5 q-26 66 -26 146 q0 18 1.5 36 q1.5 18 5.5 34 l585 0 l0 -120 l-495 0 l73 55 q-1 -10 -2 -19.5 q-1 -9.5 -1 -19.5 q0 -53 24 -95 q24 -42 66.5 -66 q42.5 -24 97.5 -24 q46 0 85.5 17 q39.5 17 68 49 q28.5 32 43.5 77 q15 45 12 101 q3 54 -12.5 99 q-15.5 45 -45.5 78 q-30 33 -72.5 50.5 q-42.5 17.5 -94.5 17.5 q-61 0 -108 -26 q-47 -26 -74 -73 l-127 61 q24 54 70 94 q46 40 108 62 q62 22 133 22 q85 0 154.5 -30 q69.5 -30 120 -83 q50.5 -53 77.5 -123 q27 -70 27 -151 q0 -82 -27.5 -151.5 q-27.5 -69.5 -77.5 -121.5 q-50 -52 -117.5 -80.5 q-67.5 -28.5 -147.5 -28.5 Z" /><glyph glyph-name="T" unicode="T" d="M200 0 l0 610 l-189 0 l0 135 l530 0 l0 -135 l-186 0 l0 -610 l-155 0 Z" /><glyph glyph-name="Tbar" unicode="&#x166;" d="M94 308 l0 130 l365 0 l0 -130 l-365 0 ZM200 0 l0 610 l-189 0 l0 135 l530 0 l0 -135 l-186 0 l0 -610 l-155 0 Z" /><glyph glyph-name="U" unicode="U" d="M362 -12 q-88 0 -157 37 q-69 37 -108.5 101.5 q-39.5 64.5 -39.5 146.5 l0 472 l155 0 l0 -462 q0 -44 19.5 -79.5 q19.5 -35.5 53.5 -55.5 q34 -20 77 -20 q44 0 77.5 20 q33.5 20 53 55.5 q19.5 35.5 19.5 79.5 l0 462 l155 0 l0 -472 q0 -82 -39.5 -146.5 q-39.5 -64.5 -108.5 -101.5 q-69 -37 -157 -37 Z" /><glyph glyph-name="Uhorn" unicode="&#x1af;" d="M362 -12 q-88 0 -157 37 q-69 37 -108.5 101.5 q-39.5 64.5 -39.5 146.5 l0 472 l155 0 l0 -462 q0 -44 19.5 -79.5 q19.5 -35.5 53.5 -55.5 q34 -20 77 -20 q44 0 77.5 20 q33.5 20 53 55.5 q19.5 35.5 19.5 79.5 l0 462 l136 0 q11 0 25.5 8 q14.5 8 14.5 41 q0 16 -6 36.5 q-6 20.5 -14 39.5 l126 0 q10 -21 16.5 -41.5 q6.5 -20.5 6.5 -47.5 q0 -72 -37.5 -105.5 q-37.5 -33.5 -105.5 -33.5 l-7 0 l0 -369 q0 -82 -39.5 -146.5 q-39.5 -64.5 -108.5 -101.5 q-69 -37 -157 -37 Z" /><glyph glyph-name="V" unicode="V" d="M266 0 l-255 745 l170 0 l192 -598 l-34 0 l192 598 l170 0 l-255 -745 l-180 0 Z" /><glyph glyph-name="W" unicode="W" d="M206 0 l-195 745 l168 0 l147 -624 l-45 0 l155 624 l160 0 l155 -624 l-45 0 l147 624 l168 0 l-195 -745 l-180 0 l-156 600 l52 0 l-156 -600 l-180 0 Z" /><glyph glyph-name="X" unicode="X" d="M11 0 l244 373 l-244 372 l178 0 l196 -298 l-87 0 l195 298 l178 0 l-243 -372 l243 -373 l-178 0 l-195 299 l87 -1 l-196 -298 l-178 0 Z" /><glyph glyph-name="Y" unicode="Y" d="M259 0 l0 325 l-248 420 l177 0 l180 -316 l-63 0 l179 316 l177 0 l-247 -419 l0 -326 l-155 0 Z" /><glyph glyph-name="Z" unicode="Z" d="M11 0 l0 125 l339 485 l-319 0 l0 135 l515 0 l0 -125 l-338 -485 l348 0 l0 -135 l-545 0 Z" /><glyph glyph-name="a" unicode="a" d="M224 -12 q-59 0 -102 19 q-43 19 -66 54.5 q-23 35.5 -23 84.5 q0 46 21 81.5 q21 35.5 64.5 59.5 q43.5 24 108.5 34 l167 27 l0 -110 l-140 -25 q-32 -6 -49 -20.5 q-17 -14.5 -17 -41.5 q0 -25 19 -39 q19 -14 47 -14 q37 0 65 16 q28 16 43.5 43.5 q15.5 27.5 15.5 60.5 l0 142 q0 31 -24.5 52 q-24.5 21 -66.5 21 q-40 0 -70.5 -22 q-30.5 -22 -44.5 -58 l-120 57 q16 46 51 79 q35 33 84 51 q49 18 107 18 q69 0 122 -25 q53 -25 82.5 -69.5 q29.5 -44.5 29.5 -103.5 l0 -360 l-140 0 l0 88 l34 6 q-24 -36 -53 -59.5 q-29 -23.5 -65 -35 q-36 -11.5 -80 -11.5 Z" /><glyph glyph-name="ae" unicode="æ" d="M224 -12 q-59 0 -102 19 q-43 19 -66 54.5 q-23 35.5 -23 84.5 q0 46 21 81.5 q21 35.5 64.5 59.5 q43.5 24 108.5 34 l151 24 l0 15 q0 31 -24.5 52 q-24.5 21 -66.5 21 q-40 0 -70.5 -22 q-30.5 -22 -44.5 -58 l-120 57 q16 46 51 79 q35 33 84 51 q49 18 107 18 q71 0 124.5 -26.5 q53.5 -26.5 81.5 -71.5 l-54 0 q38 45 92.5 71.5 q54.5 26.5 119.5 26.5 q65 0 115 -20.5 q50 -20.5 84.5 -57.5 q34.5 -37 52.5 -85.5 q18 -48.5 18 -105.5 q0 -16 -1.5 -31.5 q-1.5 -15.5 -5.5 -26.5 l-382 0 q5 -34 21.5 -59.5 q16.5 -25.5 44.5 -39.5 q28 -14 65 -14 q40 0 68.5 16 q28.5 16 44.5 44 l120 -57 q-16 -40 -49.5 -70 q-33.5 -30 -76.5 -46.5 q-43 -16.5 -89 -16.5 q-66 0 -119.5 24 q-53.5 24 -90.5 75 l33 31 l0 -118 l-123 0 l0 118 l31 -31 q-24 -34 -53 -56 q-29 -22 -64 -32.5 q-35 -10.5 -78 -10.5 ZM254 98 q37 0 65 16 q28 16 43.5 43.5 q15.5 27.5 15.5 60.5 l0 17 l-124 -22 q-32 -6 -49 -20.5 q-17 -14.5 -17 -41.5 q0 -25 19 -39 q19 -14 47 -14 ZM542 341 l227 0 q-3 29 -17.5 51 q-14.5 22 -38.5 34 q-24 12 -55 12 q-29 0 -53 -11 q-24 -11 -40 -32.5 q-16 -21.5 -23 -53.5 Z" /><glyph glyph-name="b" unicode="b" d="M361 -12 q-56 0 -103.5 20.5 q-47.5 20.5 -76.5 60.5 l14 31 l0 -100 l-140 0 l0 757 l150 0 l0 -315 l-23 30 q27 41 73.5 63.5 q46.5 22.5 106.5 22.5 q78 0 141 -38 q63 -38 100 -102.5 q37 -64.5 37 -144.5 q0 -79 -36.5 -144 q-36.5 -65 -99.5 -103 q-63 -38 -143 -38 ZM343 123 q42 0 74 19 q32 19 50 53 q18 34 18 78 q0 44 -18 77.5 q-18 33.5 -50 53 q-32 19.5 -74 19.5 q-40 0 -71.5 -19 q-31.5 -19 -49 -53 q-17.5 -34 -17.5 -78 q0 -44 17.5 -78 q17.5 -34 49 -53 q31.5 -19 71.5 -19 Z" /><glyph glyph-name="c" unicode="c" d="M323 -12 q-82 0 -147.5 37.5 q-65.5 37.5 -104 102.5 q-38.5 65 -38.5 146 q0 81 38 145.5 q38 64.5 104 101.5 q66 37 148 37 q61 0 113 -21 q52 -21 89 -58.5 q37 -37.5 53 -88.5 l-130 -56 q-14 41 -47.5 65 q-33.5 24 -77.5 24 q-39 0 -69.5 -19 q-30.5 -19 -48 -53 q-17.5 -34 -17.5 -78 q0 -44 17.5 -78 q17.5 -34 48 -53 q30.5 -19 69.5 -19 q45 0 78 24 q33 24 47 65 l130 -57 q-15 -48 -52 -86 q-37 -38 -89 -59.5 q-52 -21.5 -114 -21.5 Z" /><glyph glyph-name="d" unicode="d" d="M312 -12 q-80 0 -143 38 q-63 38 -99.5 103 q-36.5 65 -36.5 144 q0 80 37 144.5 q37 64.5 100 102.5 q63 38 141 38 q60 0 106.5 -22.5 q46.5 -22.5 73.5 -63.5 l-23 -30 l0 315 l150 0 l0 -757 l-140 0 l0 100 l14 -31 q-28 -40 -76 -60.5 q-48 -20.5 -104 -20.5 ZM330 123 q41 0 72 19 q31 19 48.5 53 q17.5 34 17.5 78 q0 44 -17.5 78 q-17.5 34 -48.5 53 q-31 19 -72 19 q-41 0 -73.5 -19.5 q-32.5 -19.5 -50.5 -53 q-18 -33.5 -18 -77.5 q0 -44 18 -78 q18 -34 50.5 -53 q32.5 -19 73.5 -19 Z" /><glyph glyph-name="eth" unicode="ð" d="M326 -12 q-59 0 -112 20.5 q-53 20.5 -93.5 58 q-40.5 37.5 -64 89.5 q-23.5 52 -23.5 114 q0 79 37.5 142 q37.5 63 101.5 99.5 q64 36.5 144 36.5 q36 0 64 -8 q28 -8 52.5 -24 q24.5 -16 49.5 -40 l-23 -40 q-3 45 -17.5 81.5 q-14.5 36.5 -39 64.5 q-24.5 28 -57 46.5 q-32.5 18.5 -70 28 q-37.5 9.5 -78.5 9.5 q-24 0 -48.5 -3.5 q-24.5 -3.5 -49.5 -11.5 l-15 120 q74 25 143 25 q71 0 131.5 -24 q60.5 -24 108.5 -67.5 q48 -43.5 81.5 -101.5 q33.5 -58 51.5 -126 q18 -68 18 -142 q0 -114 -37.5 -191 q-37.5 -77 -103 -116.5 q-65.5 -39.5 -151.5 -39.5 ZM326 123 q41 0 71.5 19 q30.5 19 48 52 q17.5 33 17.5 75 q0 41 -16.5 73.5 q-16.5 32.5 -47 51.5 q-30.5 19 -73.5 19 q-41 0 -72.5 -18.5 q-31.5 -18.5 -48.5 -51 q-17 -32.5 -17 -74.5 q0 -43 18 -76 q18 -33 49 -51.5 q31 -18.5 71 -18.5 ZM215 555 l0 60 l354 138 l0 -60 l-354 -138 Z" /><glyph glyph-name="dcroat" unicode="&#x111;" d="M393 585 l0 110 l300 0 l0 -110 l-300 0 ZM312 -12 q-80 0 -143 38 q-63 38 -99.5 103 q-36.5 65 -36.5 144 q0 80 37 144.5 q37 64.5 100 102.5 q63 38 141 38 q60 0 106.5 -22.5 q46.5 -22.5 73.5 -63.5 l-23 -30 l0 315 l150 0 l0 -757 l-140 0 l0 100 l14 -31 q-28 -40 -76 -60.5 q-48 -20.5 -104 -20.5 ZM330 123 q41 0 72 19 q31 19 48.5 53 q17.5 34 17.5 78 q0 44 -17.5 78 q-17.5 34 -48.5 53 q-31 19 -72 19 q-41 0 -73.5 -19.5 q-32.5 -19.5 -50.5 -53 q-18 -33.5 -18 -77.5 q0 -44 18 -78 q18 -34 50.5 -53 q32.5 -19 73.5 -19 Z" /><glyph glyph-name="e" unicode="e" d="M318 -12 q-87 0 -151 38.5 q-64 38.5 -99 103.5 q-35 65 -35 144 q0 82 36.5 146 q36.5 64 98.5 101 q62 37 140 37 q65 0 115 -20.5 q50 -20.5 84.5 -57.5 q34.5 -37 52.5 -85.5 q18 -48.5 18 -105.5 q0 -16 -1.5 -31.5 q-1.5 -15.5 -5.5 -26.5 l-409 0 l0 110 l324 0 l-71 -52 q10 43 -1 76.5 q-11 33.5 -38.5 53 q-27.5 19.5 -67.5 19.5 q-39 0 -67 -19 q-28 -19 -42 -56 q-14 -37 -11 -90 q-4 -46 11 -81 q15 -35 46 -54.5 q31 -19.5 75 -19.5 q40 0 68.5 16 q28.5 16 44.5 44 l120 -57 q-16 -40 -50.5 -70 q-34.5 -30 -81.5 -46.5 q-47 -16.5 -103 -16.5 Z" /><glyph glyph-name="uni0259" unicode="&#x259;" d="M303 -12 q-65 0 -115 20.5 q-50 20.5 -84.5 57.5 q-34.5 37 -52.5 85.5 q-18 48.5 -18 105.5 q0 17 1.5 32 q1.5 15 5.5 26 l409 0 l0 -110 l-324 0 l71 52 q-10 -42 1 -76 q11 -34 39 -53.5 q28 -19.5 67 -19.5 q39 0 67 19 q28 19 42.5 56 q14.5 37 10.5 90 q4 46 -11 81 q-15 35 -46 54.5 q-31 19.5 -75 19.5 q-40 0 -68.5 -16 q-28.5 -16 -44.5 -44 l-120 57 q17 40 51 70 q34 30 81 46.5 q47 16.5 103 16.5 q87 0 151 -38.5 q64 -38.5 99 -103.5 q35 -65 35 -144 q0 -81 -36 -145.5 q-36 -64.5 -98.5 -101.5 q-62.5 -37 -140.5 -37 Z" /><glyph glyph-name="f" unicode="f" d="M121 0 l0 416 l-92 0 l0 130 l92 0 l0 8 q0 65 25.5 110 q25.5 45 73.5 69 q48 24 116 24 q13 0 28 -1.5 q15 -1.5 25 -3.5 l0 -128 q-10 2 -17.5 2.5 q-7.5 0.5 -15.5 0.5 q-42 0 -63.5 -18.5 q-21.5 -18.5 -21.5 -54.5 l0 -8 l117 0 l0 -130 l-117 0 l0 -416 l-150 0 Z" /><glyph glyph-name="g" unicode="g" d="M323 -220 q-63 0 -117 21 q-54 21 -92.5 58.5 q-38.5 37.5 -55.5 88.5 l139 49 q11 -38 45 -60 q34 -22 81 -22 q37 0 64 13.5 q27 13.5 41.5 39.5 q14.5 26 14.5 61 l0 125 l29 -36 q-28 -46 -72 -68.5 q-44 -22.5 -103 -22.5 q-76 0 -136 34.5 q-60 34.5 -94 95 q-34 60.5 -34 137.5 q0 77 34 136.5 q34 59.5 93 93.5 q59 34 134 34 q59 0 103 -23.5 q44 -23.5 75 -71.5 l-19 -36 l0 119 l140 0 l0 -517 q0 -72 -35 -128.5 q-35 -56.5 -95.5 -88.5 q-60.5 -32 -139.5 -32 ZM318 163 q38 0 66 16 q28 16 43.5 45 q15.5 29 15.5 68 q0 39 -16 68.5 q-16 29.5 -44 46 q-28 16.5 -65 16.5 q-38 0 -67.5 -16.5 q-29.5 -16.5 -46 -46 q-16.5 -29.5 -16.5 -68.5 q0 -38 16.5 -67 q16.5 -29 46 -45.5 q29.5 -16.5 67.5 -16.5 Z" /><glyph glyph-name="h" unicode="h" d="M55 0 l0 757 l150 0 l0 -319 l-18 24 q19 49 61.5 72.5 q42.5 23.5 99.5 23.5 q62 0 108.5 -26 q46.5 -26 72.5 -72.5 q26 -46.5 26 -108.5 l0 -351 l-150 0 l0 319 q0 32 -12.5 55 q-12.5 23 -35 36 q-22.5 13 -52.5 13 q-29 0 -52 -13 q-23 -13 -35.5 -36 q-12.5 -23 -12.5 -55 l0 -319 l-150 0 Z" /><glyph glyph-name="hbar" unicode="&#x127;" d="M-20 585 l0 110 l300 0 l0 -110 l-300 0 ZM55 0 l0 757 l150 0 l0 -319 l-18 24 q19 49 61.5 72.5 q42.5 23.5 99.5 23.5 q62 0 108.5 -26 q46.5 -26 72.5 -72.5 q26 -46.5 26 -108.5 l0 -351 l-150 0 l0 319 q0 32 -12.5 55 q-12.5 23 -35 36 q-22.5 13 -52.5 13 q-29 0 -52 -13 q-23 -13 -35.5 -36 q-12.5 -23 -12.5 -55 l0 -319 l-150 0 Z" /><glyph glyph-name="i" unicode="i" d="M55 0 l0 546 l150 0 l0 -546 l-150 0 ZM55 595 l0 150 l150 0 l0 -150 l-150 0 Z" /><glyph glyph-name="dotlessi" unicode="&#x131;" d="M44 0 l0 546 l150 0 l0 -546 l-150 0 Z" /><glyph glyph-name="j" unicode="j" d="M-11 -222 q-15 0 -29.5 1.5 q-14.5 1.5 -24.5 3.5 l0 128 q17 -3 34 -3 q43 0 64.5 18 q21.5 18 21.5 54 l0 566 l150 0 l0 -566 q0 -64 -25.5 -109.5 q-25.5 -45.5 -74 -69 q-48.5 -23.5 -116.5 -23.5 ZM55 595 l0 150 l150 0 l0 -150 l-150 0 Z" /><glyph glyph-name="uni0237" unicode="&#x237;" d="M-11 -222 q-15 0 -29.5 1.5 q-14.5 1.5 -24.5 3.5 l0 128 q17 -3 34 -3 q43 0 64.5 18 q21.5 18 21.5 54 l0 566 l150 0 l0 -566 q0 -64 -25.5 -109.5 q-25.5 -45.5 -74 -69 q-48.5 -23.5 -116.5 -23.5 Z" /><glyph glyph-name="k" unicode="k" d="M55 0 l0 757 l150 0 l0 -485 l-56 18 l241 256 l185 0 l-198 -220 l197 -326 l-170 0 l-165 277 l87 22 l-167 -182 l46 87 l0 -204 l-150 0 Z" /><glyph glyph-name="kgreenlandic" unicode="&#x138;" d="M406 0 l-155 224 l9 117 l130 205 l164 0 l-168 -270 l189 -276 l-169 0 ZM55 0 l0 546 l150 0 l0 -546 l-150 0 ZM150 218 l0 130 l186 0 l0 -130 l-186 0 Z" /><glyph glyph-name="l" unicode="l" d="M55 0 l0 757 l150 0 l0 -757 l-150 0 Z" /><glyph glyph-name="ldot" unicode="&#x140;" d="M340 294 q-32 0 -55 23 q-23 23 -23 55 q0 32 23 54.5 q23 22.5 55 22.5 q32 0 54.5 -22.5 q22.5 -22.5 22.5 -54.5 q0 -33 -22.5 -55.5 q-22.5 -22.5 -54.5 -22.5 ZM55 0 l0 757 l150 0 l0 -757 l-150 0 Z" /><glyph glyph-name="lslash" unicode="&#x142;" d="M27 231 l0 144 l310 178 l0 -144 l-310 -178 ZM108 0 l0 757 l150 0 l0 -757 l-150 0 Z" /><glyph glyph-name="m" unicode="m" d="M55 0 l0 546 l140 0 l0 -133 l-15 22 q12 63 58 93 q46 30 110 30 q68 0 119.5 -34.5 q51.5 -34.5 64.5 -92.5 l-43 -4 q27 67 77 99 q50 32 117 32 q59 0 104.5 -26 q45.5 -26 71.5 -72.5 q26 -46.5 26 -108.5 l0 -351 l-150 0 l0 319 q0 32 -11.5 55 q-11.5 23 -32.5 36 q-21 13 -51 13 q-29 0 -50.5 -13 q-21.5 -13 -33 -36 q-11.5 -23 -11.5 -55 l0 -319 l-150 0 l0 319 q0 32 -11.5 55 q-11.5 23 -32.5 36 q-21 13 -51 13 q-29 0 -50.5 -13 q-21.5 -13 -33 -36 q-11.5 -23 -11.5 -55 l0 -319 l-150 0 Z" /><glyph glyph-name="n" unicode="n" d="M55 0 l0 546 l140 0 l0 -108 l-8 24 q19 49 61.5 72.5 q42.5 23.5 99.5 23.5 q62 0 108.5 -26 q46.5 -26 72.5 -72.5 q26 -46.5 26 -108.5 l0 -351 l-150 0 l0 319 q0 32 -12.5 55 q-12.5 23 -35 36 q-22.5 13 -52.5 13 q-29 0 -52 -13 q-23 -13 -35.5 -36 q-12.5 -23 -12.5 -55 l0 -319 l-150 0 Z" /><glyph glyph-name="eng" unicode="&#x14b;" d="M334 -222 q-15 0 -29.5 1.5 q-14.5 1.5 -24.5 3.5 l0 128 q17 -3 34 -3 q43 0 64.5 18 q21.5 18 21.5 54 l0 339 q0 32 -12.5 55 q-12.5 23 -35 36 q-22.5 13 -52.5 13 q-29 0 -52 -13 q-23 -13 -35.5 -36 q-12.5 -23 -12.5 -55 l0 -319 l-150 0 l0 546 l140 0 l0 -108 l-8 24 q19 49 61.5 72.5 q42.5 23.5 99.5 23.5 q62 0 108.5 -26 q46.5 -26 72.5 -72.5 q26 -46.5 26 -108.5 l0 -371 q0 -64 -25.5 -109.5 q-25.5 -45.5 -74 -69 q-48.5 -23.5 -116.5 -23.5 Z" /><glyph glyph-name="o" unicode="o" d="M326 -12 q-81 0 -147.5 37 q-66.5 37 -106 101.5 q-39.5 64.5 -39.5 146.5 q0 83 39.5 147 q39.5 64 106 101 q66.5 37 147.5 37 q81 0 147 -37 q66 -37 105.5 -101 q39.5 -64 39.5 -147 q0 -82 -39.5 -146.5 q-39.5 -64.5 -105.5 -101.5 q-66 -37 -147 -37 ZM326 123 q41 0 71.5 19 q30.5 19 48 53 q17.5 34 17.5 78 q0 44 -17.5 77.5 q-17.5 33.5 -48 53 q-30.5 19.5 -71.5 19.5 q-41 0 -72 -19.5 q-31 -19.5 -48.5 -53 q-17.5 -33.5 -17.5 -77.5 q0 -44 17.5 -78 q17.5 -34 48.5 -53 q31 -19 72 -19 Z" /><glyph glyph-name="ohorn" unicode="&#x1a1;" d="M326 -12 q-81 0 -147.5 37 q-66.5 37 -106 101.5 q-39.5 64.5 -39.5 146.5 q0 83 39.5 147 q39.5 64 106 101 q66.5 37 147.5 37 l104 0 q6 0 17.5 1.5 q11.5 1.5 20.5 11.5 q9 10 9 36 q0 16 -6 36.5 q-6 20.5 -14 39.5 l126 0 q10 -21 16.5 -41.5 q6.5 -20.5 6.5 -47.5 q0 -61 -31 -93.5 q-31 -32.5 -81 -43.5 l11 44 q51 -37 82 -96 q31 -59 31 -132 q0 -82 -39.5 -146.5 q-39.5 -64.5 -105.5 -101.5 q-66 -37 -147 -37 ZM326 123 q41 0 71.5 19 q30.5 19 48 53 q17.5 34 17.5 78 q0 44 -17.5 77.5 q-17.5 33.5 -48 53 q-30.5 19.5 -71.5 19.5 q-41 0 -72 -19.5 q-31 -19.5 -48.5 -53 q-17.5 -33.5 -17.5 -77.5 q0 -44 17.5 -78 q17.5 -34 48.5 -53 q31 -19 72 -19 Z" /><glyph glyph-name="oslash" unicode="ø" d="M9 0 l469 546 l165 0 l-469 -546 l-165 0 ZM326 -12 q-81 0 -147.5 37 q-66.5 37 -106 101.5 q-39.5 64.5 -39.5 146.5 q0 83 39.5 147 q39.5 64 106 101 q66.5 37 147.5 37 q81 0 147 -37 q66 -37 105.5 -101 q39.5 -64 39.5 -147 q0 -82 -39.5 -146.5 q-39.5 -64.5 -105.5 -101.5 q-66 -37 -147 -37 ZM326 123 q41 0 71.5 19 q30.5 19 48 53 q17.5 34 17.5 78 q0 44 -17.5 77.5 q-17.5 33.5 -48 53 q-30.5 19.5 -71.5 19.5 q-41 0 -72 -19.5 q-31 -19.5 -48.5 -53 q-17.5 -33.5 -17.5 -77.5 q0 -44 17.5 -78 q17.5 -34 48.5 -53 q31 -19 72 -19 Z" /><glyph glyph-name="oe" unicode="&#x153;" d="M326 -12 q-81 0 -147.5 37 q-66.5 37 -106 101.5 q-39.5 64.5 -39.5 146.5 q0 83 39.5 147 q39.5 64 106 101 q66.5 37 147.5 37 q50 0 95.5 -15 q45.5 -15 83 -42 q37.5 -27 63.5 -65 l-54 -1 q24 38 58.5 65.5 q34.5 27.5 78 42.5 q43.5 15 91.5 15 q65 0 115 -20.5 q50 -20.5 84.5 -57.5 q34.5 -37 52.5 -85.5 q18 -48.5 18 -105.5 q0 -16 -1.5 -31.5 q-1.5 -15.5 -5.5 -26.5 l-382 0 q5 -34 21.5 -59.5 q16.5 -25.5 44.5 -39.5 q28 -14 65 -14 q40 0 68.5 16 q28.5 16 44.5 44 l120 -57 q-16 -40 -50.5 -70 q-34.5 -30 -81.5 -46.5 q-47 -16.5 -103 -16.5 q-79 0 -140 33 q-61 33 -98 88 l54 1 q-26 -37 -63.5 -64.5 q-37.5 -27.5 -82.5 -42.5 q-45 -15 -96 -15 ZM326 123 q41 0 71.5 19 q30.5 19 48 53 q17.5 34 17.5 78 q0 44 -17.5 77.5 q-17.5 33.5 -48 53 q-30.5 19.5 -71.5 19.5 q-41 0 -72 -19.5 q-31 -19.5 -48.5 -53 q-17.5 -33.5 -17.5 -77.5 q0 -44 17.5 -78 q17.5 -34 48.5 -53 q31 -19 72 -19 ZM626 341 l227 0 q-3 29 -17.5 51 q-14.5 22 -38.5 34 q-24 12 -55 12 q-29 0 -53 -11 q-24 -11 -40 -32.5 q-16 -21.5 -23 -53.5 Z" /><glyph glyph-name="p" unicode="p" d="M55 -200 l0 746 l140 0 l0 -104 l-13 30 q27 41 73.5 63.5 q46.5 22.5 106.5 22.5 q78 0 141 -38 q63 -38 100 -102.5 q37 -64.5 37 -144.5 q0 -79 -36.5 -144 q-36.5 -65 -99.5 -103 q-63 -38 -143 -38 q-56 0 -103.5 20.5 q-47.5 20.5 -76.5 60.5 l24 31 l0 -300 l-150 0 ZM343 123 q42 0 74 19 q32 19 50 53 q18 34 18 78 q0 44 -18 77.5 q-18 33.5 -50 53 q-32 19.5 -74 19.5 q-40 0 -71.5 -19 q-31.5 -19 -49 -53 q-17.5 -34 -17.5 -78 q0 -44 17.5 -78 q17.5 -34 49 -53 q31.5 -19 71.5 -19 Z" /><glyph glyph-name="thorn" unicode="þ" d="M55 -200 l0 945 l140 0 l0 -303 l-13 30 q27 41 73.5 63.5 q46.5 22.5 106.5 22.5 q78 0 141 -38 q63 -38 100 -102.5 q37 -64.5 37 -144.5 q0 -79 -36.5 -144 q-36.5 -65 -99.5 -103 q-63 -38 -143 -38 q-56 0 -103.5 20.5 q-47.5 20.5 -76.5 60.5 l24 31 l0 -300 l-150 0 ZM343 123 q42 0 74 19 q32 19 50 53 q18 34 18 78 q0 44 -18 77.5 q-18 33.5 -50 53 q-32 19.5 -74 19.5 q-40 0 -71.5 -19 q-31.5 -19 -49 -53 q-17.5 -34 -17.5 -78 q0 -44 17.5 -78 q17.5 -34 49 -53 q31.5 -19 71.5 -19 Z" /><glyph glyph-name="q" unicode="q" d="M468 -200 l0 300 l24 -31 q-28 -40 -76 -60.5 q-48 -20.5 -104 -20.5 q-80 0 -143 38 q-63 38 -99.5 103 q-36.5 65 -36.5 144 q0 80 37 144.5 q37 64.5 100 102.5 q63 38 141 38 q60 0 106.5 -22.5 q46.5 -22.5 73.5 -63.5 l-13 -30 l0 104 l140 0 l0 -746 l-150 0 ZM330 123 q41 0 72 19 q31 19 48.5 53 q17.5 34 17.5 78 q0 44 -17.5 78 q-17.5 34 -48.5 53 q-31 19 -72 19 q-41 0 -73.5 -19.5 q-32.5 -19.5 -50.5 -53 q-18 -33.5 -18 -77.5 q0 -44 18 -78 q18 -34 50.5 -53 q32.5 -19 73.5 -19 Z" /><glyph glyph-name="r" unicode="r" d="M55 0 l0 546 l140 0 l0 -131 l-10 19 q18 69 59.5 93.5 q41.5 24.5 98.5 24.5 l32 0 l0 -130 l-47 0 q-55 0 -89 -33.5 q-34 -33.5 -34 -94.5 l0 -294 l-150 0 Z" /><glyph glyph-name="s" unicode="s" d="M269 -12 q-90 0 -156.5 42.5 q-66.5 42.5 -90.5 114.5 l110 52 q21 -44 57 -69 q36 -25 80 -25 q32 0 49 13 q17 13 17 36 q0 12 -6 20.5 q-6 8.5 -18 15.5 q-12 7 -30 12 l-93 26 q-67 19 -103 61.5 q-36 42.5 -36 100.5 q0 51 26 89 q26 38 73 59.5 q47 21.5 108 21.5 q80 0 140.5 -37.5 q60.5 -37.5 85.5 -105.5 l-111 -52 q-12 34 -43.5 54.5 q-31.5 20.5 -71.5 20.5 q-29 0 -45.5 -12 q-16.5 -12 -16.5 -33 q0 -11 6 -20 q6 -9 19.5 -16 q13.5 -7 33.5 -13 l87 -26 q68 -20 104 -60.5 q36 -40.5 36 -99.5 q0 -51 -26.5 -89 q-26.5 -38 -73.5 -59.5 q-47 -21.5 -111 -21.5 Z" /><glyph glyph-name="germandbls" unicode="ß" d="M66 -160 l0 650 q0 83 35 143 q35 60 96 92 q61 32 139 32 q77 0 134 -27.5 q57 -27.5 88.5 -76.5 q31.5 -49 31.5 -114 q0 -52 -30 -95.5 q-30 -43.5 -88 -63.5 l-8 43 q85 -27 121 -72 q36 -45 36 -119 q0 -71 -31 -123.5 q-31 -52.5 -88 -80.5 q-57 -28 -136 -28 l-70 0 l0 130 l60 0 q49 0 79.5 28 q30.5 28 30.5 74 q0 45 -30 71.5 q-30 26.5 -80 26.5 l-60 0 l0 130 l50 0 q26 0 46 10.5 q20 10.5 31.5 29.5 q11.5 19 11.5 42 q0 25 -12.5 44 q-12.5 19 -34.5 30 q-22 11 -52 11 q-36 0 -63 -16 q-27 -16 -42 -46.5 q-15 -30.5 -15 -74.5 l0 -650 l-150 0 Z" /><glyph glyph-name="t" unicode="t" d="M318 -6 q-99 0 -153.5 53.5 q-54.5 53.5 -54.5 149.5 l0 219 l-92 0 l0 130 l5 0 q42 0 64.5 21 q22.5 21 22.5 63 l0 40 l150 0 l0 -124 l128 0 l0 -130 l-128 0 l0 -209 q0 -28 10 -46.5 q10 -18.5 31 -27.5 q21 -9 52 -9 q7 0 16 1 q9 1 19 2 l0 -127 q-15 -2 -34 -4 q-19 -2 -36 -2 Z" /><glyph glyph-name="u" unicode="u" d="M251 -12 q-66 0 -112.5 28.5 q-46.5 28.5 -70.5 79.5 q-24 51 -24 119 l0 331 l150 0 l0 -319 q0 -31 12.5 -54.5 q12.5 -23.5 35.5 -36.5 q23 -13 52 -13 q30 0 52.5 13 q22.5 13 35 36.5 q12.5 23.5 12.5 54.5 l0 319 l150 0 l0 -546 l-140 0 l0 108 l8 -24 q-19 -49 -61.5 -72.5 q-42.5 -23.5 -99.5 -23.5 Z" /><glyph glyph-name="uhorn" unicode="&#x1b0;" d="M251 -12 q-66 0 -112.5 28.5 q-46.5 28.5 -70.5 79.5 q-24 51 -24 119 l0 331 l150 0 l0 -319 q0 -31 12.5 -54.5 q12.5 -23.5 35.5 -36.5 q23 -13 52 -13 q30 0 52.5 13 q22.5 13 35 36.5 q12.5 23.5 12.5 54.5 l0 319 l111 0 q11 0 25.5 8 q14.5 8 14.5 41 q0 16 -6 36.5 q-6 20.5 -14 39.5 l126 0 q10 -21 16.5 -41.5 q6.5 -20.5 6.5 -47.5 q0 -80 -52 -112.5 q-52 -32.5 -133 -25.5 l55 70 l0 -514 l-140 0 l0 66 q-21 -40 -61 -59 q-40 -19 -92 -19 Z" /><glyph glyph-name="v" unicode="v" d="M226 0 l-215 546 l162 0 l149 -413 l-62 0 l149 413 l162 0 l-215 -546 l-130 0 Z" /><glyph glyph-name="w" unicode="w" d="M199 0 l-188 546 l155 0 l132 -394 l-54 1 l147 393 l130 0 l146 -393 l-54 -1 l132 394 l156 0 l-189 -546 l-130 0 l-152 422 l52 0 l-153 -422 l-130 0 Z" /><glyph glyph-name="x" unicode="x" d="M12 0 l191 274 l-192 272 l174 0 l144 -212 l-76 0 l144 212 l174 0 l-192 -272 l190 -274 l-173 0 l-141 212 l72 0 l-141 -212 l-174 0 Z" /><glyph glyph-name="y" unicode="y" d="M140 -222 q-24 0 -46.5 4 q-22.5 4 -39.5 13 l0 123 q14 -4 33 -7 q19 -3 35 -3 q44 0 63 21 q19 21 31 48 l37 85 l-2 -125 l-240 609 l161 0 l159 -433 l-60 0 l159 433 l161 0 l-234 -597 q-22 -57 -54 -95 q-32 -38 -72.5 -57 q-40.5 -19 -90.5 -19 Z" /><glyph glyph-name="z" unicode="z" d="M11 0 l0 120 l314 346 l22 -50 l-323 0 l0 130 l456 0 l0 -120 l-306 -347 l-22 51 l329 0 l0 -130 l-470 0 Z" /><glyph glyph-name="fi" unicode="&#xfb01;" d="M121 0 l0 416 l-92 0 l0 130 l92 0 l0 8 q0 65 25.5 110 q25.5 45 73.5 69 q48 24 116 24 q13 0 28 -1.5 q15 -1.5 25 -3.5 l0 -128 q-10 2 -17.5 2.5 q-7.5 0.5 -15.5 0.5 q-42 0 -63.5 -18.5 q-21.5 -18.5 -21.5 -54.5 l0 -8 l217 0 l0 -130 l-217 0 l0 -416 l-150 0 ZM444 0 l0 546 l150 0 l0 -546 l-150 0 Z" /><glyph glyph-name="fl" unicode="&#xfb02;" d="M121 0 l0 416 l-92 0 l0 130 l92 0 l0 8 q0 65 25.5 110 q25.5 45 73.5 69 q48 24 116 24 q13 0 28 -1.5 q15 -1.5 25 -3.5 l0 -128 q-10 2 -17.5 2.5 q-7.5 0.5 -15.5 0.5 q-42 0 -63.5 -18.5 q-21.5 -18.5 -21.5 -54.5 l0 -8 l217 0 l0 -130 l-217 0 l0 -416 l-150 0 ZM465 0 l0 757 l150 0 l0 -757 l-150 0 Z" /><glyph glyph-name="ordfeminine" unicode="ª" d="M169 353 q-63 0 -99.5 30 q-36.5 30 -36.5 82 q0 50 34.5 81.5 q34.5 31.5 103.5 42.5 l112 18 l0 -84 l-91 -17 q-18 -4 -28.5 -11.5 q-10.5 -7.5 -10.5 -25.5 q0 -15 11 -23.5 q11 -8.5 29 -8.5 q23 0 40.5 10.5 q17.5 10.5 27.5 27.5 q10 17 10 38 l0 100 q0 19 -15.5 32.5 q-15.5 13.5 -41.5 13.5 q-28 0 -48.5 -16 q-20.5 -16 -28.5 -39 l-92 43 q17 50 64.5 79 q47.5 29 109.5 29 q74 0 121 -39.5 q47 -39.5 47 -102.5 l0 -251 l-108 0 l0 59 l28 5 q-27 -38 -59.5 -55.5 q-32.5 -17.5 -78.5 -17.5 Z" /><glyph glyph-name="ordmasculine" unicode="º" d="M241 353 q-57 0 -104 26 q-47 26 -75.5 71.5 q-28.5 45.5 -28.5 103.5 q0 58 28.5 103.5 q28.5 45.5 75.5 71.5 q47 26 104 26 q57 0 104 -26 q47 -26 75 -71.5 q28 -45.5 28 -103.5 q0 -58 -28 -103.5 q-28 -45.5 -75 -71.5 q-47 -26 -104 -26 ZM242 457 q26 0 45.5 12.5 q19.5 12.5 30 34.5 q10.5 22 10.5 50 q0 29 -11 50.5 q-11 21.5 -30.5 34 q-19.5 12.5 -45.5 12.5 q-26 0 -46 -12.5 q-20 -12.5 -31 -34.5 q-11 -22 -11 -50 q0 -28 11 -50 q11 -22 31 -34.5 q20 -12.5 47 -12.5 Z" /><glyph glyph-name="uni0394" unicode="&#x394;" d="M11 0 l0 135 l206 610 l206 0 l206 -610 l0 -135 l-618 0 ZM156 71 l-46 64 l419 0 l-46 -64 l-184 567 l42 0 l-185 -567 Z" /><glyph glyph-name="uni03A9" unicode="&#x3a9;" d="M44 0 l0 135 l171 0 l-32 -29 q-64 46 -101.5 117 q-37.5 71 -37.5 150 q0 82 29.5 152 q29.5 70 83 122 q53.5 52 125.5 81 q72 29 157 29 q85 0 157 -29 q72 -29 125.5 -81 q53.5 -52 83 -122 q29.5 -70 29.5 -152 q0 -79 -37 -150 q-37 -71 -102 -117 l-32 29 l171 0 l0 -135 l-319 0 l0 135 q49 15 85.5 49 q36.5 34 57.5 82.5 q21 48.5 21 106.5 q0 54 -18 98.5 q-18 44.5 -51 77.5 q-33 33 -76.5 50.5 q-43.5 17.5 -94.5 17.5 q-51 0 -94.5 -17.5 q-43.5 -17.5 -76.5 -50.5 q-33 -33 -51 -77.5 q-18 -44.5 -18 -98.5 q0 -58 21 -106.5 q21 -48.5 58 -82.5 q37 -34 85 -49 l0 -135 l-319 0 Z" /><glyph glyph-name="pi" unicode="&#x3c0;" d="M108 0 l0 416 l-90 0 l0 130 l658 0 l0 -130 l-88 0 l0 -416 l-150 0 l0 416 l-180 0 l0 -416 l-150 0 Z" /><glyph glyph-name="zero" unicode="0" d="M350 -12 q-89 0 -156.5 48 q-67.5 48 -105.5 135 q-38 87 -38 202 q0 116 37.5 202 q37.5 86 105 134 q67.5 48 156.5 48 q91 0 158.5 -48 q67.5 -48 105 -134.5 q37.5 -86.5 37.5 -201.5 q0 -115 -37.5 -201.5 q-37.5 -86.5 -105 -135 q-67.5 -48.5 -157.5 -48.5 ZM351 128 q46 0 78 29 q32 29 49 84 q17 55 17 132 q0 77 -17 131.5 q-17 54.5 -49.5 83.5 q-32.5 29 -79.5 29 q-46 0 -78 -29 q-32 -29 -49 -83.5 q-17 -54.5 -17 -131.5 q0 -76 17 -131 q17 -55 49.5 -84.5 q32.5 -29.5 79.5 -29.5 Z" /><glyph glyph-name="one" unicode="1" d="M170 0 l0 614 l-145 0 l0 131 l300 0 l0 -745 l-155 0 Z" /><glyph glyph-name="two" unicode="2" d="M42 0 l0 120 l200 206 q59 61 89.5 96.5 q30.5 35.5 42 59.5 q11.5 24 11.5 47 q0 41 -26.5 64.5 q-26.5 23.5 -66.5 23.5 q-41 0 -73 -23.5 q-32 -23.5 -47 -71.5 l-135 44 q12 58 50 101 q38 43 92 66.5 q54 23.5 113 23.5 q74 0 130 -26 q56 -26 87 -73 q31 -47 31 -110 q0 -40 -14 -78.5 q-14 -38.5 -42.5 -78 q-28.5 -39.5 -73.5 -85.5 l-171 -176 l308 0 l0 -130 l-505 0 Z" /><glyph glyph-name="three" unicode="3" d="M292 -12 q-62 0 -118 23.5 q-56 23.5 -95 66.5 q-39 43 -52 101 l137 46 q17 -48 50 -72.5 q33 -24.5 78 -24.5 q37 0 63.5 14 q26.5 14 41.5 39.5 q15 25.5 15 59.5 q0 34 -14.5 58.5 q-14.5 24.5 -41 38 q-26.5 13.5 -64.5 13.5 q-22 0 -44 -5 q-22 -5 -40 -14 l-36 75 l191 208 l-291 0 l0 130 l465 0 l0 -120 l-196 -223 l5 63 q67 0 116.5 -27.5 q49.5 -27.5 77 -76.5 q27.5 -49 27.5 -114 q0 -74 -36 -133 q-36 -59 -98 -92.5 q-62 -33.5 -141 -33.5 Z" /><glyph glyph-name="four" unicode="4" d="M362 0 l0 160 l-330 0 l0 130 l320 455 l165 0 l0 -455 l115 0 l0 -130 l-115 0 l0 -160 l-155 0 ZM145 234 l-29 56 l246 0 l0 335 l39 -12 l-256 -379 Z" /><glyph glyph-name="five" unicode="5" d="M295 -12 q-59 0 -114 22.5 q-55 22.5 -94 64 q-39 41.5 -51 99.5 l137 46 q15 -48 48 -70 q33 -22 74 -22 q35 0 61 14.5 q26 14.5 40.5 41 q14.5 26.5 14.5 61.5 q0 35 -14.5 61 q-14.5 26 -40.5 40.5 q-26 14.5 -61 14.5 q-36 0 -64 -15.5 q-28 -15.5 -41 -47.5 l-127 30 l60 417 l416 0 l0 -130 l-353 0 l58 70 l-41 -310 l-42 37 q25 41 63.5 60 q38.5 19 99.5 19 q75 0 129 -31.5 q54 -31.5 83.5 -86.5 q29.5 -55 29.5 -128 q0 -73 -35.5 -131.5 q-35.5 -58.5 -96.5 -92 q-61 -33.5 -139 -33.5 Z" /><glyph glyph-name="six" unicode="6" d="M302 -12 q-77 0 -137 32.5 q-60 32.5 -94 88.5 q-34 56 -34 126 q0 35 7 70 q7 35 28 77 q21 42 63 96 l207 267 l185 0 l-251 -321 l-25 35 q14 7 27 11 q13 4 25.5 6 q12.5 2 26.5 2 q69 0 122.5 -31 q53.5 -31 84 -84.5 q30.5 -53.5 30.5 -120.5 q0 -73 -34 -130.5 q-34 -57.5 -93.5 -90.5 q-59.5 -33 -137.5 -33 ZM302 128 q31 0 55.5 14 q24.5 14 39.5 39.5 q15 25.5 15 58.5 q0 34 -15 58.5 q-15 24.5 -39.5 38.5 q-24.5 14 -55.5 14 q-30 0 -55 -14 q-25 -14 -40 -38.5 q-15 -24.5 -15 -58.5 q0 -33 15 -58.5 q15 -25.5 40 -39.5 q25 -14 55 -14 Z" /><glyph glyph-name="seven" unicode="7" d="M70 0 l301 615 l-344 0 l0 130 l507 0 l0 -130 l-292 -615 l-172 0 Z" /><glyph glyph-name="eight" unicode="8" d="M316 -12 q-84 0 -144.5 31 q-60.5 31 -92.5 83 q-32 52 -32 113 q0 73 38.5 122 q38.5 49 113.5 74 l-10 -38 q-53 16 -84.5 66 q-31.5 50 -31.5 111 q0 60 31 107 q31 47 86 73.5 q55 26.5 126 26.5 q71 0 125.5 -26.5 q54.5 -26.5 86 -73.5 q31.5 -47 31.5 -107 q0 -61 -31 -111 q-31 -50 -85 -67 l-9 40 q75 -28 114 -76.5 q39 -48.5 39 -121.5 q0 -61 -32.5 -112.5 q-32.5 -51.5 -93.5 -82.5 q-61 -31 -145 -31 ZM316 118 q35 0 61 13 q26 13 40.5 36 q14.5 23 14.5 53 q0 31 -14.5 53.5 q-14.5 22.5 -40.5 35 q-26 12.5 -61 12.5 q-34 0 -59.5 -12.5 q-25.5 -12.5 -40 -35 q-14.5 -22.5 -14.5 -53.5 q0 -30 14.5 -53 q14.5 -23 40 -36 q25.5 -13 59.5 -13 ZM316 451 q27 0 46.5 12 q19.5 12 30.5 32 q11 20 11 44 q0 25 -11 45 q-11 20 -30.5 31.5 q-19.5 11.5 -46.5 11.5 q-26 0 -46 -11.5 q-20 -11.5 -31 -31.5 q-11 -20 -11 -45 q0 -24 11 -44 q11 -20 31 -32 q20 -12 46 -12 Z" /><glyph glyph-name="nine" unicode="9" d="M77 0 l251 321 l25 -35 q-14 -6 -26.5 -10.5 q-12.5 -4.5 -25.5 -6.5 q-13 -2 -27 -2 q-69 0 -122.5 31 q-53.5 31 -84 84.5 q-30.5 53.5 -30.5 120.5 q0 74 34 131 q34 57 94 90 q60 33 137 33 q78 0 137.5 -32.5 q59.5 -32.5 93.5 -88 q34 -55.5 34 -126.5 q0 -35 -7 -70 q-7 -35 -28 -76.5 q-21 -41.5 -63 -96.5 l-207 -267 l-185 0 ZM302 394 q31 0 55.5 14 q24.5 14 39.5 39 q15 25 15 58 q0 34 -15 59 q-15 25 -39.5 39 q-24.5 14 -55.5 14 q-30 0 -55 -14 q-25 -14 -40 -39 q-15 -25 -15 -59 q0 -33 15 -58 q15 -25 40 -39 q25 -14 55 -14 Z" /><glyph glyph-name="uni2080" unicode="&#x2080;" d="M233 -9 q-62 0 -110 34 q-48 34 -74.5 95 q-26.5 61 -26.5 141 q0 81 26.5 141.5 q26.5 60.5 74 94 q47.5 33.5 110.5 33.5 q64 0 111 -33.5 q47 -33.5 73.5 -94 q26.5 -60.5 26.5 -141.5 q0 -80 -26.5 -141 q-26.5 -61 -73.5 -95 q-47 -34 -111 -34 ZM233 99 q30 0 51 19.5 q21 19.5 31.5 55.5 q10.5 36 10.5 87 q0 51 -10.5 87 q-10.5 36 -31.5 55 q-21 19 -51 19 q-29 0 -49.5 -19 q-20.5 -19 -31 -54.5 q-10.5 -35.5 -10.5 -87.5 q0 -50 10.5 -86.5 q10.5 -36.5 31 -56 q20.5 -19.5 49.5 -19.5 Z" /><glyph glyph-name="uni2081" unicode="&#x2081;" d="M116 0 l0 421 l-102 0 l0 100 l221 0 l0 -521 l-119 0 Z" /><glyph glyph-name="uni2082" unicode="&#x2082;" d="M17 0 l0 93 l140 143 q35 36 56 59.5 q21 23.5 30 40 q9 16.5 9 31.5 q0 25 -17 40 q-17 15 -41 15 q-25 0 -45.5 -14.5 q-20.5 -14.5 -30.5 -44.5 l-104 34 q9 41 36 71 q27 30 65.5 46 q38.5 16 78.5 16 q53 0 93 -18.5 q40 -18.5 62 -51.5 q22 -33 22 -77 q0 -45 -23 -83.5 q-23 -38.5 -64 -80.5 l-116 -119 l207 0 l0 -100 l-358 0 Z" /><glyph glyph-name="uni2083" unicode="&#x2083;" d="M198 -9 q-44 0 -84 17 q-40 17 -67.5 47.5 q-27.5 30.5 -36.5 70.5 l105 35 q12 -31 33.5 -46 q21.5 -15 49.5 -15 q35 0 55.5 19 q20.5 19 20.5 52 q0 31 -19.5 50 q-19.5 19 -56.5 19 q-36 0 -63 -15 l-28 58 l132 139 l-195 0 l0 99 l328 0 l0 -92 l-137 -151 l5 49 q47 0 81.5 -19 q34.5 -19 53 -53.5 q18.5 -34.5 18.5 -79.5 q0 -52 -25.5 -94 q-25.5 -42 -69.5 -66 q-44 -24 -100 -24 Z" /><glyph glyph-name="uni2084" unicode="&#x2084;" d="M253 0 l0 110 l-225 0 l0 101 l216 310 l129 0 l0 -311 l83 0 l0 -100 l-83 0 l0 -110 l-120 0 ZM114 167 l-23 43 l162 0 l0 220 l29 -9 l-168 -254 Z" /><glyph glyph-name="uni2085" unicode="&#x2085;" d="M205 -9 q-41 0 -80 16 q-39 16 -66.5 45.5 q-27.5 29.5 -35.5 69.5 l106 35 q10 -31 30.5 -44 q20.5 -13 45.5 -13 q32 0 53 19.5 q21 19.5 21 53.5 q0 22 -9 38 q-9 16 -25.5 25.5 q-16.5 9.5 -39.5 9.5 q-20 0 -39 -9 q-19 -9 -27 -33 l-98 24 l43 293 l296 0 l0 -99 l-248 0 l45 55 l-29 -215 l-32 28 q17 29 43.5 42 q26.5 13 69.5 13 q53 0 90.5 -21.5 q37.5 -21.5 58 -60.5 q20.5 -39 20.5 -90 q0 -52 -25 -93 q-25 -41 -68.5 -65 q-43.5 -24 -99.5 -24 Z" /><glyph glyph-name="uni2086" unicode="&#x2086;" d="M211 -9 q-55 0 -98 23 q-43 23 -67 62.5 q-24 39.5 -24 88.5 q0 43 15 81 q15 38 54 88 l145 187 l142 0 l-173 -219 l-18 29 q14 2 23 4 q9 2 22 2 q49 0 86.5 -22 q37.5 -22 59 -59.5 q21.5 -37.5 21.5 -83.5 q0 -52 -24 -93 q-24 -41 -66 -64.5 q-42 -23.5 -98 -23.5 ZM211 100 q28 0 48.5 19 q20.5 19 20.5 51 q0 32 -20.5 50.5 q-20.5 18.5 -48.5 18.5 q-28 0 -49 -18.5 q-21 -18.5 -21 -50.5 q0 -32 21 -51 q21 -19 49 -19 Z" /><glyph glyph-name="uni2087" unicode="&#x2087;" d="M42 0 l206 422 l-237 0 l0 100 l362 0 l0 -100 l-198 -422 l-133 0 Z" /><glyph glyph-name="uni2088" unicode="&#x2088;" d="M222 -9 q-60 0 -102.5 22.5 q-42.5 22.5 -65.5 58.5 q-23 36 -23 78 q0 52 27 85 q27 33 80 52 l-9 -30 q-37 11 -59 47 q-22 36 -22 79 q0 43 22.5 76 q22.5 33 61.5 52 q39 19 90 19 q51 0 90.5 -19 q39.5 -19 62 -52 q22.5 -33 22.5 -76 q0 -43 -22 -79 q-22 -36 -60 -47 l-7 30 q54 -20 80.5 -53.5 q26.5 -33.5 26.5 -83.5 q0 -42 -23 -78.5 q-23 -36.5 -66 -58.5 q-43 -22 -104 -22 ZM222 91 q32 0 53 18 q21 18 21 46 q0 28 -20.5 45 q-20.5 17 -53.5 17 q-32 0 -51.5 -17 q-19.5 -17 -19.5 -45 q0 -28 20 -46 q20 -18 51 -18 ZM222 317 q26 0 41 17 q15 17 15 39 q0 24 -15 40.5 q-15 16.5 -41 16.5 q-25 0 -40.5 -16.5 q-15.5 -16.5 -15.5 -40.5 q0 -22 15.5 -39 q15.5 -17 40.5 -17 Z" /><glyph glyph-name="uni2089" unicode="&#x2089;" d="M43 0 l173 220 l18 -29 q-18 -3 -29 -4.5 q-11 -1.5 -26 -1.5 q-45 0 -80.5 22 q-35.5 22 -56 59.5 q-20.5 37.5 -20.5 83.5 q0 52 24 92.5 q24 40.5 67 64 q43 23.5 98 23.5 q55 0 97.5 -23 q42.5 -23 66.5 -62 q24 -39 24 -88 q0 -37 -12 -75.5 q-12 -38.5 -56 -94.5 l-146 -187 l-142 0 ZM211 282 q29 0 49 19 q20 19 20 50 q0 32 -20 51.5 q-20 19.5 -49 19.5 q-28 0 -49 -19.5 q-21 -19.5 -21 -51.5 q0 -31 21 -50 q21 -19 49 -19 Z" /><glyph glyph-name="fraction" unicode="&#x2044;" d="M-173 0 l446 745 l97 0 l-446 -745 l-97 0 Z" /><glyph glyph-name="period" unicode="." d="M129 0 l0 150 l150 0 l0 -150 l-150 0 Z" /><glyph glyph-name="comma" unicode="," d="M110 -165 l0 75 q35 8 57.5 30.5 q22.5 22.5 29.5 59.5 l-67 0 l0 150 l150 0 l0 -87 q0 -95 -43 -153 q-43 -58 -127 -75 Z" /><glyph glyph-name="colon" unicode=":" d="M129 0 l0 150 l150 0 l0 -150 l-150 0 ZM129 396 l0 150 l150 0 l0 -150 l-150 0 Z" /><glyph glyph-name="semicolon" unicode=";" d="M129 -165 l0 75 q35 8 57.5 30.5 q22.5 22.5 29.5 59.5 l-67 0 l0 150 l150 0 l0 -87 q0 -95 -43 -153 q-43 -58 -127 -75 ZM149 396 l0 150 l150 0 l0 -150 l-150 0 Z" /><glyph glyph-name="exclam" unicode="!" d="M135 230 l-10 515 l150 0 l-10 -515 l-130 0 ZM125 0 l0 150 l150 0 l0 -150 l-150 0 Z" /><glyph glyph-name="exclamdown" unicode="¡" d="M125 -199 l10 515 l130 0 l10 -515 l-150 0 ZM125 396 l0 150 l150 0 l0 -150 l-150 0 Z" /><glyph glyph-name="question" unicode="?" d="M225 230 l0 23 q0 44 12.5 77.5 q12.5 33.5 32.5 59.5 q20 26 41 47 q29 29 52 52.5 q23 23.5 23 54.5 q0 21 -10 37.5 q-10 16.5 -29.5 26 q-19.5 9.5 -48.5 9.5 q-37 0 -64.5 -22.5 q-27.5 -22.5 -33.5 -60.5 l-139 35 q9 56 41.5 98 q32.5 42 84 66 q51.5 24 115.5 24 q78 0 131.5 -30.5 q53.5 -30.5 80.5 -78 q27 -47.5 27 -100.5 q0 -38 -14.5 -67.5 q-14.5 -29.5 -36.5 -54 q-22 -24.5 -46 -47.5 q-31 -29 -55 -61 q-24 -32 -24 -75 l0 -13 l-140 0 ZM221 0 l0 150 l150 0 l0 -150 l-150 0 Z" /><glyph glyph-name="questiondown" unicode="¿" d="M309 -211 q-78 0 -131 30.5 q-53 30.5 -80.5 78.5 q-27.5 48 -27.5 100 q0 38 14.5 67.5 q14.5 29.5 37 54 q22.5 24.5 45.5 47.5 q31 29 55 61 q24 32 24 75 l0 13 l140 0 l0 -23 q0 -44 -12.5 -77.5 q-12.5 -33.5 -32.5 -59 q-20 -25.5 -41 -47.5 q-28 -29 -51.5 -52 q-23.5 -23 -23.5 -55 q0 -21 10 -37.5 q10 -16.5 30 -26 q20 -9.5 48 -9.5 q38 0 65 22.5 q27 22.5 33 60.5 l139 -35 q-8 -55 -41 -97.5 q-33 -42.5 -84 -66.5 q-51 -24 -116 -24 ZM240 396 l0 150 l150 0 l0 -150 l-150 0 Z" /><glyph glyph-name="periodcentered" unicode="·" d="M129 198 l0 150 l150 0 l0 -150 l-150 0 Z" /><glyph glyph-name="bullet" unicode="&#x2022;" d="M353 48 q-64 0 -114.5 29 q-50.5 29 -80 80 q-29.5 51 -29.5 115 q0 61 29 109.5 q29 48.5 79.5 77.5 q50.5 29 115.5 29 q61 0 109 -29 q48 -29 77 -78 q29 -49 30 -109 q0 -64 -29 -115 q-29 -51 -77.5 -80 q-48.5 -29 -109.5 -29 Z" /><glyph glyph-name="asterisk" unicode="*" d="M211 358 l-88 64 l69 94 l-111 38 l34 103 l110 -37 l0 125 l110 0 l0 -125 l110 37 l34 -103 l-111 -38 l69 -94 l-88 -64 l-69 94 l-69 -94 Z" /><glyph glyph-name="numbersign" unicode="#" d="M146 0 l44 153 l-120 0 l0 130 l157 0 l52 180 l-120 0 l0 130 l157 0 l44 152 l150 0 l-44 -152 l150 0 l43 152 l150 0 l-43 -152 l120 0 l0 -130 l-158 0 l-51 -180 l120 0 l0 -130 l-158 0 l-43 -153 l-150 0 l43 153 l-149 0 l-44 -153 l-150 0 ZM377 283 l150 0 l51 180 l-149 0 l-52 -180 Z" /><glyph glyph-name="slash" unicode="/" d="M20 -120 l330 825 l162 0 l-330 -825 l-162 0 Z" /><glyph glyph-name="backslash" unicode="\" d="M350 -120 l-330 825 l162 0 l330 -825 l-162 0 Z" /><glyph glyph-name="uni208D" unicode="&#x208d;" d="M191 -131 q-59 70 -90.5 151 q-31.5 81 -31.5 175 q0 95 30.5 176 q30.5 81 91.5 151 l95 0 q-49 -79 -73 -160 q-24 -81 -24 -167 q0 -86 24 -167.5 q24 -81.5 73 -158.5 l-95 0 Z" /><glyph glyph-name="uni208E" unicode="&#x208e;" d="M42 -131 q49 77 73 159 q24 82 24 167 q0 89 -24.5 170 q-24.5 81 -72.5 157 l95 0 q62 -72 92 -154 q30 -82 30 -173 q0 -88 -29 -169.5 q-29 -81.5 -93 -156.5 l-95 0 Z" /><glyph glyph-name="parenleft" unicode="(" d="M240 -180 q-85 101 -128 216.5 q-43 115.5 -43 246.5 q0 131 42.5 246.5 q42.5 115.5 128.5 215.5 l125 0 q-71 -110 -106 -224.5 q-35 -114.5 -35 -237.5 q0 -123 35.5 -238.5 q35.5 -115.5 105.5 -224.5 l-125 0 Z" /><glyph glyph-name="parenright" unicode=")" d="M42 -180 q71 109 106 224.5 q35 115.5 35 238.5 q0 123 -35 237.5 q-35 114.5 -106 224.5 l125 0 q86 -100 128.5 -215.5 q42.5 -115.5 42.5 -246.5 q0 -131 -42.5 -246.5 q-42.5 -115.5 -128.5 -216.5 l-125 0 Z" /><glyph glyph-name="braceleft" unicode="{" d="M316 -180 q-91 0 -139.5 44 q-48.5 44 -48.5 123 l0 170 q0 26 -12.5 40 q-12.5 14 -35.5 14 l-32 0 l0 130 l32 0 q23 0 35.5 14.5 q12.5 14.5 12.5 39.5 l0 183 q0 79 48.5 123 q48.5 44 139.5 44 l50 0 l0 -130 l-50 0 q-18 0 -28 -10.5 q-10 -10.5 -10 -30.5 l0 -165 q0 -43 -16.5 -77 q-16.5 -34 -46.5 -54 q30 -17 46.5 -49.5 q16.5 -32.5 16.5 -73.5 l0 -164 q0 -19 10 -30 q10 -11 28 -11 l50 0 l0 -130 l-50 0 Z" /><glyph glyph-name="braceright" unicode="}" d="M59 -180 l0 130 l50 0 q18 0 28 11 q10 11 10 30 l0 164 q0 41 16.5 73.5 q16.5 32.5 46.5 49.5 q-30 20 -46.5 54 q-16.5 34 -16.5 77 l0 165 q0 20 -10 30.5 q-10 10.5 -28 10.5 l-50 0 l0 130 l50 0 q91 0 139.5 -44 q48.5 -44 48.5 -123 l0 -183 q0 -25 13 -39.5 q13 -14.5 35 -14.5 l32 0 l0 -130 l-32 0 q-22 0 -35 -14 q-13 -14 -13 -40 l0 -170 q0 -79 -48.5 -123 q-48.5 -44 -139.5 -44 l-50 0 Z" /><glyph glyph-name="bracketleft" unicode="[" d="M110 -180 l0 925 l280 0 l0 -130 l-130 0 l0 -665 l130 0 l0 -130 l-280 0 Z" /><glyph glyph-name="bracketright" unicode="]" d="M59 -180 l0 130 l130 0 l0 665 l-130 0 l0 130 l280 0 l0 -925 l-280 0 Z" /><glyph glyph-name="uni207D" unicode="&#x207d;" d="M191 92 q-59 70 -90.5 151 q-31.5 81 -31.5 175 q0 95 30.5 176 q30.5 81 91.5 151 l95 0 q-49 -79 -73 -160 q-24 -81 -24 -167 q0 -86 24 -167.5 q24 -81.5 73 -158.5 l-95 0 Z" /><glyph glyph-name="uni207E" unicode="&#x207e;" d="M42 92 q49 77 73 159 q24 82 24 167 q0 89 -24.5 170 q-24.5 81 -72.5 157 l95 0 q62 -72 92 -154 q30 -82 30 -173 q0 -88 -29 -169.5 q-29 -81.5 -93 -156.5 l-95 0 Z" /><glyph glyph-name="hyphen" unicode="-" d="M92 208 l0 130 l450 0 l0 -130 l-450 0 Z" /><glyph glyph-name="uni00AD" unicode="­" d="M92 208 l0 130 l450 0 l0 -130 l-450 0 Z" /><glyph glyph-name="endash" unicode="&#x2013;" d="M92 208 l0 130 l500 0 l0 -130 l-500 0 Z" /><glyph glyph-name="emdash" unicode="&#x2014;" d="M92 208 l0 130 l830 0 l0 -130 l-830 0 Z" /><glyph glyph-name="underscore" unicode="_" d="M92 -130 l0 130 l500 0 l0 -130 l-500 0 Z" /><glyph glyph-name="quotesinglbase" unicode="&#x201a;" d="M110 -155 l0 75 q35 8 57.5 29.5 q22.5 21.5 29.5 50.5 l-67 0 l0 150 l150 0 l0 -87 q0 -88 -43 -144.5 q-43 -56.5 -127 -73.5 Z" /><glyph glyph-name="quotedblbase" unicode="&#x201e;" d="M110 -155 l0 75 q35 8 57.5 29.5 q22.5 21.5 29.5 50.5 l-67 0 l0 150 l150 0 l0 -87 q0 -88 -43 -144.5 q-43 -56.5 -127 -73.5 ZM330 -155 l0 75 q35 8 57.5 29.5 q22.5 21.5 29.5 50.5 l-67 0 l0 150 l150 0 l0 -87 q0 -88 -43 -144.5 q-43 -56.5 -127 -73.5 Z" /><glyph glyph-name="quotedblleft" unicode="&#x201c;" d="M330 452 l0 87 q0 88 43 144.5 q43 56.5 127 73.5 l0 -75 q-35 -8 -57.5 -29.5 q-22.5 -21.5 -29.5 -50.5 l67 0 l0 -150 l-150 0 ZM110 452 l0 87 q0 88 43 144.5 q43 56.5 127 73.5 l0 -75 q-35 -8 -57.5 -29.5 q-22.5 -21.5 -29.5 -50.5 l67 0 l0 -150 l-150 0 Z" /><glyph glyph-name="quotedblright" unicode="&#x201d;" d="M330 440 l0 75 q35 8 57.5 29.5 q22.5 21.5 29.5 50.5 l-67 0 l0 150 l150 0 l0 -87 q0 -88 -43 -144.5 q-43 -56.5 -127 -73.5 ZM110 440 l0 75 q35 8 57.5 29.5 q22.5 21.5 29.5 50.5 l-67 0 l0 150 l150 0 l0 -87 q0 -88 -43 -144.5 q-43 -56.5 -127 -73.5 Z" /><glyph glyph-name="quoteleft" unicode="&#x2018;" d="M110 452 l0 87 q0 88 43 144.5 q43 56.5 127 73.5 l0 -75 q-35 -8 -57.5 -29.5 q-22.5 -21.5 -29.5 -50.5 l67 0 l0 -150 l-150 0 Z" /><glyph glyph-name="quoteright" unicode="&#x2019;" d="M110 440 l0 75 q35 8 57.5 29.5 q22.5 21.5 29.5 50.5 l-67 0 l0 150 l150 0 l0 -87 q0 -88 -43 -144.5 q-43 -56.5 -127 -73.5 Z" /><glyph glyph-name="guillemotleft" unicode="«" d="M204 69 l-154 200 l154 200 l163 0 l-152 -200 l152 -200 l-163 0 ZM504 69 l-154 200 l154 200 l163 0 l-152 -200 l152 -200 l-163 0 Z" /><glyph glyph-name="guillemotright" unicode="»" d="M351 69 l152 200 l-152 200 l163 0 l154 -200 l-154 -200 l-163 0 ZM51 69 l152 200 l-152 200 l163 0 l154 -200 l-154 -200 l-163 0 Z" /><glyph glyph-name="guilsinglleft" unicode="&#x2039;" d="M204 69 l-154 200 l154 200 l163 0 l-152 -200 l152 -200 l-163 0 Z" /><glyph glyph-name="guilsinglright" unicode="&#x203a;" d="M51 69 l152 200 l-152 200 l163 0 l154 -200 l-154 -200 l-163 0 Z" /><glyph glyph-name="quotedbl" unicode="&quot;" d="M119 440 l-18 305 l130 0 l-17 -305 l-95 0 ZM318 440 l-18 305 l130 0 l-17 -305 l-95 0 Z" /><glyph glyph-name="quotesingle" unicode="&#39;" d="M119 440 l-18 305 l130 0 l-17 -305 l-95 0 Z" /><glyph glyph-name="uni2003" unicode="&#x2003;" d="" /><glyph glyph-name="uni2002" unicode="&#x2002;" d="" /><glyph glyph-name="uni2007" unicode="&#x2007;" d="" /><glyph glyph-name="uni200A" unicode="&#x200a;" d="" /><glyph glyph-name="uni2008" unicode="&#x2008;" d="" /><glyph glyph-name="space" unicode=" " d="" /><glyph glyph-name="uni00A0" unicode=" " d="" /><glyph glyph-name="uni2009" unicode="&#x2009;" d="" /><glyph glyph-name="uni200B" unicode="&#x200b;" d="" /><glyph glyph-name="CR" unicode="" d="" /><glyph glyph-name="uni20B3" unicode="&#x20b3;" d="M11 0 l252 745 l206 0 l252 -745 l-169 0 l-207 639 l42 0 l-208 -639 l-168 0 ZM11 178 l0 90 l710 0 l0 -90 l-710 0 ZM11 318 l0 90 l710 0 l0 -90 l-710 0 Z" /><glyph glyph-name="uni0E3F" unicode="&#xe3f;" d="M66 0 l0 745 l315 0 q77 0 132 -26 q55 -26 84 -74.5 q29 -48.5 29 -117.5 q0 -49 -27 -93.5 q-27 -44.5 -89 -74.5 l0 76 q59 -23 91 -55 q32 -32 44 -69.5 q12 -37.5 12 -78.5 q0 -110 -73 -171 q-73 -61 -203 -61 l-315 0 ZM221 135 l178 0 q47 0 75 27 q28 27 28 70 q0 44 -28 71 q-28 27 -75 27 l-178 0 l0 -195 ZM221 465 l171 0 q36 0 57.5 20.5 q21.5 20.5 21.5 54.5 q0 34 -21.5 54.5 q-21.5 20.5 -57.5 20.5 l-171 0 l0 -150 ZM300 -100 l0 945 l90 0 l0 -945 l-90 0 Z" /><glyph glyph-name="uni20BF" unicode="&#x20bf;" d="M66 0 l0 745 l315 0 q77 0 132 -26 q55 -26 84 -74.5 q29 -48.5 29 -117.5 q0 -49 -27 -93.5 q-27 -44.5 -89 -74.5 l0 76 q59 -23 91 -55 q32 -32 44 -69.5 q12 -37.5 12 -78.5 q0 -110 -73 -171 q-73 -61 -203 -61 l-315 0 ZM221 135 l178 0 q47 0 75 27 q28 27 28 70 q0 44 -28 71 q-28 27 -75 27 l-178 0 l0 -195 ZM221 465 l171 0 q36 0 57.5 20.5 q21.5 20.5 21.5 54.5 q0 34 -21.5 54.5 q-21.5 20.5 -57.5 20.5 l-171 0 l0 -150 ZM360 -100 l0 148 l90 0 l0 -148 l-90 0 ZM230 -100 l0 148 l90 0 l0 -148 l-90 0 ZM230 697 l0 148 l90 0 l0 -148 l-90 0 ZM360 697 l0 148 l90 0 l0 -148 l-90 0 Z" /><glyph glyph-name="uni20B5" unicode="&#x20b5;" d="M420 -12 q-80 0 -148.5 29 q-68.5 29 -119.5 81 q-51 52 -79.5 122 q-28.5 70 -28.5 153 q0 83 28 153.5 q28 70.5 79 122 q51 51.5 119.5 80 q68.5 28.5 149.5 28.5 q81 0 145.5 -27 q64.5 -27 109.5 -72 q45 -45 64 -100 l-137 -66 q-19 54 -66.5 89.5 q-47.5 35.5 -115.5 35.5 q-66 0 -116 -31 q-50 -31 -77.5 -85.5 q-27.5 -54.5 -27.5 -127.5 q0 -73 27.5 -128 q27.5 -55 77.5 -86 q50 -31 116 -31 q68 0 115.5 35.5 q47.5 35.5 66.5 89.5 l137 -66 q-19 -55 -64 -100 q-45 -45 -109.5 -72 q-64.5 -27 -145.5 -27 ZM375 -100 l0 945 l90 0 l0 -945 l-90 0 Z" /><glyph glyph-name="cent" unicode="¢" d="M323 88 q-82 0 -147.5 37.5 q-65.5 37.5 -104 102.5 q-38.5 65 -38.5 146 q0 81 38 145.5 q38 64.5 104 101.5 q66 37 148 37 q61 0 113 -21 q52 -21 89 -58.5 q37 -37.5 53 -88.5 l-130 -56 q-14 41 -47.5 65 q-33.5 24 -77.5 24 q-39 0 -69.5 -19 q-30.5 -19 -48 -53 q-17.5 -34 -17.5 -78 q0 -44 17.5 -78 q17.5 -34 48 -53 q30.5 -19 69.5 -19 q45 0 78 24 q33 24 47 65 l130 -57 q-15 -48 -52 -86 q-37 -38 -89 -59.5 q-52 -21.5 -114 -21.5 ZM277 0 l0 745 l90 0 l0 -745 l-90 0 Z" /><glyph glyph-name="colonmonetary" unicode="&#x20a1;" d="M420 -12 q-80 0 -148.5 29 q-68.5 29 -119.5 81 q-51 52 -79.5 122 q-28.5 70 -28.5 153 q0 83 28 153.5 q28 70.5 79 122 q51 51.5 119.5 80 q68.5 28.5 149.5 28.5 q81 0 145.5 -27 q64.5 -27 109.5 -72 q45 -45 64 -100 l-137 -66 q-19 54 -66.5 89.5 q-47.5 35.5 -115.5 35.5 q-66 0 -116 -31 q-50 -31 -77.5 -85.5 q-27.5 -54.5 -27.5 -127.5 q0 -73 27.5 -128 q27.5 -55 77.5 -86 q50 -31 116 -31 q68 0 115.5 35.5 q47.5 35.5 66.5 89.5 l137 -66 q-19 -55 -64 -100 q-45 -45 -109.5 -72 q-64.5 -27 -145.5 -27 ZM227 -100 l132 945 l90 0 l-132 -945 l-90 0 ZM357 -100 l132 945 l90 0 l-132 -945 l-90 0 Z" /><glyph glyph-name="currency" unicode="¤" d="M118 4 l-85 85 l80 79 q-13 23 -19.5 48 q-6.5 25 -6.5 53 q0 27 6.5 52.5 q6.5 25.5 19.5 47.5 l-80 80 l85 85 l80 -80 q23 13 48 19.5 q25 6.5 52 6.5 q28 0 53.5 -6.5 q25.5 -6.5 47.5 -19.5 l79 80 l85 -85 l-79 -80 q12 -22 18.5 -47.5 q6.5 -25.5 6.5 -52.5 q0 -28 -6.5 -53 q-6.5 -25 -18.5 -48 l79 -79 l-85 -85 l-79 79 q-22 -12 -47.5 -18.5 q-25.5 -6.5 -53.5 -6.5 q-27 0 -52 6.5 q-25 6.5 -48 18.5 l-80 -79 ZM298 188 q23 0 41 11 q18 11 29 29.5 q11 18.5 11 40.5 q0 23 -11 41 q-11 18 -29 29 q-18 11 -41 11 q-22 0 -40.5 -11 q-18.5 -11 -29.5 -29 q-11 -18 -11 -41 q0 -22 11 -40.5 q11 -18.5 29.5 -29.5 q18.5 -11 40.5 -11 Z" /><glyph glyph-name="dollar" unicode="$" d="M337 -12 q-70 0 -131.5 25.5 q-61.5 25.5 -106 72.5 q-44.5 47 -66.5 111 l127 57 q28 -61 77.5 -96 q49.5 -35 109.5 -35 q32 0 55 10 q23 10 36 27.5 q13 17.5 13 41.5 q0 26 -16 44.5 q-16 18.5 -50 29.5 l-146 48 q-89 29 -134 82.5 q-45 53.5 -45 128.5 q0 66 32.5 116 q32.5 50 91 78 q58.5 28 134.5 28 q67 0 124 -23 q57 -23 98.5 -65 q41.5 -42 62.5 -101 l-126 -57 q-21 52 -63 81.5 q-42 29.5 -96 29.5 q-31 0 -55 -10 q-24 -10 -37 -28.5 q-13 -18.5 -13 -42.5 q0 -26 17 -45.5 q17 -19.5 51 -30.5 l143 -46 q90 -29 134.5 -81 q44.5 -52 44.5 -127 q0 -65 -34 -115.5 q-34 -50.5 -93.5 -79 q-59.5 -28.5 -138.5 -28.5 ZM288 -100 l0 945 l90 0 l0 -945 l-90 0 Z" /><glyph glyph-name="dong" unicode="&#x20ab;" d="M259 139 q-65 0 -116 31 q-51 31 -80.5 83 q-29.5 52 -29.5 115 q0 64 30.5 116 q30.5 52 81.5 83 q51 31 114 31 q46 0 81.5 -15.5 q35.5 -15.5 55.5 -45.5 l-21 -26 l0 234 l140 0 l0 -596 l-130 0 l0 74 l11 -29 q-24 -29 -61 -42 q-37 -13 -76 -13 ZM275 261 q30 0 52.5 13.5 q22.5 13.5 35 37.5 q12.5 24 12.5 56 q0 32 -12.5 56 q-12.5 24 -35 37.5 q-22.5 13.5 -52.5 13.5 q-30 0 -52.5 -13.5 q-22.5 -13.5 -35 -37.5 q-12.5 -24 -12.5 -56 q0 -32 12.5 -56 q12.5 -24 35 -37.5 q22.5 -13.5 52.5 -13.5 ZM33 0 l0 88 l499 0 l0 -88 l-499 0 ZM315 619 l0 88 l260 0 l0 -88 l-260 0 Z" /><glyph glyph-name="Euro" unicode="&#x20ac;" d="M443 -12 q-75 0 -137.5 28 q-62.5 28 -108 79.5 q-45.5 51.5 -70.5 122 q-25 70.5 -25 155.5 q0 86 24.5 156 q24.5 70 70 121.5 q45.5 51.5 108 79 q62.5 27.5 138.5 27.5 q104 0 182.5 -53.5 q78.5 -53.5 108.5 -145.5 l-140 -53 q-19 53 -58.5 82.5 q-39.5 29.5 -92.5 29.5 q-54 0 -96.5 -31.5 q-42.5 -31.5 -66.5 -86.5 q-24 -55 -24 -126 q0 -72 24 -127.5 q24 -55.5 66 -86.5 q42 -31 97 -31 q53 0 92.5 30 q39.5 30 58.5 82 l140 -53 q-20 -61 -62 -105.5 q-42 -44.5 -100.5 -69 q-58.5 -24.5 -128.5 -24.5 ZM22 258 l0 90 l444 0 l0 -90 l-444 0 ZM22 398 l0 90 l444 0 l0 -90 l-444 0 Z" /><glyph glyph-name="florin" unicode="&#x192;" d="M159 -12 q-13 0 -27.5 1.5 q-14.5 1.5 -25.5 3.5 l0 128 q10 -1 18 -2 q8 -1 15 -1 q42 0 63.5 21 q21.5 21 21.5 72 l0 97 l-117 0 l0 130 l117 0 l0 107 q0 71 26 118 q26 47 74.5 70.5 q48.5 23.5 114.5 23.5 q13 0 28 -1.5 q15 -1.5 25 -3.5 l0 -128 q-10 2 -17.5 2.5 q-7.5 0.5 -15.5 0.5 q-42 0 -63.5 -21 q-21.5 -21 -21.5 -72 l0 -96 l117 0 l0 -130 l-117 0 l0 -108 q0 -71 -26 -118 q-26 -47 -74 -70.5 q-48 -23.5 -115 -23.5 Z" /><glyph glyph-name="franc" unicode="&#x20a3;" d="M113 0 l0 745 l510 0 l0 -135 l-355 0 l0 -189 l305 0 l0 -135 l-305 0 l0 -286 l-155 0 ZM33 98 l0 90 l435 0 l0 -90 l-435 0 Z" /><glyph glyph-name="uni20B2" unicode="&#x20b2;" d="M424 -12 q-80 0 -149 29 q-69 29 -121 81 q-52 52 -81 122 q-29 70 -29 153 q0 83 28 153.5 q28 70.5 79 122 q51 51.5 119.5 80 q68.5 28.5 149.5 28.5 q81 0 145.5 -27 q64.5 -27 109.5 -72 q45 -45 64 -100 l-137 -66 q-19 54 -66.5 89.5 q-47.5 35.5 -115.5 35.5 q-66 0 -116 -31 q-50 -31 -77.5 -85.5 q-27.5 -54.5 -27.5 -127.5 q0 -73 29 -128 q29 -55 79.5 -86 q50.5 -31 116.5 -31 q51 0 95.5 19.5 q44.5 19.5 72 56.5 q27.5 37 27.5 89 l0 62 l71 -60 l-270 0 l0 130 l354 0 l0 -79 q0 -91 -30 -158.5 q-30 -67.5 -80.5 -112 q-50.5 -44.5 -113 -66 q-62.5 -21.5 -126.5 -21.5 ZM373 -100 l0 945 l90 0 l0 -945 l-90 0 Z" /><glyph glyph-name="uni20B4" unicode="&#x20b4;" d="M407 469 q15 12 25.5 28.5 q10.5 16.5 10.5 40.5 q0 24 -13 43 q-13 19 -36.5 30 q-23.5 11 -55.5 11 q-33 0 -66 -13.5 q-33 -13.5 -48 -50.5 l-167 0 q12 66 54 110 q42 44 102 66.5 q60 22.5 125 22.5 q77 0 135 -27.5 q58 -27.5 90.5 -75.5 q32.5 -48 32.5 -109 q0 -22 -4.5 -39.5 q-4.5 -17.5 -15.5 -36.5 l-169 0 ZM331 -12 q-76 0 -134.5 27.5 q-58.5 27.5 -91 75.5 q-32.5 48 -32.5 109 q0 22 5 39.5 q5 17.5 15 36.5 l169 0 q-15 -12 -25.5 -28.5 q-10.5 -16.5 -10.5 -40.5 q0 -24 13 -43 q13 -19 37 -30 q24 -11 55 -11 q33 0 66 13.5 q33 13.5 48 50.5 l167 0 q-12 -65 -54 -109.5 q-42 -44.5 -102 -67 q-60 -22.5 -125 -22.5 ZM33 258 l0 90 l603 0 l0 -90 l-603 0 ZM33 398 l0 90 l603 0 l0 -90 l-603 0 Z" /><glyph glyph-name="uni20AD" unicode="&#x20ad;" d="M532 0 l-254 338 l7 70 l216 337 l185 0 l-239 -371 l276 -374 l-191 0 ZM113 0 l0 745 l155 0 l0 -745 l-155 0 ZM33 328 l0 90 l653 0 l0 -90 l-653 0 Z" /><glyph glyph-name="uni20BE" unicode="&#x20be;" d="M44 0 l0 135 l171 0 l-32 -29 q-43 31 -74 73 q-31 42 -48 91.5 q-17 49.5 -17 102.5 q0 82 30 152 q30 70 83.5 122 q53.5 52 125.5 81 q72 29 157 29 q95 0 173.5 -33.5 q78.5 -33.5 131.5 -96 q53 -62.5 69 -149.5 l-166 0 q-11 47 -41.5 78 q-30.5 31 -73.5 46 q-43 15 -94 15 q-51 0 -94.5 -17.5 q-43.5 -17.5 -76.5 -50.5 q-33 -33 -51 -77.5 q-18 -44.5 -18 -98.5 q0 -43 12.5 -85.5 q12.5 -42.5 41 -77 q28.5 -34.5 74.5 -55 q46 -20.5 112 -20.5 l355 0 l0 -135 l-750 0 ZM330 478 l0 367 l90 0 l0 -367 l-90 0 ZM460 478 l0 367 l90 0 l0 -367 l-90 0 Z" /><glyph glyph-name="lira" unicode="&#x20a4;" d="M33 0 l0 130 l100 0 l0 375 q0 76 31 132.5 q31 56.5 89 88 q58 31.5 139 31.5 q60 0 113 -23 q53 -23 89 -64 q36 -41 43 -96 l-135 -44 q-7 43 -38 65 q-31 22 -72 22 q-50 0 -77 -29 q-27 -29 -27 -83 l0 -375 l318 0 l0 -130 l-573 0 ZM33 398 l0 90 l444 0 l0 -90 l-444 0 ZM33 258 l0 90 l444 0 l0 -90 l-444 0 Z" /><glyph glyph-name="uni20BA" unicode="&#x20ba;" d="M113 0 l0 745 l155 0 l0 -610 l22 0 q72 0 125.5 33.5 q53.5 33.5 81.5 115.5 l166 0 q-35 -140 -131 -212 q-96 -72 -246 -72 l-173 0 ZM33 410 l0 110 l440 127 l0 -110 l-440 -127 ZM33 230 l0 110 l440 127 l0 -110 l-440 -127 Z" /><glyph glyph-name="uni20BC" unicode="&#x20bc;" d="M57 0 l0 372 q0 82 39.5 146.5 q39.5 64.5 108.5 101.5 q69 37 157 37 q88 0 157 -37 q69 -37 108.5 -101.5 q39.5 -64.5 39.5 -146.5 l0 -372 l-155 0 l0 362 q0 45 -19.5 80 q-19.5 35 -53 55 q-33.5 20 -77.5 20 q-43 0 -77 -20 q-34 -20 -53.5 -55 q-19.5 -35 -19.5 -80 l0 -362 l-155 0 ZM317 0 l0 845 l90 0 l0 -845 l-90 0 Z" /><glyph glyph-name="uni20A6" unicode="&#x20a6;" d="M113 0 l0 745 l197 0 l250 -687 l-47 -15 l0 702 l149 0 l0 -745 l-198 0 l-244 691 l43 15 l0 -706 l-150 0 ZM33 328 l0 90 l709 0 l0 -90 l-709 0 Z" /><glyph glyph-name="peseta" unicode="&#x20a7;" d="M113 0 l0 745 l286 0 q77 0 136.5 -27 q59.5 -27 93.5 -80 q34 -53 34 -131 q0 -76 -34.5 -129 q-34.5 -53 -94 -80.5 q-59.5 -27.5 -135.5 -27.5 l-131 0 l0 -270 l-155 0 ZM268 405 l132 0 q33 0 57 13 q24 13 37.5 36 q13.5 23 13.5 53 q0 31 -13.5 54 q-13.5 23 -37.5 36 q-24 13 -57 13 l-132 0 l0 -205 ZM33 463 l0 90 l690 0 l0 -90 l-690 0 Z" /><glyph glyph-name="uni20B1" unicode="&#x20b1;" d="M113 0 l0 745 l286 0 q77 0 136.5 -27 q59.5 -27 93.5 -80 q34 -53 34 -131 q0 -76 -34.5 -129 q-34.5 -53 -94 -80.5 q-59.5 -27.5 -135.5 -27.5 l-131 0 l0 -270 l-155 0 ZM268 405 l132 0 q33 0 57 13 q24 13 37.5 36 q13.5 23 13.5 53 q0 31 -13.5 54 q-13.5 23 -37.5 36 q-24 13 -57 13 l-132 0 l0 -205 ZM33 433 l0 60 l690 0 l0 -60 l-690 0 ZM33 523 l0 60 l690 0 l0 -60 l-690 0 Z" /><glyph glyph-name="uni20BD" unicode="&#x20bd;" d="M113 0 l0 270 l-80 0 l0 90 l80 0 l0 385 l286 0 q77 0 136.5 -27 q59.5 -27 93.5 -80 q34 -53 34 -131 q0 -76 -34.5 -129 q-34.5 -53 -94 -80.5 q-59.5 -27.5 -135.5 -27.5 l-131 0 l0 -270 l-155 0 ZM268 405 l132 0 q33 0 57 13 q24 13 37.5 36 q13.5 23 13.5 53 q0 31 -13.5 54 q-13.5 23 -37.5 36 q-24 13 -57 13 l-132 0 l0 -205 ZM33 98 l0 90 l435 0 l0 -90 l-435 0 Z" /><glyph glyph-name="uni20B9" unicode="&#x20b9;" d="M400 0 l-334 270 l0 135 l287 0 q33 0 57 13 q24 13 37.5 36 q13.5 23 13.5 53 q0 31 -13.5 54 q-13.5 23 -37.5 36 q-24 13 -57 13 l-287 0 l0 135 l610 0 l0 -90 l-173 0 l39 30 q35 -31 54.5 -75 q19.5 -44 19.5 -103 q0 -76 -34.5 -129 q-34.5 -53 -94 -80.5 q-59.5 -27.5 -135.5 -27.5 l-125 0 l15 43 l384 -313 l-226 0 ZM66 463 l0 90 l610 0 l0 -90 l-610 0 Z" /><glyph glyph-name="uni20AA" unicode="&#x20aa;" d="M243 0 l0 564 l70 0 l0 -410 l107 0 q8 0 12.5 4.5 q4.5 4.5 4.5 12.5 l0 574 l150 0 l0 -593 q0 -68 -42 -110 q-42 -42 -110 -42 l-192 0 ZM66 0 l0 745 l192 0 q70 0 111 -42 q41 -42 41 -110 l0 -412 l-70 0 l0 393 q0 8 -4.5 12.5 q-4.5 4.5 -12.5 4.5 l-107 0 l0 -591 l-150 0 Z" /><glyph glyph-name="sterling" unicode="£" d="M33 0 l0 130 l100 0 l0 375 q0 76 31 132.5 q31 56.5 89 88 q58 31.5 139 31.5 q60 0 113 -23 q53 -23 89 -64 q36 -41 43 -96 l-135 -44 q-7 43 -38 65 q-31 22 -72 22 q-50 0 -77 -29 q-27 -29 -27 -83 l0 -375 l318 0 l0 -130 l-573 0 ZM33 334 l0 90 l444 0 l0 -90 l-444 0 Z" /><glyph glyph-name="uni20B8" unicode="&#x20b8;" d="M200 0 l0 430 l-189 0 l0 135 l530 0 l0 -135 l-186 0 l0 -430 l-155 0 ZM11 655 l0 90 l530 0 l0 -90 l-530 0 Z" /><glyph glyph-name="uni20AE" unicode="&#x20ae;" d="M201 0 l0 610 l-190 0 l0 135 l531 0 l0 -135 l-186 0 l0 -610 l-155 0 ZM57 304 l0 110 l440 127 l0 -110 l-440 -127 ZM57 124 l0 110 l440 127 l0 -110 l-440 -127 Z" /><glyph glyph-name="uni20A9" unicode="&#x20a9;" d="M174 0 l-116 745 l153 0 l78 -714 l-45 0 l144 714 l148 0 l144 -714 l-45 0 l78 714 l153 0 l-116 -745 l-174 0 l-135 690 l42 0 l-135 -690 l-174 0 ZM11 328 l0 90 l901 0 l0 -90 l-901 0 Z" /><glyph glyph-name="yen" unicode="¥" d="M259 0 l0 325 l-248 420 l177 0 l180 -316 l-63 0 l179 316 l177 0 l-247 -419 l0 -326 l-155 0 ZM114 282 l0 90 l444 0 l0 -90 l-444 0 ZM114 142 l0 90 l444 0 l0 -90 l-444 0 Z" /><glyph glyph-name="uni2219" unicode="&#x2219;" d="M304 151 q-57 0 -102.5 26.5 q-45.5 26.5 -72 72 q-26.5 45.5 -26.5 102.5 q0 56 26.5 100.5 q26.5 44.5 72 71 q45.5 26.5 102.5 26.5 q56 0 100.5 -26.5 q44.5 -26.5 71 -71 q26.5 -44.5 26.5 -100.5 q0 -57 -26.5 -102.5 q-26.5 -45.5 -71 -72 q-44.5 -26.5 -100.5 -26.5 Z" /><glyph glyph-name="uni2215" unicode="&#x2215;" d="M66 -60 l330 865 l162 0 l-330 -865 l-162 0 Z" /><glyph glyph-name="uni208C" unicode="&#x208c;" d="M114 283 l0 95 l315 0 l0 -95 l-315 0 ZM114 110 l0 96 l315 0 l0 -96 l-315 0 Z" /><glyph glyph-name="uni207C" unicode="&#x207c;" d="M114 506 l0 95 l315 0 l0 -95 l-315 0 ZM114 333 l0 96 l315 0 l0 -96 l-315 0 Z" /><glyph glyph-name="uni208B" unicode="&#x208b;" d="M114 213 l0 95 l315 0 l0 -95 l-315 0 Z" /><glyph glyph-name="uni207B" unicode="&#x207b;" d="M114 436 l0 95 l315 0 l0 -95 l-315 0 Z" /><glyph glyph-name="plus" unicode="+" d="M277 0 l0 188 l-188 0 l0 125 l188 0 l0 187 l125 0 l0 -187 l187 0 l0 -125 l-187 0 l0 -188 l-125 0 Z" /><glyph glyph-name="minus" unicode="&#x2212;" d="M114 188 l0 125 l450 0 l0 -125 l-450 0 Z" /><glyph glyph-name="multiply" unicode="×" d="M192 0 l-88 89 l147 147 l-147 146 l89 88 l146 -146 l146 146 l89 -88 l-147 -146 l147 -147 l-88 -89 l-147 147 l-147 -147 Z" /><glyph glyph-name="divide" unicode="÷" d="M89 188 l0 125 l500 0 l0 -125 l-500 0 ZM264 0 l0 118 l150 0 l0 -118 l-150 0 ZM264 382 l0 118 l150 0 l0 -118 l-150 0 Z" /><glyph glyph-name="equal" unicode="=" d="M114 291 l0 125 l450 0 l0 -125 l-450 0 ZM114 46 l0 125 l450 0 l0 -125 l-450 0 Z" /><glyph glyph-name="notequal" unicode="&#x2260;" d="M114 291 l0 125 l450 0 l0 -125 l-450 0 ZM114 46 l0 125 l450 0 l0 -125 l-450 0 ZM380 516 l122 0 l-208 -570 l-122 0 l208 570 Z" /><glyph glyph-name="greater" unicode="&gt;" d="M114 4 l0 151 l350 144 l0 -52 l-350 145 l0 151 l475 -196 l0 -148 l-475 -195 Z" /><glyph glyph-name="less" unicode="&lt;" d="M564 4 l-475 195 l0 148 l475 196 l0 -151 l-350 -145 l0 52 l350 -144 l0 -151 Z" /><glyph glyph-name="greaterequal" unicode="&#x2265;" d="M114 170 l0 151 l382 104 l0 -52 l-382 105 l0 151 l475 -156 l0 -148 l-475 -155 ZM114 0 l0 120 l476 0 l0 -120 l-476 0 Z" /><glyph glyph-name="lessequal" unicode="&#x2264;" d="M565 170 l-475 155 l0 148 l475 156 l0 -151 l-382 -105 l0 52 l382 -104 l0 -151 ZM89 0 l0 120 l476 0 l0 -120 l-476 0 Z" /><glyph glyph-name="plusminus" unicode="±" d="M277 195 l0 138 l-188 0 l0 125 l188 0 l0 137 l125 0 l0 -137 l187 0 l0 -125 l-187 0 l0 -138 l-125 0 ZM89 0 l0 125 l500 0 l0 -125 l-500 0 Z" /><glyph glyph-name="approxequal" unicode="&#x2248;" d="M90 303 l0 118 q31 34 73 49 q42 15 83 15 q36 0 60 -9 q24 -9 43.5 -20 q19.5 -11 42 -20 q22.5 -9 53.5 -9 q32 0 71 13 q39 13 72 46 l0 -118 q-28 -34 -68 -49 q-40 -15 -78 -15 q-37 0 -62.5 9 q-25.5 9 -46.5 20 q-21 11 -44 20 q-23 9 -56 9 q-32 0 -71 -13 q-39 -13 -72 -46 ZM90 63 l0 118 q31 34 73 49 q42 15 83 15 q36 0 60 -9 q24 -9 43.5 -20 q19.5 -11 42 -20 q22.5 -9 53.5 -9 q32 0 71 13 q39 13 72 46 l0 -118 q-28 -34 -68 -49 q-40 -15 -78 -15 q-37 0 -62.5 9 q-25.5 9 -46.5 20 q-21 11 -44 20 q-23 9 -56 9 q-32 0 -71 -13 q-39 -13 -72 -46 Z" /><glyph glyph-name="asciitilde" unicode="~" d="M435 180 q-34 0 -58 9.5 q-24 9.5 -42.5 22.5 q-18.5 13 -35 22.5 q-16.5 9.5 -36.5 9.5 q-22 0 -35.5 -14.5 q-13.5 -14.5 -17.5 -44.5 l-120 0 q5 89 45 135.5 q40 46.5 111 46.5 q34 0 58 -9.5 q24 -9.5 42 -22.5 q18 -13 35 -22.5 q17 -9.5 36 -9.5 q20 0 33.5 13.5 q13.5 13.5 18.5 45.5 l119 0 q-5 -89 -43.5 -135.5 q-38.5 -46.5 -109.5 -46.5 Z" /><glyph glyph-name="logicalnot" unicode="¬" d="M464 40 l0 148 l-375 0 l0 125 l500 0 l0 -273 l-125 0 Z" /><glyph glyph-name="asciicircum" unicode="^" d="M97 418 l171 327 l144 0 l170 -327 l-164 0 l-109 209 l62 0 l-109 -209 l-165 0 Z" /><glyph glyph-name="infinity" unicode="&#x221e;" d="M289 105 q-53 0 -94.5 22.5 q-41.5 22.5 -65 61.5 q-23.5 39 -23.5 89 q0 49 23.5 88 q23.5 39 65 62 q41.5 23 95.5 23 q68 0 131.5 -37 q63.5 -37 105.5 -103 l0 -66 q-42 -66 -105.5 -103 q-63.5 -37 -132.5 -37 ZM302 214 q28 0 56 16.5 q28 16.5 48 47.5 q-20 31 -48 47.5 q-28 16.5 -56 16.5 q-31 0 -48.5 -18 q-17.5 -18 -17.5 -46 q0 -28 17.5 -46 q17.5 -18 48.5 -18 ZM651 105 q-69 0 -132.5 37 q-63.5 37 -105.5 103 l0 66 q42 66 105.5 103 q63.5 37 131.5 37 q55 0 96 -23 q41 -23 64.5 -62 q23.5 -39 23.5 -88 q0 -50 -23.5 -89 q-23.5 -39 -65 -61.5 q-41.5 -22.5 -94.5 -22.5 ZM638 214 q31 0 48.5 18 q17.5 18 17.5 46 q0 28 -17.5 46 q-17.5 18 -48.5 18 q-28 0 -56 -16.5 q-28 -16.5 -48 -47.5 q20 -31 48 -47.5 q28 -16.5 56 -16.5 Z" /><glyph glyph-name="emptyset" unicode="&#x2205;" d="M431 -12 q-80 0 -150.5 30 q-70.5 30 -123.5 83 q-53 53 -83 123 q-30 70 -30 150 q0 80 30 149 q30 69 83 122 q53 53 123 82.5 q70 29.5 151 29.5 q79 0 148.5 -29.5 q69.5 -29.5 122.5 -82 q53 -52.5 83 -122 q30 -69.5 30 -149.5 q0 -80 -29.5 -150 q-29.5 -70 -82.5 -123 q-53 -53 -122.5 -83 q-69.5 -30 -149.5 -30 ZM431 88 q59 0 110.5 22 q51.5 22 90.5 61 q39 39 61 91 q22 52 22 112 q0 59 -22 110.5 q-22 51.5 -61.5 90.5 q-39.5 39 -90.5 61 q-51 22 -110 22 q-60 0 -112 -22 q-52 -22 -91 -61 q-39 -39 -61 -90.5 q-22 -51.5 -22 -110.5 q0 -60 22 -112 q22 -52 61 -91 q39 -39 91 -61 q52 -22 112 -22 ZM67 0 l613 745 l112 0 l-612 -745 l-113 0 Z" /><glyph glyph-name="integral" unicode="&#x222b;" d="M159 -180 q-13 0 -27.5 1.5 q-14.5 1.5 -25.5 3.5 l0 128 q10 -1 18 -2 q8 -1 15 -1 q42 0 63.5 21 q21.5 21 21.5 72 l0 502 q0 71 26 118 q26 47 74.5 70.5 q48.5 23.5 114.5 23.5 q13 0 28 -1.5 q15 -1.5 25 -3.5 l0 -128 q-10 2 -17.5 2.5 q-7.5 0.5 -15.5 0.5 q-42 0 -63.5 -21 q-21.5 -21 -21.5 -72 l0 -502 q0 -71 -26 -118 q-26 -47 -74 -70.5 q-48 -23.5 -115 -23.5 Z" /><glyph glyph-name="product" unicode="&#x220f;" d="M212 -100 l0 710 l-139 0 l0 135 l735 0 l0 -135 l-136 0 l0 -710 l-155 0 l0 710 l-150 0 l0 -710 l-155 0 Z" /><glyph glyph-name="summation" unicode="&#x2211;" d="M92 -100 l0 125 l246 353 l0 -110 l-246 352 l0 125 l535 0 l0 -135 l-406 0 l29 56 l233 -343 l-233 -344 l-29 56 l406 0 l0 -135 l-535 0 Z" /><glyph glyph-name="radical" unicode="&#x221a;" d="M374 -100 l-213 488 l94 -62 l-180 0 l0 120 l223 0 l168 -402 l-52 0 l293 701 l223 0 l0 -120 l-179 0 l94 62 l-339 -787 l-132 0 Z" /><glyph glyph-name="uni00B5" unicode="µ" d="M44 -140 l0 686 l150 0 l0 -319 q0 -31 12.5 -54.5 q12.5 -23.5 35.5 -36.5 q23 -13 52 -13 q30 0 52.5 13 q22.5 13 35 36.5 q12.5 23.5 12.5 54.5 l0 319 l150 0 l0 -546 l-140 0 l0 133 l15 -22 q-12 -63 -57.5 -93 q-45.5 -30 -110.5 -30 q-27 0 -51 4.5 q-24 4.5 -46 14.5 l40 54 l0 -201 l-150 0 Z" /><glyph glyph-name="partialdiff" unicode="&#x2202;" d="M365 -12 q-75 0 -137 32 q-62 32 -98.5 91.5 q-36.5 59.5 -36.5 140.5 q0 80 36 142 q36 62 99 98 q63 36 145 36 q76 0 124.5 -27.5 q48.5 -27.5 84.5 -60.5 l-28 -91 q-29 29 -71 46.5 q-42 17.5 -89 17.5 q-46 0 -79 -18.5 q-33 -18.5 -50 -52.5 q-17 -34 -17 -80 q0 -40 15 -71.5 q15 -31.5 43 -49.5 q28 -18 66 -18 q43 0 74.5 24.5 q31.5 24.5 48.5 73.5 q17 49 17 121 q0 50 -10.5 105 q-10.5 55 -38.5 103.5 q-28 48.5 -78 79 q-50 30.5 -130 30.5 q-33 0 -61.5 -6 q-28.5 -6 -55.5 -19 l-15 128 q28 14 64.5 20.5 q36.5 6.5 75.5 6.5 q77 0 140.5 -24 q63.5 -24 112.5 -67.5 q49 -43.5 83 -100.5 q34 -57 51.5 -123.5 q17.5 -66.5 17.5 -136.5 q0 -109 -40 -187.5 q-40 -78.5 -108.5 -120.5 q-68.5 -42 -154.5 -42 Z" /><glyph glyph-name="percent" unicode="%" d="M158 0 l602 745 l154 0 l-602 -745 l-154 0 ZM277 367 q-56 0 -100.5 26.5 q-44.5 26.5 -70.5 70.5 q-26 44 -26 98 q0 54 26 98.5 q26 44.5 70.5 70.5 q44.5 26 100.5 26 q56 0 100 -26 q44 -26 70 -70.5 q26 -44.5 26 -98.5 q0 -54 -26 -98 q-26 -44 -70 -70.5 q-44 -26.5 -100 -26.5 ZM277 477 q27 0 45 12.5 q18 12.5 27 32 q9 19.5 9 40.5 q0 22 -9 41 q-9 19 -27 31.5 q-18 12.5 -45 12.5 q-27 0 -45 -12.5 q-18 -12.5 -27.5 -31.5 q-9.5 -19 -9.5 -41 q0 -21 9.5 -40.5 q9.5 -19.5 27.5 -32 q18 -12.5 45 -12.5 ZM794 -12 q-56 0 -100.5 26.5 q-44.5 26.5 -70.5 70.5 q-26 44 -26 98 q0 54 26 98.5 q26 44.5 70.5 70.5 q44.5 26 100.5 26 q56 0 100 -26 q44 -26 70 -70.5 q26 -44.5 26 -98.5 q0 -54 -26 -98 q-26 -44 -70 -70.5 q-44 -26.5 -100 -26.5 ZM794 98 q27 0 45 12.5 q18 12.5 27 32 q9 19.5 9 40.5 q0 22 -9 41 q-9 19 -27 31.5 q-18 12.5 -45 12.5 q-26 0 -44.5 -12.5 q-18.5 -12.5 -28 -31.5 q-9.5 -19 -9.5 -41 q0 -21 9.5 -40.5 q9.5 -19.5 28 -32 q18.5 -12.5 44.5 -12.5 Z" /><glyph glyph-name="perthousand" unicode="&#x2030;" d="M158 0 l602 745 l154 0 l-602 -745 l-154 0 ZM277 367 q-56 0 -100.5 26.5 q-44.5 26.5 -70.5 70.5 q-26 44 -26 98 q0 54 26 98.5 q26 44.5 70.5 70.5 q44.5 26 100.5 26 q56 0 100 -26 q44 -26 70 -70.5 q26 -44.5 26 -98.5 q0 -54 -26 -98 q-26 -44 -70 -70.5 q-44 -26.5 -100 -26.5 ZM277 477 q27 0 45 12.5 q18 12.5 27 32 q9 19.5 9 40.5 q0 22 -9 41 q-9 19 -27 31.5 q-18 12.5 -45 12.5 q-27 0 -45 -12.5 q-18 -12.5 -27.5 -31.5 q-9.5 -19 -9.5 -41 q0 -21 9.5 -40.5 q9.5 -19.5 27.5 -32 q18 -12.5 45 -12.5 ZM794 -12 q-56 0 -100.5 26.5 q-44.5 26.5 -70.5 70.5 q-26 44 -26 98 q0 54 26 98.5 q26 44.5 70.5 70.5 q44.5 26 100.5 26 q56 0 100 -26 q44 -26 70 -70.5 q26 -44.5 26 -98.5 q0 -54 -26 -98 q-26 -44 -70 -70.5 q-44 -26.5 -100 -26.5 ZM794 98 q27 0 45 12.5 q18 12.5 27 32 q9 19.5 9 40.5 q0 22 -9 41 q-9 19 -27 31.5 q-18 12.5 -45 12.5 q-26 0 -44.5 -12.5 q-18.5 -12.5 -28 -31.5 q-9.5 -19 -9.5 -41 q0 -21 9.5 -40.5 q9.5 -19.5 28 -32 q18.5 -12.5 44.5 -12.5 ZM1227 -12 q-56 0 -100.5 26.5 q-44.5 26.5 -70.5 70.5 q-26 44 -26 98 q0 54 26 98.5 q26 44.5 70.5 70.5 q44.5 26 100.5 26 q56 0 100 -26 q44 -26 70 -70.5 q26 -44.5 26 -98.5 q0 -54 -26 -98 q-26 -44 -70 -70.5 q-44 -26.5 -100 -26.5 ZM1227 98 q27 0 45 12.5 q18 12.5 27 32 q9 19.5 9 40.5 q0 22 -9 41 q-9 19 -27 31.5 q-18 12.5 -45 12.5 q-26 0 -44.5 -12.5 q-18.5 -12.5 -28 -31.5 q-9.5 -19 -9.5 -41 q0 -21 9.5 -40.5 q9.5 -19.5 28 -32 q18.5 -12.5 44.5 -12.5 Z" /><glyph glyph-name="uni208A" unicode="&#x208a;" d="M216 85 l0 128 l-127 0 l0 95 l127 0 l0 127 l96 0 l0 -127 l127 0 l0 -95 l-127 0 l0 -128 l-96 0 Z" /><glyph glyph-name="uni207A" unicode="&#x207a;" d="M216 308 l0 128 l-127 0 l0 95 l127 0 l0 127 l96 0 l0 -127 l127 0 l0 -95 l-127 0 l0 -128 l-96 0 Z" /><glyph glyph-name="arrowup" unicode="&#x2191;" d="M88 237 l0 172 l244 226 l58 0 l244 -226 l0 -172 l-323 289 l100 0 l-323 -289 ZM296 0 l0 517 l130 0 l0 -517 l-130 0 Z" /><glyph glyph-name="uni2197" unicode="&#x2197;" d="M267 473 l350 0 l41 -41 l0 -349 l-130 -120 l0 448 l67 -68 l-448 0 l120 130 ZM508 415 l92 -92 l-366 -365 l-92 91 l366 366 Z" /><glyph glyph-name="arrowright" unicode="&#x2192;" d="M324 0 l289 323 l0 -100 l-289 323 l172 0 l226 -244 l0 -58 l-226 -244 l-172 0 ZM87 208 l0 130 l517 0 l0 -130 l-517 0 Z" /><glyph glyph-name="uni2198" unicode="&#x2198;" d="M207 0 l-120 130 l448 0 l-67 -68 l0 448 l130 -120 l0 -349 l-41 -41 l-350 0 ZM448 58 l-366 366 l92 91 l366 -365 l-92 -92 Z" /><glyph glyph-name="arrowdown" unicode="&#x2193;" d="M156 398 l323 -289 l-100 0 l323 289 l0 -172 l-244 -226 l-58 0 l-244 226 l0 172 ZM364 635 l130 0 l0 -517 l-130 0 l0 517 Z" /><glyph glyph-name="uni2199" unicode="&#x2199;" d="M514 0 l-350 0 l-41 41 l0 349 l130 120 l0 -448 l-67 68 l448 0 l-120 -130 ZM273 58 l-92 92 l366 365 l92 -91 l-366 -366 Z" /><glyph glyph-name="arrowleft" unicode="&#x2190;" d="M364 0 l-172 0 l-226 244 l0 58 l226 244 l172 0 l-289 -323 l0 100 l289 -323 ZM601 208 l-517 0 l0 130 l517 0 l0 -130 Z" /><glyph glyph-name="uni2196" unicode="&#x2196;" d="M453 473 l120 -130 l-448 0 l67 68 l0 -448 l-130 120 l0 349 l41 41 l350 0 ZM212 415 l366 -366 l-92 -91 l-366 365 l92 92 Z" /><glyph glyph-name="arrowboth" unicode="&#x2194;" d="M676 0 l289 323 l0 -100 l-289 323 l172 0 l226 -244 l0 -58 l-226 -244 l-172 0 ZM304 0 l-226 244 l0 58 l226 244 l172 0 l-289 -323 l0 100 l289 -323 l-172 0 ZM196 208 l0 130 l760 0 l0 -130 l-760 0 Z" /><glyph glyph-name="arrowupdn" unicode="&#x2195;" d="M97 44 l323 -289 l-100 0 l323 289 l0 -172 l-244 -226 l-58 0 l-244 226 l0 172 ZM97 416 l244 226 l58 0 l244 -226 l0 -172 l-323 289 l100 0 l-323 -289 l0 172 ZM305 524 l130 0 l0 -760 l-130 0 l0 760 Z" /><glyph glyph-name="uni21A9" unicode="&#x21a9;" d="M193 208 l0 130 l517 0 q41 0 65.5 22 q24.5 22 24.5 59 q0 37 -24.5 59 q-24.5 22 -65.5 22 l-10 0 l0 130 l10 0 q66 0 115.5 -26.5 q49.5 -26.5 77 -73.5 q27.5 -47 27.5 -111 q0 -63 -27.5 -110.5 q-27.5 -47.5 -77 -74 q-49.5 -26.5 -115.5 -26.5 l-517 0 ZM301 0 l-226 244 l0 58 l226 244 l172 0 l-289 -323 l0 100 l289 -323 l-172 0 Z" /><glyph glyph-name="uni21AA" unicode="&#x21aa;" d="M725 208 l-517 0 q-66 0 -115.5 26.5 q-49.5 26.5 -77 74 q-27.5 47.5 -27.5 110.5 q0 64 27.5 111 q27.5 47 77 73.5 q49.5 26.5 115.5 26.5 l10 0 l0 -130 l-10 0 q-40 0 -65 -22 q-25 -22 -25 -59 q0 -37 25 -59 q25 -22 65 -22 l517 0 l0 -130 ZM617 0 l-172 0 l289 323 l0 -100 l-289 323 l172 0 l226 -244 l0 -58 l-226 -244 Z" /><glyph glyph-name="uni21B0" unicode="&#x21b0;" d="M710 -100 l0 308 l-517 0 l0 130 l647 0 l0 -438 l-130 0 ZM301 0 l-226 244 l0 58 l226 244 l172 0 l-289 -323 l0 100 l289 -323 l-172 0 Z" /><glyph glyph-name="uni21B1" unicode="&#x21b1;" d="M146 -100 l-130 0 l0 438 l647 0 l0 -130 l-517 0 l0 -308 ZM555 0 l-172 0 l289 323 l0 -100 l-289 323 l172 0 l226 -244 l0 -58 l-226 -244 Z" /><glyph glyph-name="uni21B2" unicode="&#x21b2;" d="M193 208 l0 130 l517 0 l0 308 l130 0 l0 -438 l-647 0 ZM301 0 l-226 244 l0 58 l226 244 l172 0 l-289 -323 l0 100 l289 -323 l-172 0 Z" /><glyph glyph-name="uni21B3" unicode="&#x21b3;" d="M763 208 l-647 0 l0 438 l130 0 l0 -308 l517 0 l0 -130 ZM655 0 l-172 0 l289 323 l0 -100 l-289 323 l172 0 l226 -244 l0 -58 l-226 -244 Z" /><glyph glyph-name="uni2B0E" unicode="&#x2b0e;" d="M464 118 l0 398 l-387 0 l0 130 l517 0 l0 -528 l-130 0 ZM500 0 l-244 226 l0 172 l323 -289 l-100 0 l323 289 l0 -172 l-244 -226 l-58 0 Z" /><glyph glyph-name="uni2B10" unicode="&#x2b10;" d="M425 118 l-130 0 l0 528 l517 0 l0 -130 l-387 0 l0 -398 ZM389 0 l-58 0 l-244 226 l0 172 l323 -289 l-100 0 l323 289 l0 -172 l-244 -226 Z" /><glyph glyph-name="uni25CF" unicode="&#x25cf;" d="M475 -12 q-79 0 -149 30 q-70 30 -122.5 82.5 q-52.5 52.5 -82.5 122.5 q-30 70 -30 149 q0 80 30 149.5 q30 69.5 82.5 122.5 q52.5 53 122.5 83 q70 30 149 30 q80 0 149.5 -30 q69.5 -30 122 -83 q52.5 -53 82.5 -122.5 q30 -69.5 30 -149.5 q0 -79 -30 -149 q-30 -70 -82.5 -122.5 q-52.5 -52.5 -122 -82.5 q-69.5 -30 -149.5 -30 Z" /><glyph glyph-name="circle" unicode="&#x25cb;" d="M475 -12 q-79 0 -149 30 q-70 30 -122.5 82.5 q-52.5 52.5 -82.5 122.5 q-30 70 -30 149 q0 80 30 149.5 q30 69.5 82.5 122.5 q52.5 53 122.5 83 q70 30 149 30 q80 0 149.5 -30 q69.5 -30 122 -83 q52.5 -53 82.5 -122.5 q30 -69.5 30 -149.5 q0 -79 -30 -149 q-30 -70 -82.5 -122.5 q-52.5 -52.5 -122 -82.5 q-69.5 -30 -149.5 -30 ZM475 88 q59 0 110.5 22 q51.5 22 90.5 61 q39 39 61 90.5 q22 51.5 22 110.5 q0 59 -22 110.5 q-22 51.5 -61.5 91 q-39.5 39.5 -90.5 61.5 q-51 22 -109 22 q-59 0 -110.5 -22 q-51.5 -22 -91 -61.5 q-39.5 -39.5 -61.5 -91 q-22 -51.5 -22 -110.5 q0 -59 22 -110.5 q22 -51.5 61 -90.5 q39 -39 90.5 -61 q51.5 -22 110.5 -22 Z" /><glyph glyph-name="uni25C6" unicode="&#x25c6;" d="M450 -12 l-385 385 l384 384 l385 -384 l-384 -385 Z" /><glyph glyph-name="uni25C7" unicode="&#x25c7;" d="M450 -12 l-385 385 l384 384 l385 -384 l-384 -385 ZM450 130 l243 243 l-244 243 l-243 -243 l244 -243 Z" /><glyph glyph-name="lozenge" unicode="&#x25ca;" d="M263 0 l-189 373 l189 372 l175 0 l191 -372 l-191 -373 l-175 0 ZM329 86 l138 287 l-139 286 l45 0 l-139 -286 l139 -287 l-44 0 Z" /><glyph glyph-name="filledbox" unicode="&#x25a0;" d="M138 0 l0 745 l745 0 l0 -745 l-745 0 Z" /><glyph glyph-name="uni25A1" unicode="&#x25a1;" d="M138 0 l0 745 l745 0 l0 -745 l-745 0 ZM238 100 l545 0 l0 545 l-545 0 l0 -545 Z" /><glyph glyph-name="triagup" unicode="&#x25b2;" d="M65 0 l375 757 l375 -757 l-750 0 Z" /><glyph glyph-name="uni25B6" unicode="&#x25b6;" d="M138 757 l776 -385 l-776 -384 l0 769 Z" /><glyph glyph-name="triagdn" unicode="&#x25bc;" d="M65 745 l750 0 l-375 -757 l-375 757 Z" /><glyph glyph-name="uni25C0" unicode="&#x25c0;" d="M841 757 l0 -769 l-776 384 l776 385 Z" /><glyph glyph-name="uni25B3" unicode="&#x25b3;" d="M65 0 l375 757 l375 -757 l-750 0 ZM226 100 l428 0 l-214 432 l-214 -432 Z" /><glyph glyph-name="uni25B7" unicode="&#x25b7;" d="M138 -12 l0 769 l776 -385 l-776 -384 ZM238 149 l451 223 l-451 224 l0 -447 Z" /><glyph glyph-name="uni25BD" unicode="&#x25bd;" d="M38 745 l750 0 l-375 -757 l-375 757 ZM199 645 l214 -432 l214 432 l-428 0 Z" /><glyph glyph-name="uni25C1" unicode="&#x25c1;" d="M772 -12 l-776 384 l776 385 l0 -769 ZM672 149 l0 447 l-451 -224 l451 -223 Z" /><glyph glyph-name="uni2605" unicode="&#x2605;" d="M219 -12 l95 293 l-250 182 l309 0 l95 294 l96 -294 l309 0 l-250 -182 l96 -293 l-251 181 l-249 -181 Z" /><glyph glyph-name="uni2606" unicode="&#x2606;" d="M219 -12 l95 293 l-250 182 l309 0 l95 294 l96 -294 l309 0 l-250 -182 l96 -293 l-251 181 l-249 -181 ZM371 197 l97 71 l98 -71 l-37 114 l98 72 l-121 0 l-38 115 l-37 -115 l-121 0 l98 -71 l-37 -115 Z" /><glyph glyph-name="at" unicode="@" d="M485 -222 q-96 0 -176.5 31 q-80.5 31 -140 88 q-59.5 57 -92 136.5 q-32.5 79.5 -32.5 176.5 q0 97 32.5 176.5 q32.5 79.5 92 136.5 q59.5 57 139.5 88 q80 31 175 31 q95 0 172.5 -31 q77.5 -31 133 -88 q55.5 -57 85.5 -136.5 q30 -79.5 30 -176.5 q0 -65 -23.5 -112.5 q-23.5 -47.5 -64 -72.5 q-40.5 -25 -93.5 -25 q-35 0 -70.5 14 q-35.5 14 -59 44.5 q-23.5 30.5 -23.5 81.5 l26 -63 q-7 -24 -30 -41 q-23 -17 -54 -26.5 q-31 -9.5 -64 -9.5 q-58 0 -106 27.5 q-48 27.5 -76.5 76 q-28.5 48.5 -28.5 109.5 q0 60 28 110.5 q28 50.5 77 81 q49 30.5 111 30.5 q49 0 87.5 -18 q38.5 -18 48.5 -47 l-11 -42 l0 97 l100 0 l0 -246 q0 -35 13 -54.5 q13 -19.5 36 -19.5 q29 0 43 25 q14 25 14 86 q0 68 -19 125.5 q-19 57.5 -56.5 100.5 q-37.5 43 -93.5 66.5 q-56 23.5 -130 23.5 q-73 0 -132 -24 q-59 -24 -101.5 -67 q-42.5 -43 -65 -101.5 q-22.5 -58.5 -22.5 -128.5 q0 -72 24 -131.5 q24 -59.5 67.5 -102.5 q43.5 -43 102 -66 q58.5 -23 126.5 -23 q48 0 91.5 12.5 q43.5 12.5 80.5 36.5 l51 -97 q-97 -62 -222 -62 ZM462 105 q32 0 56.5 15 q24.5 15 38.5 40.5 q14 25.5 14 56.5 q0 47 -30.5 79 q-30.5 32 -77.5 33 q-31 1 -57 -13 q-26 -14 -41 -39.5 q-15 -25.5 -15 -58.5 q0 -32 15 -58 q15 -26 40.5 -40.5 q25.5 -14.5 56.5 -14.5 Z" /><glyph glyph-name="ampersand" unicode="&amp;" d="M322 -12 q-72 0 -125.5 25.5 q-53.5 25.5 -83.5 72.5 q-30 47 -30 109 q0 52 18.5 90 q18.5 38 45.5 64 q27 26 53.5 42.5 q26.5 16.5 43.5 25.5 l70 36 q33 17 59 33 q26 16 41.5 35.5 q15.5 19.5 15.5 45.5 q0 30 -19.5 51 q-19.5 21 -49.5 21 q-29 0 -49.5 -20.5 q-20.5 -20.5 -20.5 -52.5 q0 -24 11 -47 q11 -23 25.5 -42 q14.5 -19 26.5 -33 l390 -444 l-174 0 l-321 360 q-23 26 -45.5 55 q-22.5 29 -37 64.5 q-14.5 35.5 -14.5 79.5 q0 61 29 105.5 q29 44.5 76 68.5 q47 24 102 24 q58 0 104 -25 q46 -25 73 -68 q27 -43 27 -98 q0 -55 -25.5 -93.5 q-25.5 -38.5 -61.5 -64.5 q-36 -26 -68 -44 l-73 -42 q-20 -11 -43 -28 q-23 -17 -38.5 -40.5 q-15.5 -23.5 -15.5 -56.5 q0 -39 24 -61.5 q24 -22.5 66 -22.5 q26 0 46 8.5 q20 8.5 35 21 q15 12.5 25.5 26.5 q10.5 14 18.5 25 l117 169 l152 0 l-135 -212 q-15 -24 -36.5 -52.5 q-21.5 -28.5 -52.5 -53.5 q-31 -25 -74 -41 q-43 -16 -102 -16 Z" /><glyph glyph-name="paragraph" unicode="¶" d="M326 -100 l0 372 q-74 0 -129 29.5 q-55 29.5 -85.5 82.5 q-30.5 53 -30.5 124 q0 71 30.5 124.5 q30.5 53.5 85.5 83 q55 29.5 129 29.5 l155 0 l0 -845 l-155 0 Z" /><glyph glyph-name="section" unicode="§" d="M280 -95 q-93 0 -162.5 44.5 q-69.5 44.5 -95.5 120.5 l111 52 q23 -47 61.5 -73.5 q38.5 -26.5 85.5 -26.5 q35 0 55 14.5 q20 14.5 20 40.5 q0 13 -7 23.5 q-7 10.5 -20.5 18.5 q-13.5 8 -33.5 13 l-97 27 q-71 20 -109 64.5 q-38 44.5 -38 104.5 q0 53 27.5 93 q27.5 40 76.5 62.5 q49 22.5 112 22.5 l0 -81 q-33 0 -51.5 -19.5 q-18.5 -19.5 -18.5 -51.5 q0 -19 8.5 -34.5 q8.5 -15.5 27 -27 q18.5 -11.5 46.5 -19.5 l75 -22 q72 -21 109.5 -64 q37.5 -43 37.5 -104 q0 -53 -27.5 -93 q-27.5 -40 -77 -62.5 q-49.5 -22.5 -115.5 -22.5 ZM280 156 l0 77 q35 0 55 19.5 q20 19.5 20 55.5 q0 18 -7.5 33 q-7.5 15 -24.5 27 q-17 12 -47 20 l-79 22 q-71 20 -109 64.5 q-38 44.5 -38 104.5 q0 53 27.5 93 q27.5 40 76.5 62.5 q49 22.5 112 22.5 q81 0 144.5 -38.5 q63.5 -38.5 91.5 -111.5 l-112 -52 q-13 37 -47.5 59 q-34.5 22 -76.5 22 q-33 0 -51.5 -14 q-18.5 -14 -18.5 -37 q0 -14 8 -25 q8 -11 22.5 -18 q14.5 -7 33.5 -13 l93 -27 q72 -21 109.5 -64 q37.5 -43 37.5 -104 q0 -53 -27.5 -93 q-27.5 -40 -77 -62.5 q-49.5 -22.5 -115.5 -22.5 Z" /><glyph glyph-name="copyright" unicode="©" d="M477 -12 q-80 0 -150 30 q-70 30 -123 83 q-53 53 -83 123 q-30 70 -30 150 q0 80 29.5 149 q29.5 69 82.5 122 q53 53 123 82.5 q70 29.5 151 29.5 q79 0 148.5 -29.5 q69.5 -29.5 122.5 -82 q53 -52.5 83 -122 q30 -69.5 30 -149.5 q0 -80 -29.5 -150 q-29.5 -70 -82.5 -123 q-53 -53 -122.5 -83 q-69.5 -30 -149.5 -30 ZM477 88 q59 0 110.5 22 q51.5 22 90.5 61 q39 39 61 91 q22 52 22 112 q0 59 -22 110.5 q-22 51.5 -61.5 90.5 q-39.5 39 -90.5 61 q-51 22 -110 22 q-60 0 -112 -22 q-52 -22 -91 -61 q-39 -39 -61 -90.5 q-22 -51.5 -22 -110.5 q0 -60 22 -112 q22 -52 61 -91 q39 -39 91 -61 q52 -22 112 -22 ZM481 163 q-59 0 -107 27.5 q-48 27.5 -75.5 75 q-27.5 47.5 -27.5 107.5 q0 61 27.5 108 q27.5 47 75 74 q47.5 27 107.5 27 q45 0 82 -14.5 q37 -14.5 62.5 -40 q25.5 -25.5 35.5 -58.5 l-99 -37 q-9 22 -30 37 q-21 15 -51 15 q-46 0 -73 -31 q-27 -31 -27 -80 q0 -49 27 -80.5 q27 -31.5 73 -31.5 q29 0 50.5 15 q21.5 15 30.5 37 l99 -37 q-10 -33 -35.5 -58.5 q-25.5 -25.5 -62.5 -40 q-37 -14.5 -82 -14.5 Z" /><glyph glyph-name="registered" unicode="®" d="M348 271 q-71 0 -129.5 35 q-58.5 35 -93 93.5 q-34.5 58.5 -34.5 129.5 q0 71 34.5 129 q34.5 58 93 92 q58.5 34 129.5 34 q53 0 99 -19.5 q46 -19.5 81 -54.5 q35 -35 55 -81.5 q20 -46.5 20 -100.5 q0 -70 -34 -128.5 q-34 -58.5 -92 -93.5 q-58 -35 -129 -35 ZM348 346 q50 0 91 24.5 q41 24.5 65.5 66 q24.5 41.5 24.5 91.5 q0 51 -25 92.5 q-25 41.5 -66 66 q-41 24.5 -90 24.5 q-51 0 -92.5 -25 q-41.5 -25 -66 -66.5 q-24.5 -41.5 -24.5 -91.5 q0 -51 24.5 -92.5 q24.5 -41.5 66.5 -65.5 q42 -24 92 -24 ZM235 392 l0 272 l123 0 q44 0 73.5 -21.5 q29.5 -21.5 29.5 -70.5 q0 -33 -15.5 -52 q-15.5 -19 -36.5 -30 l55 -98 l-84 0 l-50 91 l-15 0 l0 -91 l-80 0 ZM315 549 l45 0 q11 0 17.5 7 q6.5 7 6.5 17 q0 11 -6.5 17.5 q-6.5 6.5 -17.5 6.5 l-45 0 l0 -48 Z" /><glyph glyph-name="trademark" unicode="&#x2122;" d="M189 298 l0 343 l-107 0 l0 104 l333 0 l0 -104 l-105 0 l0 -343 l-121 0 ZM443 298 l0 447 l119 0 l168 -209 l-55 0 l160 209 l119 0 l0 -447 l-120 0 l0 321 l51 -10 l-177 -212 l-18 0 l-168 212 l42 10 l0 -321 l-121 0 Z" /><glyph glyph-name="degree" unicode="°" d="M276 417 q-47 0 -85.5 23 q-38.5 23 -61.5 61.5 q-23 38.5 -23 85.5 q0 47 23 85.5 q23 38.5 61.5 61.5 q38.5 23 85.5 23 q47 0 85.5 -23 q38.5 -23 61.5 -61.5 q23 -38.5 23 -85.5 q0 -47 -23 -85.5 q-23 -38.5 -61.5 -61.5 q-38.5 -23 -85.5 -23 ZM276 517 q29 0 49.5 20.5 q20.5 20.5 20.5 49.5 q0 29 -20.5 49.5 q-20.5 20.5 -49.5 20.5 q-29 0 -49.5 -20.5 q-20.5 -20.5 -20.5 -49.5 q0 -29 20.5 -49.5 q20.5 -20.5 49.5 -20.5 Z" /><glyph glyph-name="minute" unicode="&#x2032;" d="M138 440 l0 305 l130 0 l-17 -305 l-113 0 Z" /><glyph glyph-name="second" unicode="&#x2033;" d="M138 440 l0 305 l130 0 l-17 -305 l-113 0 ZM337 440 l0 305 l130 0 l-17 -305 l-113 0 Z" /><glyph glyph-name="bar" unicode="|" d="M138 -190 l0 1035 l150 0 l0 -1035 l-150 0 Z" /><glyph glyph-name="brokenbar" unicode="¦" d="M138 428 l0 417 l150 0 l0 -417 l-150 0 ZM138 -190 l0 418 l150 0 l0 -418 l-150 0 Z" /><glyph glyph-name="dagger" unicode="&#x2020;" d="M270 -190 l0 588 l-195 0 l0 140 l195 0 l0 207 l150 0 l0 -207 l195 0 l0 -140 l-195 0 l0 -588 l-150 0 Z" /><glyph glyph-name="uni2113" unicode="&#x2113;" d="M437 -6 q-100 0 -146.5 43.5 q-46.5 43.5 -46.5 136.5 l0 371 q0 66 29.5 113.5 q29.5 47.5 78.5 73 q49 25.5 108 25.5 q63 0 109 -27 q46 -27 70.5 -70.5 q24.5 -43.5 24.5 -94.5 q0 -58 -31.5 -116 q-31.5 -58 -86.5 -112.5 q-55 -54.5 -126 -100.5 q-71 -46 -150 -81.5 q-79 -35.5 -158 -55.5 l-41 122 q92 27 170.5 66.5 q78.5 39.5 137.5 87 q59 47.5 92 98 q33 50.5 33 97.5 q0 31 -13.5 49 q-13.5 18 -36.5 18 q-25 0 -42.5 -21.5 q-17.5 -21.5 -17.5 -65.5 l0 -365 q0 -61 66 -61 l104 0 l0 -130 l-127 0 Z" /><glyph glyph-name="daggerdbl" unicode="&#x2021;" d="M289 -190 l0 207 l-195 0 l0 140 l195 0 l0 241 l-195 0 l0 140 l195 0 l0 207 l150 0 l0 -207 l195 0 l0 -140 l-195 0 l0 -241 l195 0 l0 -140 l-195 0 l0 -207 l-150 0 Z" /><glyph glyph-name="estimated" unicode="&#x212e;" d="M416 -10 q-85 0 -155.5 28 q-70.5 28 -121.5 77.5 q-51 49.5 -78.5 114.5 q-27.5 65 -27.5 139 q0 75 28 140.5 q28 65.5 79 115 q51 49.5 120.5 77.5 q69.5 28 152.5 28 q83 0 152.5 -28 q69.5 -28 120.5 -77.5 q51 -49.5 79 -114.5 q28 -65 28 -140 l0 -9 l-609 0 q-5 0 -5 -6 l0 -195 q0 -7 1.5 -10.5 q1.5 -3.5 8.5 -11.5 q39 -45 92 -75.5 q53 -30.5 135 -30.5 q81 0 134.5 31 q53.5 31 101.5 86 l58 0 q-35 -41 -75.5 -72.5 q-40.5 -31.5 -93.5 -49 q-53 -17.5 -125 -17.5 ZM184 360 l458 0 q4 0 4 6 l0 196 q0 3 -1 10 q-1 7 -9 14 q-30 32 -60.5 55 q-30.5 23 -69 35 q-38.5 12 -93.5 12 q-82 0 -134 -31 q-52 -31 -89 -74 q-8 -10 -9.5 -13 q-1.5 -3 -1.5 -11 l0 -193 q0 -6 5 -6 Z" /><glyph glyph-name="uni0308" unicode="&#x308;" d="M129 640 l0 150 l150 0 l0 -150 l-150 0 ZM359 640 l0 150 l150 0 l0 -150 l-150 0 Z" /><glyph glyph-name="uni0307" unicode="&#x307;" d="M129 640 l0 150 l150 0 l0 -150 l-150 0 Z" /><glyph glyph-name="gravecomb" unicode="&#x300;" d="M233 640 l-104 180 l193 0 l58 -180 l-147 0 Z" /><glyph glyph-name="acutecomb" unicode="&#x301;" d="M129 640 l58 180 l193 0 l-104 -180 l-147 0 Z" /><glyph glyph-name="uni030B" unicode="&#x30b;" d="M129 640 l38 180 l193 0 l-84 -180 l-147 0 ZM371 640 l38 180 l193 0 l-84 -180 l-147 0 Z" /><glyph glyph-name="uni0302" unicode="&#x302;" d="M129 640 l116 170 l179 0 l117 -170 l-144 0 l-62 90 l-62 -90 l-144 0 Z" /><glyph glyph-name="uni030C" unicode="&#x30c;" d="M245 640 l-116 170 l144 0 l62 -90 l62 90 l144 0 l-117 -170 l-179 0 Z" /><glyph glyph-name="uni0306" unicode="&#x306;" d="M344 640 q-74 0 -121 25.5 q-47 25.5 -69.5 64.5 q-22.5 39 -24.5 80 l148 0 q2 -26 19.5 -40.5 q17.5 -14.5 47.5 -14.5 q31 0 48.5 14.5 q17.5 14.5 19.5 40.5 l147 0 q-1 -43 -24 -82 q-23 -39 -69.5 -63.5 q-46.5 -24.5 -121.5 -24.5 Z" /><glyph glyph-name="uni030A" unicode="&#x30a;" d="M259 590 q-56 0 -93 35.5 q-37 35.5 -37 90.5 q0 54 37 89 q37 35 93 35 q56 0 92.5 -35 q36.5 -35 36.5 -89 q0 -55 -36.5 -90.5 q-36.5 -35.5 -92.5 -35.5 ZM259 677 q17 0 27.5 11 q10.5 11 10.5 28 q0 17 -10.5 28 q-10.5 11 -27.5 11 q-17 0 -28 -11 q-11 -11 -11 -28 q0 -17 11 -28 q11 -11 28 -11 Z" /><glyph glyph-name="tildecomb" unicode="&#x303;" d="M416 640 q-28 0 -47 8 q-19 8 -33 18 q-14 10 -27.5 18 q-13.5 8 -30.5 8 q-17 0 -25.5 -12.5 q-8.5 -12.5 -8.5 -35.5 l-115 0 q0 87 39.5 126.5 q39.5 39.5 92.5 39.5 q29 0 48.5 -7.5 q19.5 -7.5 34.5 -18 q15 -10.5 28 -18 q13 -7.5 28 -7.5 q20 0 27 12.5 q7 12.5 7 34.5 l115 0 q-1 -84 -40.5 -125 q-39.5 -41 -92.5 -41 Z" /><glyph glyph-name="uni0304" unicode="&#x304;" d="M129 660 l0 120 l340 0 l0 -120 l-340 0 Z" /><glyph glyph-name="hookabovecomb" unicode="&#x309;" d="M268 600 l-64 72 q29 16 39.5 29.5 q10.5 13.5 10.5 31.5 q0 19 -15.5 30 q-15.5 11 -43.5 11 q-12 0 -25.5 -1.5 q-13.5 -1.5 -24.5 -6.5 l-16 93 q17 8 41 12.5 q24 4.5 52 4.5 q75 0 119.5 -35 q44.5 -35 44.5 -94 q0 -43 -31 -80.5 q-31 -37.5 -87 -66.5 Z" /><glyph glyph-name="uni030F" unicode="&#x30f;" d="M233 640 l-104 184 l193 0 l58 -184 l-147 0 ZM475 640 l-104 184 l193 0 l58 -184 l-147 0 Z" /><glyph glyph-name="uni0311" unicode="&#x311;" d="M129 640 q2 41 24.5 80 q22.5 39 69.5 64.5 q47 25.5 121 25.5 q75 0 121.5 -24.5 q46.5 -24.5 69.5 -63.5 q23 -39 24 -82 l-147 0 q-2 26 -19.5 40.5 q-17.5 14.5 -48.5 14.5 q-30 0 -47.5 -14.5 q-17.5 -14.5 -19.5 -40.5 l-148 0 Z" /><glyph glyph-name="uni0312" unicode="&#x312;" d="M129 600 l75 193 l142 0 l-24 -193 l-193 0 Z" /><glyph glyph-name="uni031B" unicode="&#x31b;" d="M129 640 l0 103 l4 0 q6 0 17.5 1.5 q11.5 1.5 20.5 11.5 q9 10 9 36 q0 16 -6 36.5 q-6 20.5 -14 39.5 l126 0 q10 -21 16.5 -41.5 q6.5 -20.5 6.5 -47.5 q0 -72 -42.5 -105.5 q-42.5 -33.5 -110.5 -33.5 l-27 0 Z" /><glyph glyph-name="dotbelowcomb" unicode="&#x323;" d="M129 -240 l0 150 l150 0 l0 -150 l-150 0 Z" /><glyph glyph-name="uni0324" unicode="&#x324;" d="M129 -240 l0 150 l150 0 l0 -150 l-150 0 ZM359 -240 l0 150 l150 0 l0 -150 l-150 0 Z" /><glyph glyph-name="uni0326" unicode="&#x326;" d="M129 -263 l24 193 l193 0 l-75 -193 l-142 0 Z" /><glyph glyph-name="uni0327" unicode="&#x327;" d="M246 -240 q-26 0 -59.5 8 q-33.5 8 -57.5 24 l31 83 q15 -9 32.5 -14 q17.5 -5 33.5 -5 q22 0 33.5 8.5 q11.5 8.5 11.5 23.5 q0 18 -24 29 q-24 11 -69 15 l20 78 l85 0 l-8 -38 q53 -5 84 -31 q31 -26 31 -65 q0 -53 -39 -84.5 q-39 -31.5 -105 -31.5 Z" /><glyph glyph-name="uni0328" unicode="&#x328;" d="M276 -240 q-66 0 -106.5 36.5 q-40.5 36.5 -40.5 89.5 q0 38 16 71.5 q16 33.5 51 56.5 q35 23 91 31 l29 0 l0 -45 q-21 -4 -36 -17 q-15 -13 -23.5 -32 q-8.5 -19 -8.5 -43 q0 -26 17 -39 q17 -13 35 -13 q17 0 28 4.5 q11 4.5 24 14.5 l31 -83 q-22 -14 -47 -23 q-25 -9 -60 -9 Z" /><glyph glyph-name="uni032E" unicode="&#x32e;" d="M344 -260 q-74 0 -121 25.5 q-47 25.5 -69.5 64.5 q-22.5 39 -24.5 80 l148 0 q2 -26 19.5 -40.5 q17.5 -14.5 47.5 -14.5 q31 0 48.5 14.5 q17.5 14.5 19.5 40.5 l147 0 q-1 -43 -24 -82 q-23 -39 -69.5 -63.5 q-46.5 -24.5 -121.5 -24.5 Z" /><glyph glyph-name="uni0331" unicode="&#x331;" d="M129 -220 l0 120 l340 0 l0 -120 l-340 0 Z" /></font>
</defs>
</svg>
