<svg width="1920" height="1080" xmlns="http://www.w3.org/2000/svg" xmlns:xlink="http://www.w3.org/1999/xlink" version="1.1" baseProfile="full" viewBox="0 0 1920 1080">
<rect width="1920" height="1080" x="0" y="0" id="0" fill="none"></rect>
<path d="M192 1010.5L1728 1010.5" fill="none" stroke="#E0E6F1"></path>
<path d="M192 820.5L1728 820.5" fill="none" stroke="#E0E6F1"></path>
<path d="M192 630.5L1728 630.5" fill="none" stroke="#E0E6F1"></path>
<path d="M192 440.5L1728 440.5" fill="none" stroke="#E0E6F1"></path>
<path d="M192 250.5L1728 250.5" fill="none" stroke="#E0E6F1"></path>
<path d="M192 60.5L1728 60.5" fill="none" stroke="#E0E6F1"></path>
<path d="M192 1010.5L1728 1010.5" fill="none" stroke="#6E7079" stroke-linecap="round"></path>
<path d="M192.5 1010L192.5 1015" fill="none" stroke="#6E7079"></path>
<path d="M345.5 1010L345.5 1015" fill="none" stroke="#6E7079"></path>
<path d="M499.5 1010L499.5 1015" fill="none" stroke="#6E7079"></path>
<path d="M653.5 1010L653.5 1015" fill="none" stroke="#6E7079"></path>
<path d="M806.5 1010L806.5 1015" fill="none" stroke="#6E7079"></path>
<path d="M960.5 1010L960.5 1015" fill="none" stroke="#6E7079"></path>
<path d="M1113.5 1010L1113.5 1015" fill="none" stroke="#6E7079"></path>
<path d="M1267.5 1010L1267.5 1015" fill="none" stroke="#6E7079"></path>
<path d="M1421.5 1010L1421.5 1015" fill="none" stroke="#6E7079"></path>
<path d="M1574.5 1010L1574.5 1015" fill="none" stroke="#6E7079"></path>
<path d="M1728.5 1010L1728.5 1015" fill="none" stroke="#6E7079"></path>
<text dominant-baseline="central" text-anchor="end" style="font-size:12px;font-family:sans-serif;" transform="translate(184 1010)" fill="#6E7079">0</text>
<text dominant-baseline="central" text-anchor="end" style="font-size:12px;font-family:sans-serif;" transform="translate(184 820)" fill="#6E7079">200</text>
<text dominant-baseline="central" text-anchor="end" style="font-size:12px;font-family:sans-serif;" transform="translate(184 630)" fill="#6E7079">400</text>
<text dominant-baseline="central" text-anchor="end" style="font-size:12px;font-family:sans-serif;" transform="translate(184 440)" fill="#6E7079">600</text>
<text dominant-baseline="central" text-anchor="end" style="font-size:12px;font-family:sans-serif;" transform="translate(184 250)" fill="#6E7079">800</text>
<text dominant-baseline="central" text-anchor="end" style="font-size:12px;font-family:sans-serif;" transform="translate(184 60)" fill="#6E7079">1,000</text>
<text dominant-baseline="central" text-anchor="middle" style="font-size:12px;font-family:sans-serif;" y="6" transform="translate(268.8 1018)" fill="#6E7079">run-1</text>
<text dominant-baseline="central" text-anchor="middle" style="font-size:12px;font-family:sans-serif;" y="6" transform="translate(422.4 1018)" fill="#6E7079">run-2</text>
<text dominant-baseline="central" text-anchor="middle" style="font-size:12px;font-family:sans-serif;" y="6" transform="translate(576 1018)" fill="#6E7079">run-3</text>
<text dominant-baseline="central" text-anchor="middle" style="font-size:12px;font-family:sans-serif;" y="6" transform="translate(729.6 1018)" fill="#6E7079">run-4</text>
<text dominant-baseline="central" text-anchor="middle" style="font-size:12px;font-family:sans-serif;" y="6" transform="translate(883.2 1018)" fill="#6E7079">run-5</text>
<text dominant-baseline="central" text-anchor="middle" style="font-size:12px;font-family:sans-serif;" y="6" transform="translate(1036.8 1018)" fill="#6E7079">run-6</text>
<text dominant-baseline="central" text-anchor="middle" style="font-size:12px;font-family:sans-serif;" y="6" transform="translate(1190.4 1018)" fill="#6E7079">run-7</text>
<text dominant-baseline="central" text-anchor="middle" style="font-size:12px;font-family:sans-serif;" y="6" transform="translate(1344 1018)" fill="#6E7079">run-8</text>
<text dominant-baseline="central" text-anchor="middle" style="font-size:12px;font-family:sans-serif;" y="6" transform="translate(1497.6 1018)" fill="#6E7079">run-9</text>
<text dominant-baseline="central" text-anchor="middle" style="font-size:12px;font-family:sans-serif;" y="6" transform="translate(1651.2 1018)" fill="#6E7079">run-10</text>
<g clip-path="url(#zr0-c0)">
<path d="M268.8 177.9L422.4 387.9L576 479.3L729.6 486.8L883.2 461.1L1036.8 495.8L1190.4 493.9L1344 532.6L1497.6 467.6L1651.2 501.8" fill="none" stroke="#5470c6" stroke-width="2" stroke-linejoin="bevel"></path>
</g>
<path d="M1 0A1 1 0 1 1 1 -0.1A1 1 0 0 1 1 0" transform="matrix(2,0,0,2,268.8,177.9149)" fill="#fff" stroke="#5470c6"></path>
<path d="M1 0A1 1 0 1 1 1 -0.1A1 1 0 0 1 1 0" transform="matrix(2,0,0,2,422.4,387.8754)" fill="#fff" stroke="#5470c6"></path>
<path d="M1 0A1 1 0 1 1 1 -0.1A1 1 0 0 1 1 0" transform="matrix(2,0,0,2,576,479.3025)" fill="#fff" stroke="#5470c6"></path>
<path d="M1 0A1 1 0 1 1 1 -0.1A1 1 0 0 1 1 0" transform="matrix(2,0,0,2,729.6,486.7809)" fill="#fff" stroke="#5470c6"></path>
<path d="M1 0A1 1 0 1 1 1 -0.1A1 1 0 0 1 1 0" transform="matrix(2,0,0,2,883.2,461.052)" fill="#fff" stroke="#5470c6"></path>
<path d="M1 0A1 1 0 1 1 1 -0.1A1 1 0 0 1 1 0" transform="matrix(2,0,0,2,1036.8,495.7545)" fill="#fff" stroke="#5470c6"></path>
<path d="M1 0A1 1 0 1 1 1 -0.1A1 1 0 0 1 1 0" transform="matrix(2,0,0,2,1190.4,493.922)" fill="#fff" stroke="#5470c6"></path>
<path d="M1 0A1 1 0 1 1 1 -0.1A1 1 0 0 1 1 0" transform="matrix(2,0,0,2,1344,532.6155)" fill="#fff" stroke="#5470c6"></path>
<path d="M1 0A1 1 0 1 1 1 -0.1A1 1 0 0 1 1 0" transform="matrix(2,0,0,2,1497.6,467.5728)" fill="#fff" stroke="#5470c6"></path>
<path d="M1 0A1 1 0 1 1 1 -0.1A1 1 0 0 1 1 0" transform="matrix(2,0,0,2,1651.2,501.8355)" fill="#fff" stroke="#5470c6"></path>
<path d="M-5 -5l329.6 0l0 23.2l-329.6 0Z" transform="translate(800.2 5)" fill="rgb(0,0,0)" fill-opacity="0" stroke="#ccc" stroke-width="0"></path>
<path d="M0 7L25 7" transform="translate(801.2 4.6)" fill="#000" stroke="#5470c6" stroke-width="2" stroke-linecap="butt" stroke-miterlimit="10"></path>
<path d="M18.1 7A5.6 5.6 0 1 1 18.1 6.4A5.6 5.6 0 0 1 18.1 7" transform="translate(801.2 4.6)" fill="#fff" stroke="#5470c6" stroke-width="2" stroke-linecap="butt" stroke-miterlimit="10"></path>
<text dominant-baseline="central" text-anchor="start" style="font-size:12px;font-family:sans-serif;" x="30" y="7" transform="translate(801.2 4.6)" fill="#333">https://dev-ones.site/products/pipeline-integration.html</text>
<path d="M-5 -5l45.1 0l0 28l-45.1 0Z" transform="translate(5 5)" fill="rgb(0,0,0)" fill-opacity="0" stroke="#ccc" stroke-width="0"></path>
<text dominant-baseline="central" text-anchor="start" style="font-size:18px;font-family:sans-serif;font-weight:bold;" y="9" transform="translate(5 5)" fill="#464646">LCP</text>
<defs >
<clipPath id="zr0-c0">
<path d="M191 59l1538 0l0 952l-1538 0Z" fill="#000" class="zr0-cls-0"></path>
</clipPath>
</defs>
<style ><![CDATA[
.zr0-cls-0 {
animation:zr0-ani-0 1s linear both;
}
@keyframes zr0-ani-0 {
0% {
d:path("M191 59l0 0l0 952l0 0Z");
}
100% {
d:path("M191 59l1538 0l0 952l-1538 0Z");
}
}
]]>

</style>
</svg>